<svg width="30" height="30" viewBox="0 0 30 30" fill="none" xmlns="http://www.w3.org/2000/svg">
<path d="M25.9066 24.0004H4.10657C3.56882 24.0067 3.03873 23.8726 2.5687 23.6113C2.09868 23.35 1.70499 22.9705 1.42657 22.5104C1.16372 22.081 1.01721 21.5906 1.00143 21.0873C0.985645 20.5841 1.10115 20.0855 1.33657 19.6404L7.63657 7.64042C7.90387 7.13965 8.30355 6.72188 8.79201 6.43269C9.28047 6.14349 9.83895 5.99397 10.4066 6.00042H25.9066C26.3071 5.9938 26.705 6.06615 27.0776 6.21334C27.4502 6.36053 27.7901 6.57968 28.078 6.85826C28.3659 7.13685 28.596 7.46942 28.7554 7.83697C28.9147 8.20453 29.0001 8.59987 29.0066 9.00042V21.0004C29.0001 21.401 28.9147 21.7963 28.7554 22.1639C28.596 22.5314 28.3659 22.864 28.078 23.1426C27.7901 23.4212 27.4502 23.6403 27.0776 23.7875C26.705 23.9347 26.3071 24.007 25.9066 24.0004ZM10.4066 8.00042C10.2039 7.99604 10.0038 8.04674 9.82774 8.14712C9.65163 8.24751 9.50606 8.3938 9.40657 8.57042L3.10657 20.5704C3.0257 20.7084 2.98308 20.8655 2.98308 21.0254C2.98308 21.1854 3.0257 21.3424 3.10657 21.4804C3.21164 21.6485 3.3598 21.7853 3.53565 21.8768C3.71151 21.9682 3.90864 22.0109 4.10657 22.0004H25.9066C26.0445 22.0071 26.1824 21.9866 26.3124 21.94C26.4423 21.8933 26.5618 21.8215 26.664 21.7286C26.7662 21.6357 26.849 21.5236 26.9078 21.3986C26.9666 21.2737 27.0002 21.1384 27.0066 21.0004V9.00042C27.0002 8.86248 26.9666 8.72716 26.9078 8.60221C26.849 8.47725 26.7662 8.36512 26.664 8.27223C26.5618 8.17935 26.4423 8.10752 26.3124 8.06088C26.1824 8.01424 26.0445 7.99369 25.9066 8.00042H10.4066Z" fill="#272727"/>
<path fill-rule="evenodd" clip-rule="evenodd" d="M17.9857 13.1425C18.3023 12.9525 18.698 12.9525 19.0146 13.1425L21.5146 14.6425C21.9882 14.9267 22.1418 15.5409 21.8576 16.0145C21.5735 16.4881 20.9592 16.6416 20.4857 16.3575L18.5002 15.1662L16.5146 16.3575C16.0411 16.6416 15.4268 16.4881 15.1427 16.0145C14.8585 15.5409 15.0121 14.9267 15.4857 14.6425L17.9857 13.1425Z" fill="#272727"/>
</svg>
