<svg width="20" height="20" viewBox="0 0 20 20" fill="none" xmlns="http://www.w3.org/2000/svg">
<path fill-rule="evenodd" clip-rule="evenodd" d="M7.99441 0.875C4.18094 0.875 1.18945 3.41367 0.899107 6.93901C0.779648 8.33416 1.10627 9.73122 1.83191 10.9288L1.83278 10.9302C2.39616 11.8331 2.72448 12.8628 2.78778 13.9252C2.85101 14.9866 2.64771 16.0469 2.1964 17.0097C2.1594 17.08 2.13677 17.1571 2.12986 17.2363C2.12284 17.3167 2.13214 17.3976 2.1572 17.4743C2.18225 17.551 2.22254 17.6218 2.27564 17.6825C2.32875 17.7432 2.39357 17.7926 2.46623 17.8276C2.53889 17.8627 2.61788 17.8826 2.69845 17.8864C2.77903 17.8901 2.85953 17.8776 2.93513 17.8494C3.01073 17.8213 3.07986 17.7782 3.13837 17.7226C3.19639 17.6676 3.24278 17.6015 3.27482 17.5282C3.81217 16.3863 4.05544 15.1282 3.98245 13.8683C3.90945 12.608 3.52233 11.3861 2.85637 10.3137C2.26089 9.32972 1.99378 8.18188 2.09367 7.03612L2.09373 7.03544C2.32825 4.16387 4.79773 2.07237 7.9982 2.07237H8.0702C9.49935 2.07237 10.5905 2.36823 11.371 2.95219C12.1489 3.53414 12.6343 4.41437 12.8295 5.61799C12.8625 5.83265 12.8829 6.04906 12.8905 6.26611L12.8906 6.26772C12.9199 6.87322 13.1079 7.46037 13.4356 7.97032C13.7634 8.48026 14.2194 8.89522 14.758 9.17332L14.7638 9.17595C14.8219 9.20226 14.8756 9.23718 14.9231 9.27948C14.9275 9.29067 14.9293 9.30276 14.9284 9.31486C14.9271 9.33036 14.9214 9.34515 14.9119 9.35739C14.7043 9.56754 14.441 9.71393 14.153 9.77948L14.1478 9.78088C14.0168 9.8166 13.9019 9.89578 13.8218 10.0054C13.7418 10.1151 13.7013 10.2487 13.7072 10.3844L13.7072 10.385L13.7551 11.3679C13.3631 11.4455 12.9633 11.4774 12.5638 11.4629C12.4092 11.4565 12.2554 11.4873 12.1153 11.5528C11.9753 11.6183 11.853 11.7165 11.7589 11.8391C11.6621 11.9643 11.597 12.1109 11.5691 12.2666C11.5411 12.4222 11.5511 12.5823 11.5982 12.7332C11.7382 13.1848 12.1507 13.9381 13.3257 14.245C13.2546 14.5452 13.2404 14.8562 13.2839 15.1618L13.2847 15.1673L13.2859 15.1726C13.2916 15.1968 13.2987 15.2206 13.3073 15.2439C13.3369 15.3259 13.3483 15.4133 13.3407 15.5001C13.3332 15.5871 13.3067 15.6713 13.2633 15.747L13.2628 15.7479C13.2207 15.8225 13.1627 15.8869 13.0929 15.9365C13.0231 15.9861 12.9429 16.0198 12.8586 16.0349C12.1611 16.1617 11.4497 16.1931 10.7438 16.1281L10.7414 16.128C10.0433 16.0769 9.36334 15.8817 8.7444 15.5547L8.74121 15.5531C8.35918 15.365 8.02889 15.0864 7.77903 14.7417C7.73636 14.6769 7.68152 14.6211 7.61755 14.5773C7.55268 14.5329 7.47969 14.5016 7.40275 14.4854C7.32582 14.4692 7.24644 14.4682 7.16914 14.4827C7.09185 14.4971 7.01816 14.5267 6.95227 14.5696C6.88639 14.6125 6.82961 14.668 6.78517 14.7329C6.74073 14.7977 6.70951 14.8707 6.69327 14.9477C6.67704 15.0246 6.67612 15.104 6.69057 15.1813C6.70501 15.2586 6.73448 15.3323 6.7774 15.3982L6.77994 15.4018C7.13872 15.9121 7.6181 16.3258 8.17541 16.606C8.48876 16.775 8.817 16.9145 9.15594 17.023V18.5263C9.15594 18.6851 9.21901 18.8374 9.33129 18.9497C9.44356 19.0619 9.59584 19.125 9.75462 19.125C9.9134 19.125 10.0657 19.0619 10.178 18.9497C10.2902 18.8374 10.3533 18.6851 10.3533 18.5263V17.2891C10.4454 17.3011 10.5385 17.3112 10.6326 17.3189C11.4468 17.3936 12.2678 17.3573 13.0723 17.2111C13.3239 17.1646 13.5627 17.0648 13.7727 16.9184C13.9826 16.772 14.1587 16.5824 14.2893 16.3623C14.4199 16.1422 14.5019 15.8967 14.5298 15.6423C14.5571 15.3937 14.532 15.1421 14.4564 14.9038C14.4506 14.7658 14.4625 14.6275 14.4919 14.4925L14.5499 14.2606L14.5501 14.2599C14.5818 14.1377 14.5883 14.0103 14.5691 13.8856C14.5499 13.7606 14.5054 13.6408 14.4383 13.5336L14.437 13.5317C14.3679 13.4258 14.2776 13.3355 14.1718 13.2663C14.0662 13.1973 13.9474 13.1509 13.823 13.1301C13.3775 13.0511 13.0685 12.8871 12.8887 12.6649C13.4574 12.6521 14.0219 12.5608 14.5662 12.3932L14.5697 12.392C14.6928 12.35 14.7988 12.2691 14.8718 12.1616C14.9448 12.054 14.9808 11.9256 14.9744 11.7957L14.9239 10.7709C15.2585 10.6309 15.5593 10.4202 15.8055 10.1529L15.8063 10.152C15.9896 9.94912 16.1021 9.69216 16.1267 9.41983C16.1514 9.1475 16.087 8.87445 15.9431 8.64193L15.9398 8.63703C15.784 8.41015 15.5693 8.22999 15.3189 8.11585C14.9643 7.93373 14.6639 7.6615 14.4478 7.32648C14.2312 6.9908 14.107 6.60396 14.0877 6.20496C14.0773 5.94656 14.0522 5.68895 14.0125 5.43341L14.0123 5.43264C13.8449 4.39926 13.4362 3.2573 12.5241 2.37344C11.6097 1.48742 10.2042 0.875 8.07209 0.875H7.99441Z" fill="#272727"/>
<path d="M17.8843 10.4135C17.8065 10.4024 17.7272 10.4067 17.6511 10.4262C17.5749 10.4457 17.5033 10.4801 17.4405 10.5272C17.3776 10.5744 17.3246 10.6335 17.2845 10.7011C17.2444 10.7688 17.2181 10.8437 17.207 10.9215C17.1959 10.9993 17.2002 11.0786 17.2197 11.1548C17.2392 11.2309 17.2735 11.3025 17.3207 11.3654L17.3212 11.3661C17.5647 11.6859 17.7427 12.0506 17.8451 12.4392C17.9476 12.8279 17.9725 13.2329 17.9184 13.6312C17.8643 14.0294 17.7323 14.4131 17.5299 14.7604C17.3275 15.1076 17.0586 15.4116 16.7387 15.6549L16.6452 15.726L16.6552 15.741C16.6297 15.7696 16.6069 15.8008 16.5872 15.834C16.5472 15.9016 16.5209 15.9765 16.5097 16.0543C16.4986 16.1322 16.5029 16.2114 16.5224 16.2876C16.542 16.3638 16.5763 16.4353 16.6235 16.4982C16.6706 16.5611 16.7297 16.6141 16.7974 16.6542C16.865 16.6942 16.9399 16.7206 17.0177 16.7317C17.0956 16.7428 17.1748 16.7385 17.251 16.719C17.3271 16.6995 17.3987 16.6651 17.4616 16.618L17.4621 16.6176C17.9082 16.2794 18.2833 15.8566 18.5658 15.3733C18.8483 14.89 19.0327 14.3558 19.1085 13.8011C19.1843 13.2465 19.15 12.6824 19.0075 12.141C18.865 11.5998 18.6172 11.092 18.2783 10.6466C18.2312 10.5839 18.1722 10.531 18.1047 10.491C18.037 10.451 17.9622 10.4246 17.8843 10.4135Z" fill="#272727"/>
<path d="M16.2575 11.3949C16.1783 11.3844 16.0978 11.3899 16.0207 11.411C15.9439 11.4321 15.8722 11.4682 15.8095 11.5173C15.6837 11.6133 15.601 11.7552 15.5795 11.912C15.558 12.0691 15.5997 12.2285 15.6955 12.3549C15.9154 12.6446 16.0115 13.0096 15.9627 13.37C15.9139 13.7303 15.7243 14.0564 15.4354 14.2771C15.3727 14.3243 15.3199 14.3832 15.2799 14.4507C15.2399 14.5184 15.2135 14.5933 15.2024 14.6711C15.1913 14.7489 15.1956 14.8282 15.2151 14.9043C15.2346 14.9805 15.269 15.0521 15.3161 15.115C15.3633 15.1779 15.4224 15.2309 15.4901 15.2709C15.5577 15.311 15.6326 15.3373 15.7104 15.3484C15.7883 15.3595 15.8675 15.3552 15.9437 15.3357C16.0198 15.3162 16.0916 15.2817 16.1545 15.2346C16.4246 15.0312 16.6518 14.7765 16.8234 14.4852C16.9949 14.1938 17.1073 13.8715 17.1541 13.5367C17.2009 13.2019 17.1812 12.8611 17.0961 12.5339C17.0111 12.2068 16.8624 11.8997 16.6586 11.6302C16.6109 11.5662 16.5508 11.5125 16.482 11.4721C16.4131 11.4317 16.3368 11.4054 16.2575 11.3949Z" fill="#272727"/>
</svg>
