<svg width="26" height="26" viewBox="0 0 26 26" fill="none" xmlns="http://www.w3.org/2000/svg">
<path d="M3.70425 17.4279C4.48539 17.4279 5.22453 17.1229 5.78258 16.6031V21.6391C4.04507 21.8707 2.39477 22.1827 0.87997 22.5813C0.715042 22.6248 0.616749 22.7936 0.660167 22.9585C0.703585 23.1238 0.872734 23.2224 1.03736 23.1786C2.50405 22.7926 4.101 22.489 5.78258 22.2618V25.0412C5.78258 25.2118 5.92067 25.35 6.09133 25.35C6.26198 25.35 6.40008 25.2118 6.40008 25.0412V22.1803C8.49264 21.9256 10.7116 21.7914 12.9999 21.7914C15.2882 21.7914 17.5072 21.9256 19.5997 22.1803V25.0412C19.5997 25.2118 19.7378 25.35 19.9085 25.35C20.0791 25.35 20.2172 25.2118 20.2172 25.0412V22.2618C21.8988 22.489 23.4958 22.7926 24.9624 23.1786C24.989 23.1856 25.0152 23.1889 25.0414 23.1889C25.1783 23.1887 25.3032 23.0971 25.3396 22.9585C25.3831 22.7936 25.2848 22.6248 25.1198 22.5813C23.605 22.1827 21.9547 21.8707 20.2172 21.6391V16.6031C20.7753 17.1229 21.5144 17.4279 22.2956 17.4279C23.9798 17.4279 25.3499 16.0576 25.3499 14.3735C25.3499 13.6811 25.1171 13.0185 24.6896 12.4799C25.1171 11.9414 25.3499 11.279 25.3499 10.5864C25.3499 9.8938 25.1171 9.23122 24.6896 8.69272C25.1171 8.15407 25.3499 7.49149 25.3499 6.79906C25.3499 5.35723 24.3416 4.12539 22.9601 3.81936C22.9619 3.78031 22.9628 3.74217 22.9628 3.70433C22.9628 2.02022 21.5927 0.649994 19.9085 0.649994C18.2242 0.649994 16.8541 2.02022 16.8541 3.70433C16.8541 3.74217 16.855 3.78031 16.8569 3.81936C15.4753 4.12539 14.4671 5.35723 14.4671 6.79906C14.4671 7.49134 14.6998 8.15392 15.1274 8.69272C14.6998 9.23137 14.4671 9.89395 14.4671 10.5864C14.4671 11.2787 14.6998 11.9412 15.1274 12.4799C14.6998 13.0187 14.4671 13.6813 14.4671 14.3735C14.4671 16.0576 15.8371 17.4279 17.5214 17.4279C18.3027 17.4279 19.0419 17.1229 19.5997 16.6032V21.5575C17.5041 21.3057 15.2851 21.1739 12.9999 21.1739C10.7147 21.1739 8.49571 21.3057 6.40008 21.5575V16.6032C6.95795 17.1229 7.69707 17.4279 8.47841 17.4279C10.1627 17.4279 11.5327 16.0576 11.5327 14.3735C11.5327 13.6813 11.3 13.0187 10.8724 12.4799C11.3 11.9412 11.5327 11.2787 11.5327 10.5864C11.5327 9.89395 11.3 9.23137 10.8724 8.69272C11.3 8.15392 11.5327 7.49134 11.5327 6.79906C11.5327 5.35723 10.5245 4.12539 9.14294 3.81936C9.14475 3.78031 9.14566 3.74217 9.14566 3.70433C9.14566 2.02022 7.77558 0.649994 6.09133 0.649994C4.40707 0.649994 3.037 2.02022 3.037 3.70433C3.037 3.74217 3.0379 3.78031 3.03971 3.81936C1.65818 4.12539 0.649916 5.35723 0.649916 6.79906C0.649916 7.49149 0.882684 8.15407 1.31023 8.69272C0.882684 9.23122 0.649916 9.8938 0.649916 10.5864C0.649916 11.279 0.882684 11.9414 1.31023 12.4799C0.882684 13.0185 0.649916 13.6811 0.649916 14.3735C0.649916 16.0576 2.01999 17.4279 3.70425 17.4279ZM17.5214 16.8104C16.1779 16.8104 15.0846 15.7172 15.0846 14.3735C15.0846 13.7464 15.3246 13.1495 15.76 12.6931C15.8736 12.5737 15.8736 12.386 15.76 12.2667C15.3243 11.8102 15.0846 11.2135 15.0846 10.5864C15.0846 9.95908 15.3243 9.36238 15.76 8.90589C15.8736 8.78664 15.8736 8.59895 15.76 8.47955C15.3246 8.02306 15.0846 7.42621 15.0846 6.79906C15.0846 5.56783 16.006 4.52867 17.2277 4.38168C17.31 4.37188 17.3848 4.32937 17.4352 4.26394C17.4858 4.19851 17.5081 4.11544 17.497 4.03343C17.4798 3.9074 17.4716 3.80292 17.4716 3.70433C17.4716 2.36063 18.5649 1.26749 19.9085 1.26749C21.252 1.26749 22.3453 2.36063 22.3453 3.70433C22.3453 3.80292 22.3372 3.9074 22.32 4.03343C22.3088 4.11544 22.3311 4.19851 22.3818 4.26394C22.4321 4.32937 22.5069 4.37188 22.5892 4.38168C23.811 4.52867 24.7324 5.56783 24.7324 6.79906C24.7324 7.42651 24.4927 8.02321 24.057 8.47955C23.9433 8.5988 23.9433 8.78664 24.057 8.90589C24.4927 9.36208 24.7324 9.95878 24.7324 10.5864C24.7324 11.2138 24.4927 11.8105 24.057 12.2667C23.9433 12.386 23.9433 12.5738 24.057 12.6931C24.4927 13.1494 24.7324 13.7461 24.7324 14.3735C24.7324 15.7172 23.6391 16.8104 22.2956 16.8104C21.4466 16.8104 20.659 16.3605 20.2172 15.6353V10.0905C20.2172 9.92003 20.0791 9.78179 19.9085 9.78179C19.7378 9.78179 19.5997 9.92003 19.5997 10.0905V15.6355C19.1582 16.3605 18.3706 16.8104 17.5214 16.8104ZM1.9428 12.2667C1.50712 11.8105 1.26741 11.2138 1.26741 10.5864C1.26741 9.95878 1.50712 9.36208 1.9428 8.90589C2.05648 8.78664 2.05648 8.5988 1.9428 8.47955C1.50712 8.02321 1.26741 7.42651 1.26741 6.79906C1.26741 5.56783 2.18884 4.52867 3.41057 4.38168C3.49288 4.37188 3.56766 4.32937 3.61801 4.26394C3.66867 4.19851 3.69098 4.11544 3.67982 4.03343C3.66264 3.9074 3.6545 3.80292 3.6545 3.70433C3.6545 2.36063 4.74778 1.26749 6.09133 1.26749C7.43487 1.26749 8.52816 2.36063 8.52816 3.70433C8.52816 3.80292 8.52002 3.9074 8.50283 4.03343C8.49167 4.11544 8.51399 4.19851 8.56464 4.26394C8.61499 4.32937 8.68977 4.37188 8.77208 4.38168C9.99381 4.52867 10.9152 5.56783 10.9152 6.79906C10.9152 7.42621 10.6752 8.02306 10.2398 8.47955C10.1262 8.59895 10.1262 8.78664 10.2398 8.90589C10.6755 9.36238 10.9152 9.95908 10.9152 10.5864C10.9152 11.2135 10.6755 11.8102 10.2398 12.2667C10.1262 12.386 10.1262 12.5737 10.2398 12.6931C10.6752 13.1495 10.9152 13.7464 10.9152 14.3735C10.9152 15.7172 9.82195 16.8104 8.47841 16.8104C7.6292 16.8104 6.8416 16.3605 6.40008 15.6355V10.0905C6.40008 9.92003 6.26198 9.78179 6.09133 9.78179C5.92067 9.78179 5.78258 9.92003 5.78258 10.0905V15.6353C5.34078 16.3605 4.55318 16.8104 3.70425 16.8104C2.3607 16.8104 1.26741 15.7172 1.26741 14.3735C1.26741 13.7461 1.50712 13.1494 1.9428 12.6931C2.05648 12.5738 2.05648 12.386 1.9428 12.2667Z" fill="#272727" stroke="#272727"/>
</svg>
