<svg width="30" height="30" viewBox="0 0 30 30" fill="none" xmlns="http://www.w3.org/2000/svg">
<path d="M25.7391 25.7391C28.8764 22.6017 28.8764 17.4862 25.7391 14.3488C22.8404 11.4501 18.2582 11.2185 15.0776 13.6985C13.2333 11.2783 13.4306 7.78347 15.651 5.56306C17.8428 3.37134 21.3028 3.14721 23.7435 4.95411L19.9585 8.73913C19.6024 9.0952 19.6024 9.68532 19.9585 10.0414C20.3146 10.3974 20.9047 10.3974 21.2608 10.0414L25.7391 5.56306C26.0952 5.20699 26.0952 4.61687 25.7391 4.26081C22.6017 1.12347 17.4861 1.12347 14.3488 4.26081C11.45 7.15954 11.2184 11.7417 13.6984 14.9222C11.2782 16.7665 7.78341 16.5692 5.56298 14.3488C3.37125 12.1571 3.14713 8.69707 4.95404 6.25636L8.73907 10.0414C9.09514 10.3974 9.68526 10.3974 10.0413 10.0414C10.3974 9.68532 10.3974 9.0952 10.0413 8.73913L5.56298 4.26081C5.20692 3.90474 4.6168 3.90475 4.26073 4.26081C1.12338 7.39815 1.12338 12.5137 4.26073 15.6511C7.15947 18.5498 11.7417 18.7814 14.9222 16.3014C16.7665 18.7216 16.5692 22.2164 14.3488 24.4368C12.1571 26.6286 8.69701 26.8527 6.25629 25.0458L10.0413 21.2608C10.3974 20.9047 10.3974 20.3146 10.0413 19.9585C9.68526 19.6024 9.09514 19.6024 8.73907 19.9585L4.26073 24.4368C3.90466 24.7929 3.90466 25.383 4.26073 25.7391C7.39808 28.8764 12.5137 28.8764 15.651 25.7391C18.5498 22.8403 18.7814 18.2582 16.3014 15.0777C18.7216 13.2334 22.2164 13.4307 24.4368 15.6511C26.6286 17.8428 26.8527 21.3028 25.0458 23.7435L21.2608 19.9585C20.9047 19.6024 20.3146 19.6024 19.9585 19.9585C19.6024 20.3146 19.6024 20.9047 19.9585 21.2608L24.4368 25.7391C24.7929 26.0951 25.383 26.0951 25.7391 25.7391Z" fill="#272727"/>
</svg>
