<svg width="29" height="20" viewBox="0 0 29 20" fill="none" xmlns="http://www.w3.org/2000/svg">
<path d="M14.25 7.3333H19.5937C19.9215 7.3333 20.1875 7.60399 20.1875 7.93749C20.1875 8.27098 19.9215 8.54167 19.5937 8.54167H13.6562C13.3285 8.54167 13.0625 8.27098 13.0625 7.93749V5.5208C13.0625 5.1873 13.3285 4.91662 13.6562 4.91662C13.984 4.91662 14.25 5.1873 14.25 5.5208V7.3333Z" fill="#272727"/>
<path d="M11.2813 7.33331H7.49193L8.25075 5.79149C8.39681 5.49305 8.27808 5.13056 7.98473 4.98068C7.69021 4.83206 7.33518 4.95168 7.1879 5.25137L6.00041 7.66805C5.90779 7.85412 5.91848 8.07768 6.02652 8.2553C6.13456 8.43292 6.32577 8.54168 6.53123 8.54168H11.2812C11.609 8.54168 11.875 8.27099 11.875 7.93749C11.875 7.60399 11.609 7.33331 11.2813 7.33331Z" fill="#272727"/>
<path d="M14.8438 9.74999H16.0312C16.359 9.74999 16.625 10.0207 16.625 10.3542C16.625 10.6877 16.359 10.9584 16.0312 10.9584H14.8438C14.516 10.9584 14.25 10.6877 14.25 10.3542C14.25 10.0207 14.516 9.74999 14.8438 9.74999Z" fill="#272727"/>
<path fill-rule="evenodd" clip-rule="evenodd" d="M23.9329 7.3333H24.9375C27.252 7.3333 28.5 9.51193 28.5 11.5625C28.5 13.0947 27.4892 14.292 26.0742 14.5371C25.816 15.9368 24.6053 17 23.1562 17C21.7232 17 20.5232 15.9601 20.2472 14.5833H8.77096C8.49497 15.9601 7.29503 17 5.86193 17C4.42882 17 3.22887 15.9601 2.9529 14.5832C1.32379 14.5745 0 13.2222 0 11.5625V9.1458C0 7.48074 1.33238 6.12499 2.96873 6.12499C3.51262 6.12499 4.0185 5.84949 4.32131 5.38912L5.33189 3.84487C5.88408 3.00268 6.80677 2.5 7.80188 2.5H16.3851C17.0561 2.5 17.7151 2.73562 18.24 3.16213L22.9187 6.97081C23.2061 7.20524 23.5659 7.3333 23.9329 7.3333ZM21.3751 13.9792L21.375 13.9868C21.379 14.9826 22.1766 15.7917 23.1562 15.7917C24.1383 15.7917 24.9375 14.9784 24.9375 13.9792C24.9375 12.9799 24.1383 12.1667 23.1562 12.1667C22.1767 12.1667 21.3791 12.9758 21.375 13.9716L21.3751 13.9792ZM8.77095 13.375H20.2472C20.5232 11.9982 21.7231 10.9583 23.1562 10.9583C24.5641 10.9583 25.7469 11.9619 26.0498 13.3026C26.7356 13.1072 27.3125 12.5177 27.3125 11.5624C27.3125 10.348 26.6796 8.54156 24.9375 8.54156H23.934C23.2975 8.54156 22.6729 8.31806 22.1777 7.91325L17.499 4.10582C17.1831 3.84963 16.7888 3.70826 16.3851 3.70826H7.80188C7.20577 3.70826 6.65119 4.01038 6.31987 4.51544L5.30929 6.0585C4.78561 6.85724 3.91162 7.3333 2.96873 7.3333C1.98665 7.3333 1.18748 8.14649 1.18748 9.1458V11.5625C1.18748 12.5564 1.97809 13.3662 2.95292 13.3749C3.22894 11.9981 4.42886 10.9583 5.86193 10.9583C7.29501 10.9583 8.49494 11.9982 8.77095 13.375ZM5.86193 15.7917C4.87985 15.7917 4.08068 14.9785 4.08068 13.9792C4.08068 12.9799 4.87985 12.1667 5.86193 12.1667C6.84401 12.1667 7.64318 12.9799 7.64318 13.9792C7.64318 14.9784 6.84401 15.7917 5.86193 15.7917Z" fill="#272727"/>
</svg>
