<svg width="42" height="26" viewBox="0 0 42 26" fill="none" xmlns="http://www.w3.org/2000/svg">
<path d="M9.71538 13.3533C9.7138 13.3525 9.71221 13.3516 9.71063 13.3508C9.64665 13.3175 9.58185 13.2856 9.51627 13.2551C9.56306 13.1977 9.60808 13.139 9.6513 13.0792C9.67243 13.05 9.69313 13.0205 9.7134 12.9908" fill="#272727"/>
<path fill-rule="evenodd" clip-rule="evenodd" d="M11.3584 18.4167H1.60843C1.50885 18.4167 1.4101 18.3972 1.31808 18.3591C1.22606 18.321 1.14246 18.2651 1.07204 18.1947C1.00162 18.1243 0.945774 18.0407 0.907691 17.9487C0.869637 17.8567 0.850067 17.7582 0.850098 17.6587C0.852577 16.7741 1.10708 15.9086 1.58378 15.1636C2.06053 14.4184 2.73978 13.8245 3.54194 13.4516L3.79442 13.3342L3.6186 13.1183C3.09261 12.4724 2.80375 11.6658 2.8001 10.8328C2.80023 9.85614 3.18828 8.91946 3.87892 8.22882C4.56968 7.53806 5.50655 7.14999 6.48343 7.14999C7.46031 7.14999 8.39718 7.53806 9.08794 8.22882C9.77857 8.91945 10.1666 9.85611 10.1668 10.8328C10.1631 11.6658 9.87426 12.4724 9.34826 13.1183L9.17245 13.3342L9.42492 13.4516C10.2271 13.8245 10.9063 14.4184 11.3831 15.1636C11.8598 15.9086 12.1143 16.7741 12.1168 17.6587C12.1168 17.7582 12.0972 17.8567 12.0592 17.9487C12.0211 18.0407 11.9652 18.1243 11.8948 18.1947C11.8244 18.2651 11.7408 18.321 11.6488 18.3591C11.5568 18.3971 11.458 18.4167 11.3584 18.4167ZM7.68717 9.03181C7.33086 8.79373 6.91196 8.66666 6.48343 8.66666C5.9091 8.66741 5.35822 8.89589 4.95211 9.302C4.54599 9.70812 4.31751 10.259 4.31676 10.8333C4.31676 11.2619 4.44384 11.6808 4.68191 12.0371C4.91999 12.3934 5.25838 12.6711 5.65428 12.8351C6.05019 12.9991 6.48583 13.042 6.90613 12.9584C7.32642 12.8748 7.71248 12.6684 8.0155 12.3654C8.31851 12.0624 8.52486 11.6763 8.60847 11.256C8.69207 10.8357 8.64916 10.4001 8.48517 10.0042C8.32118 9.60827 8.04347 9.26989 7.68717 9.03181ZM9.27185 15.0941C8.74151 14.7192 8.10818 14.5175 7.4587 14.5167H5.50816C4.85868 14.5175 4.22535 14.7192 3.69501 15.0941C3.16467 15.469 2.76328 15.9988 2.54589 16.6108L2.44317 16.9H10.5237L10.421 16.6108C10.2036 15.9988 9.80219 15.469 9.27185 15.0941Z" fill="#272727"/>
<path d="M38.7487 13.3533C38.7471 13.3525 38.7455 13.3516 38.744 13.3508C38.68 13.3175 38.6152 13.2856 38.5496 13.2551C38.5964 13.1977 38.6414 13.139 38.6846 13.0792C38.7058 13.05 38.7265 13.0205 38.7467 12.9908" fill="#272727"/>
<path fill-rule="evenodd" clip-rule="evenodd" d="M40.3918 18.4167H30.6418C30.5422 18.4167 30.4434 18.3972 30.3514 18.3591C30.2594 18.321 30.1758 18.2651 30.1054 18.1947C30.035 18.1243 29.9791 18.0407 29.941 17.9487C29.903 17.8567 29.8834 17.7582 29.8834 17.6587C29.8859 16.7741 30.1404 15.9086 30.6171 15.1636C31.0939 14.4184 31.7731 13.8245 32.5753 13.4516L32.8278 13.3342L32.6519 13.1183C32.126 12.4724 31.8371 11.6658 31.8334 10.8329C31.8335 9.85616 32.2216 8.91947 32.9123 8.22882C33.603 7.53806 34.5399 7.14999 35.5168 7.14999C36.4936 7.14999 37.4305 7.53806 38.1213 8.22882C38.8119 8.91945 39.2 9.85611 39.2001 10.8328C39.1965 11.6658 38.9076 12.4724 38.3816 13.1183L38.2058 13.3342L38.4583 13.4516C39.2604 13.8245 39.9397 14.4184 40.4164 15.1636C40.8931 15.9086 41.1476 16.7741 41.1501 17.6587C41.1501 17.7582 41.1306 17.8567 41.0925 17.9487C41.0544 18.0407 40.9986 18.1243 40.9282 18.1947C40.8577 18.2651 40.7741 18.321 40.6821 18.3591C40.5901 18.3971 40.4913 18.4167 40.3918 18.4167ZM36.7205 9.03181C36.3642 8.79373 35.9453 8.66666 35.5168 8.66666C34.9424 8.66741 34.3916 8.89589 33.9854 9.302C33.5793 9.70812 33.3508 10.259 33.3501 10.8333C33.3501 11.2619 33.4772 11.6808 33.7152 12.0371C33.9533 12.3934 34.2917 12.6711 34.6876 12.8351C35.0835 12.9991 35.5192 13.042 35.9395 12.9584C36.3598 12.8748 36.7458 12.6684 37.0488 12.3654C37.3518 12.0624 37.5582 11.6763 37.6418 11.256C37.7254 10.8357 37.6825 10.4001 37.5185 10.0042C37.3545 9.60827 37.0768 9.26989 36.7205 9.03181ZM38.3052 15.0941C37.7748 14.7192 37.1415 14.5175 36.492 14.5167H34.5415C33.892 14.5175 33.2587 14.7192 32.7283 15.0941C32.198 15.469 31.7966 15.9988 31.5792 16.6108L31.4765 16.9H39.557L39.4543 16.6108C39.2369 15.9988 38.8355 15.469 38.3052 15.0941Z" fill="#272727"/>
<path fill-rule="evenodd" clip-rule="evenodd" d="M17.1001 11.8083C17.1001 11.3297 16.7121 10.9417 16.2334 10.9417C15.7548 10.9417 15.3668 11.3297 15.3668 11.8083V15.1667C15.3668 15.6453 15.7548 16.0333 16.2334 16.0333C16.7121 16.0333 17.1001 15.6453 17.1001 15.1667V14.3H24.9001V15.1667C24.9001 15.6453 25.2881 16.0333 25.7668 16.0333C26.2454 16.0333 26.6334 15.6453 26.6334 15.1667V11.8083C26.6334 11.3297 26.2454 10.9417 25.7668 10.9417C25.2881 10.9417 24.9001 11.3297 24.9001 11.8083V12.5667H17.1001V11.8083Z" fill="#272727"/>
</svg>
