<svg width="30" height="30" viewBox="0 0 30 30" fill="none" xmlns="http://www.w3.org/2000/svg">
<path d="M4.27424 20.1091C5.17556 20.1091 6.02842 19.7571 6.67232 19.1574V24.9682C4.6675 25.2354 2.76331 25.5954 1.01546 26.0554C0.825162 26.1055 0.711746 26.3003 0.761844 26.4906C0.811941 26.6813 1.00711 26.795 1.19707 26.7446C2.8894 26.2991 4.73203 25.9488 6.67232 25.6867V28.8937C6.67232 29.0905 6.83165 29.25 7.02857 29.25C7.22548 29.25 7.38482 29.0905 7.38482 28.8937V25.5926C9.79931 25.2987 12.3597 25.1439 15 25.1439C17.6403 25.1439 20.2007 25.2987 22.6152 25.5926V28.8937C22.6152 29.0905 22.7745 29.25 22.9714 29.25C23.1683 29.25 23.3277 29.0905 23.3277 28.8937V25.6867C25.268 25.9488 27.1106 26.2991 28.8029 26.7446C28.8335 26.7526 28.8638 26.7564 28.8941 26.7564C29.052 26.7562 29.1961 26.6505 29.2382 26.4906C29.2883 26.3003 29.1748 26.1055 28.9845 26.0554C27.2367 25.5954 25.3325 25.2354 23.3277 24.9682V19.1574C23.9716 19.7571 24.8244 20.1091 25.7258 20.1091C27.6691 20.1091 29.25 18.5281 29.25 16.5849C29.25 15.7859 28.9814 15.0214 28.4881 14.3999C28.9814 13.7785 29.25 13.0142 29.25 12.2151C29.25 11.4159 28.9814 10.6514 28.4881 10.0301C28.9814 9.40854 29.25 8.64403 29.25 7.84508C29.25 6.18142 28.0866 4.76007 26.4925 4.40695C26.4946 4.3619 26.4957 4.31789 26.4957 4.27423C26.4957 2.33103 24.9148 0.75 22.9714 0.75C21.0281 0.75 19.4472 2.33103 19.4472 4.27423C19.4472 4.31789 19.4482 4.3619 19.4503 4.40695C17.8563 4.76007 16.6929 6.18142 16.6929 7.84508C16.6929 8.64386 16.9615 9.40837 17.4548 10.0301C16.9615 10.6516 16.6929 11.4161 16.6929 12.2151C16.6929 13.0138 16.9615 13.7783 17.4548 14.3999C16.9615 15.0216 16.6929 15.7861 16.6929 16.5849C16.6929 18.5281 18.2737 20.1091 20.2171 20.1091C21.1186 20.1091 21.9715 19.7572 22.6152 19.1575V24.874C20.1971 24.5835 17.6368 24.4314 15 24.4314C12.3632 24.4314 9.80285 24.5835 7.38482 24.874V19.1575C8.02852 19.7572 8.88135 20.1091 9.78289 20.1091C11.7263 20.1091 13.3071 18.5281 13.3071 16.5849C13.3071 15.7861 13.0385 15.0216 12.5452 14.3999C13.0385 13.7783 13.3071 13.0138 13.3071 12.2151C13.3071 11.4161 13.0385 10.6516 12.5452 10.0301C13.0385 9.40837 13.3071 8.64386 13.3071 7.84508C13.3071 6.18142 12.1437 4.76007 10.5497 4.40695C10.5517 4.3619 10.5528 4.31789 10.5528 4.27423C10.5528 2.33103 8.97194 0.75 7.02857 0.75C5.0852 0.75 3.50434 2.33103 3.50434 4.27423C3.50434 4.31789 3.50538 4.3619 3.50747 4.40695C1.91339 4.76007 0.750015 6.18142 0.750015 7.84508C0.750015 8.64403 1.01859 9.40854 1.51192 10.0301C1.01859 10.6514 0.750015 11.4159 0.750015 12.2151C0.750015 13.0142 1.01859 13.7785 1.51192 14.3999C1.01859 15.0214 0.750015 15.7859 0.750015 16.5849C0.750015 18.5281 2.33087 20.1091 4.27424 20.1091ZM20.2171 19.3966C18.6669 19.3966 17.4054 18.1353 17.4054 16.5849C17.4054 15.8612 17.6823 15.1726 18.1847 14.6458C18.3158 14.5081 18.3158 14.2915 18.1847 14.1539C17.682 13.6272 17.4054 12.9387 17.4054 12.2151C17.4054 11.4913 17.682 10.8028 18.1847 10.276C18.3158 10.1384 18.3158 9.92187 18.1847 9.7841C17.6823 9.25738 17.4054 8.56871 17.4054 7.84508C17.4054 6.42443 18.4686 5.22539 19.8783 5.05579C19.9732 5.04448 20.0595 4.99543 20.1176 4.91993C20.1761 4.84444 20.2018 4.74859 20.1889 4.65396C20.1691 4.50854 20.1597 4.38799 20.1597 4.27423C20.1597 2.72381 21.4212 1.4625 22.9714 1.4625C24.5217 1.4625 25.7832 2.72381 25.7832 4.27423C25.7832 4.38799 25.7738 4.50854 25.7539 4.65396C25.7411 4.74859 25.7668 4.84444 25.8253 4.91993C25.8834 4.99543 25.9696 5.04448 26.0646 5.05579C27.4743 5.22539 28.5375 6.42443 28.5375 7.84508C28.5375 8.56906 28.2609 9.25756 27.7582 9.7841C27.627 9.9217 27.627 10.1384 27.7582 10.276C28.2609 10.8024 28.5375 11.4909 28.5375 12.2151C28.5375 12.939 28.2609 13.6275 27.7582 14.1539C27.627 14.2915 27.627 14.5082 27.7582 14.6458C28.2609 15.1724 28.5375 15.8609 28.5375 16.5849C28.5375 18.1353 27.276 19.3966 25.7258 19.3966C24.7462 19.3966 23.8374 18.8775 23.3277 18.0408V11.6429C23.3277 11.4462 23.1683 11.2867 22.9714 11.2867C22.7745 11.2867 22.6152 11.4462 22.6152 11.6429V18.041C22.1057 18.8775 21.197 19.3966 20.2171 19.3966ZM2.24181 14.1539C1.7391 13.6275 1.46251 12.939 1.46251 12.2151C1.46251 11.4909 1.7391 10.8024 2.24181 10.276C2.37297 10.1384 2.37297 9.9217 2.24181 9.7841C1.7391 9.25756 1.46251 8.56906 1.46251 7.84508C1.46251 6.42443 2.5257 5.22539 3.93539 5.05579C4.03036 5.04448 4.11664 4.99543 4.17474 4.91993C4.23319 4.84444 4.25893 4.74859 4.24606 4.65396C4.22623 4.50854 4.21684 4.38799 4.21684 4.27423C4.21684 2.72381 5.47832 1.4625 7.02857 1.4625C8.57881 1.4625 9.84029 2.72381 9.84029 4.27423C9.84029 4.38799 9.8309 4.50854 9.81107 4.65396C9.7982 4.74859 9.82394 4.84444 9.88239 4.91993C9.94049 4.99543 10.0268 5.04448 10.1217 5.05579C11.5314 5.22539 12.5946 6.42443 12.5946 7.84508C12.5946 8.56871 12.3177 9.25738 11.8153 9.7841C11.6842 9.92187 11.6842 10.1384 11.8153 10.276C12.318 10.8028 12.5946 11.4913 12.5946 12.2151C12.5946 12.9387 12.318 13.6272 11.8153 14.1539C11.6842 14.2915 11.6842 14.5081 11.8153 14.6458C12.3177 15.1726 12.5946 15.8612 12.5946 16.5849C12.5946 18.1353 11.3331 19.3966 9.78289 19.3966C8.80303 19.3966 7.89427 18.8775 7.38482 18.041V11.6429C7.38482 11.4462 7.22548 11.2867 7.02857 11.2867C6.83165 11.2867 6.67232 11.4462 6.67232 11.6429V18.0408C6.16256 18.8775 5.25378 19.3966 4.27424 19.3966C2.724 19.3966 1.46251 18.1353 1.46251 16.5849C1.46251 15.8609 1.7391 15.1724 2.24181 14.6458C2.37297 14.5082 2.37297 14.2915 2.24181 14.1539Z" fill="#272727" stroke="#272727"/>
</svg>
