<svg width="20" height="20" viewBox="0 0 20 20" fill="none" xmlns="http://www.w3.org/2000/svg">
<path d="M17.1596 17.1594C19.2511 15.0678 19.2511 11.6574 17.1596 9.56586C15.2271 7.63337 12.1723 7.47897 10.0519 9.13229C8.82238 7.51882 8.95391 5.18896 10.4342 3.70869C11.8953 2.24754 14.202 2.09812 15.8292 3.30272L13.3058 5.82607C13.0685 6.06345 13.0685 6.45686 13.3058 6.69423C13.5432 6.93161 13.9366 6.93161 14.174 6.69423L17.1596 3.70869C17.3969 3.47131 17.3969 3.0779 17.1596 2.84052C15.068 0.74896 11.6576 0.748961 9.56602 2.84052C7.63352 4.77301 7.47912 7.82778 9.13245 9.94812C7.51897 11.1777 5.1891 11.0461 3.70882 9.56586C2.24766 8.10471 2.09825 5.79803 3.30285 4.17089L5.82621 6.69423C6.06359 6.93161 6.457 6.93161 6.69438 6.69423C6.93176 6.45686 6.93176 6.06344 6.69438 5.82607L3.70882 2.84052C3.47144 2.60314 3.07803 2.60314 2.84065 2.84052C0.74908 4.93208 0.749081 8.34247 2.84065 10.434C4.77314 12.3665 7.82793 12.5209 9.94829 10.8676C11.1778 12.4811 11.0463 14.8109 9.56602 16.2912C8.10486 17.7524 5.79817 17.9018 4.17102 16.6972L6.69438 14.1738C6.93176 13.9364 6.93176 13.543 6.69438 13.3057C6.457 13.0683 6.06359 13.0683 5.82621 13.3057L2.84065 16.2912C2.60327 16.5286 2.60327 16.922 2.84065 17.1594C4.93222 19.2509 8.34262 19.2509 10.4342 17.1594C12.3667 15.2269 12.5211 12.1721 10.8678 10.0518C12.4812 8.82223 14.8111 8.95375 16.2914 10.434C17.7525 11.8952 17.902 14.2019 16.6974 15.829L14.174 13.3057C13.9366 13.0683 13.5432 13.0683 13.3058 13.3057C13.0685 13.543 13.0685 13.9364 13.3058 14.1738L16.2914 17.1594C16.5288 17.3967 16.9222 17.3967 17.1596 17.1594Z" fill="#272727"/>
</svg>
