<svg width="32" height="20" viewBox="0 0 32 20" fill="none" xmlns="http://www.w3.org/2000/svg">
<path d="M7.31945 10.2718C7.31823 10.2711 7.31701 10.2705 7.31579 10.2699C7.26658 10.2443 7.21673 10.2197 7.16628 10.1963C7.20228 10.1521 7.23691 10.1069 7.27015 10.061C7.28641 10.0385 7.30233 10.0158 7.31792 9.9929" fill="#272727"/>
<path fill-rule="evenodd" clip-rule="evenodd" d="M8.58333 14.1667H1.08333C1.00673 14.1667 0.930768 14.1517 0.859983 14.1224C0.789205 14.0931 0.72489 14.0501 0.670722 13.9959C0.616557 13.9418 0.573597 13.8775 0.544302 13.8067C0.51503 13.7359 0.499977 13.6601 0.5 13.5836C0.501907 12.9032 0.697676 12.2374 1.06437 11.6643C1.43111 11.0911 1.95361 10.6343 2.57065 10.3474L2.76486 10.2571L2.62962 10.091C2.22501 9.59416 2.00281 8.97371 2 8.33296C2.0001 7.58165 2.2986 6.86113 2.82986 6.32987C3.36122 5.79851 4.08189 5.5 4.83333 5.5C5.58478 5.5 6.30545 5.79851 6.8368 6.32987C7.36806 6.86112 7.66656 7.58163 7.66667 8.33292C7.66387 8.97368 7.44166 9.59415 7.03705 10.091L6.90181 10.2571L7.09602 10.3474C7.71306 10.6343 8.23556 11.0911 8.60229 11.6643C8.96899 12.2374 9.16476 12.9032 9.16667 13.5836C9.16669 13.6601 9.15164 13.7359 9.12236 13.8067C9.09307 13.8775 9.05011 13.9418 8.99595 13.9959C8.94178 14.0501 8.87746 14.0931 8.80668 14.1224C8.7359 14.1517 8.65993 14.1667 8.58333 14.1667ZM5.75928 6.94755C5.4852 6.76442 5.16297 6.66667 4.83333 6.66667C4.39154 6.66724 3.96779 6.84299 3.65539 7.15539C3.343 7.46779 3.16724 7.89154 3.16667 8.33333C3.16667 8.66297 3.26441 8.9852 3.44755 9.25928C3.63069 9.53337 3.89098 9.74699 4.19553 9.87313C4.50007 9.99928 4.83518 10.0323 5.15848 9.96798C5.48179 9.90367 5.77876 9.74493 6.01184 9.51184C6.24493 9.27876 6.40367 8.98179 6.46798 8.65848C6.53228 8.33518 6.49928 8.00007 6.37313 7.69553C6.24699 7.39098 6.03337 7.13069 5.75928 6.94755ZM6.97827 11.6108C6.57032 11.3224 6.08314 11.1673 5.58354 11.1667H4.08313C3.58352 11.1673 3.09635 11.3224 2.68839 11.6108C2.28044 11.8992 1.97168 12.3068 1.80446 12.7775L1.72544 13H7.94123L7.86221 12.7775C7.69498 12.3068 7.38623 11.8992 6.97827 11.6108Z" fill="#272727"/>
<path d="M29.6528 10.2718C29.6516 10.2711 29.6503 10.2705 29.6491 10.2699C29.5999 10.2443 29.5501 10.2197 29.4996 10.1963C29.5356 10.1521 29.5702 10.1069 29.6035 10.061C29.6197 10.0385 29.6357 10.0158 29.6513 9.9929" fill="#272727"/>
<path fill-rule="evenodd" clip-rule="evenodd" d="M30.9167 14.1667H23.4167C23.3401 14.1667 23.2641 14.1517 23.1933 14.1224C23.1225 14.0931 23.0582 14.0501 23.0041 13.9959C22.9499 13.9418 22.9069 13.8775 22.8776 13.8067C22.8484 13.7359 22.8333 13.6601 22.8333 13.5836C22.8352 12.9032 23.031 12.2374 23.3977 11.6643C23.7644 11.0911 24.2869 10.6343 24.904 10.3474L25.0982 10.2571L24.963 10.091C24.5584 9.59417 24.3361 8.97373 24.3333 8.33299C24.3334 7.58167 24.6319 6.86114 25.1632 6.32987C25.6946 5.79851 26.4152 5.5 27.1667 5.5C27.9181 5.5 28.6388 5.79851 29.1701 6.32987C29.7014 6.86112 29.9999 7.58163 30 8.33292C29.9972 8.97368 29.775 9.59415 29.3704 10.091L29.2351 10.2571L29.4294 10.3474C30.0464 10.6343 30.5689 11.0911 30.9356 11.6643C31.3023 12.2374 31.4981 12.9032 31.5 13.5836C31.5 13.6601 31.485 13.7359 31.4557 13.8067C31.4264 13.8775 31.3834 13.9418 31.3293 13.9959C31.2751 14.0501 31.2108 14.0931 31.14 14.1224C31.0692 14.1517 30.9933 14.1667 30.9167 14.1667ZM28.0926 6.94755C27.8185 6.76442 27.4963 6.66667 27.1667 6.66667C26.7249 6.66724 26.3011 6.84299 25.9887 7.15539C25.6763 7.46779 25.5006 7.89154 25.5 8.33333C25.5 8.66297 25.5977 8.9852 25.7809 9.25928C25.964 9.53337 26.2243 9.74699 26.5289 9.87313C26.8334 9.99928 27.1685 10.0323 27.4918 9.96798C27.8151 9.90367 28.1121 9.74493 28.3452 9.51184C28.5783 9.27876 28.737 8.98179 28.8013 8.65848C28.8656 8.33518 28.8326 8.00007 28.7065 7.69553C28.5803 7.39098 28.3667 7.13069 28.0926 6.94755ZM29.3116 11.6108C28.9037 11.3224 28.4165 11.1673 27.9169 11.1667H26.4165C25.9169 11.1673 25.4297 11.3224 25.0217 11.6108C24.6138 11.8992 24.305 12.3068 24.1378 12.7775L24.0588 13H30.2746L30.1955 12.7775C30.0283 12.3068 29.7196 11.8992 29.3116 11.6108Z" fill="#272727"/>
<path fill-rule="evenodd" clip-rule="evenodd" d="M13 9.08333C13 8.71514 12.7015 8.41667 12.3333 8.41667C11.9651 8.41667 11.6667 8.71514 11.6667 9.08333V11.6667C11.6667 12.0349 11.9651 12.3333 12.3333 12.3333C12.7015 12.3333 13 12.0349 13 11.6667V11H19V11.6667C19 12.0349 19.2985 12.3333 19.6667 12.3333C20.0349 12.3333 20.3333 12.0349 20.3333 11.6667V9.08333C20.3333 8.71514 20.0349 8.41667 19.6667 8.41667C19.2985 8.41667 19 8.71514 19 9.08333V9.66667H13V9.08333Z" fill="#272727"/>
</svg>
