<svg width="24" height="20" viewBox="0 0 24 20" fill="none" xmlns="http://www.w3.org/2000/svg">
<path d="M5.23311 1.7116C4.95101 1.42951 4.49366 1.42951 4.21157 1.7116C3.92948 1.99369 3.92948 2.45105 4.21157 2.73314L19.2669 17.7885C19.549 18.0706 20.0064 18.0706 20.2884 17.7885C20.5705 17.5064 20.5705 17.049 20.2884 16.7669L5.23311 1.7116Z" fill="#272727"/>
<path fill-rule="evenodd" clip-rule="evenodd" d="M3.87613 6.3771C3.89227 5.82478 4.08049 5.30871 4.39414 4.88734L5.29639 5.78959C5.19974 5.96436 5.14039 6.1615 5.12761 6.36941L5.125 6.45639V13.5455C5.125 14.1873 5.56899 14.7438 6.19476 14.8862C7.61688 15.21 9.55265 15.375 12 15.375C13.0212 15.375 13.9532 15.3463 14.7961 15.2893L15.9514 16.4446C14.8074 16.5653 13.4904 16.625 12 16.625C9.47576 16.625 7.44893 16.4538 5.91727 16.105C4.76113 15.8418 3.93005 14.8385 3.87763 13.6635L3.87751 13.6607L3.8767 13.623C1.93175 13.558 0.375 11.9608 0.375 10C0.375 8.03967 1.93105 6.44281 3.87546 6.37712L3.87613 6.3771ZM3.875 7.62825C2.62148 7.6932 1.625 8.73027 1.625 10C1.625 11.2698 2.62148 12.3068 3.875 12.3718V7.62825Z" fill="#272727"/>
<path d="M7.4964 9.37502H8.88183L10.1318 10.625H7.5C7.15483 10.625 6.875 10.3452 6.875 10C6.875 9.67941 7.1163 9.41534 7.42727 9.37922L7.43087 9.3788L7.4964 9.37502Z" fill="#272727"/>
<path d="M8.4964 11.875H11.3818L12.6318 13.125H8.5C8.15483 13.125 7.875 12.8452 7.875 12.5C7.875 12.1794 8.1163 11.9153 8.42727 11.8792L8.43087 11.8788L8.4964 11.875Z" fill="#272727"/>
<path d="M13.6182 8.12502L12.3682 6.87502H15.5C15.8452 6.87502 16.125 7.15484 16.125 7.50002C16.125 7.82063 15.8837 8.0847 15.5727 8.12082L15.5691 8.12124L15.5036 8.12502H13.6182Z" fill="#272727"/>
<path d="M16.1182 10.625L14.8682 9.37502H16.5C16.8452 9.37502 17.125 9.65484 17.125 10C17.125 10.3206 16.8837 10.5847 16.5727 10.6208L16.5691 10.6212L16.5036 10.625H16.1182Z" fill="#272727"/>
<path fill-rule="evenodd" clip-rule="evenodd" d="M18.875 13.3819V6.45451C18.875 5.81272 18.431 5.25629 17.8052 5.11382C16.4426 4.80356 14.6081 4.63905 12.3035 4.62588H11.6966C11.1562 4.62897 10.6418 4.64037 10.1532 4.66003L8.96736 3.47423C9.79577 3.41422 10.7022 3.38158 11.6869 3.37591L12 3.37502C14.5243 3.37502 16.5511 3.54628 18.0827 3.895C19.2389 4.15823 20.07 5.16156 20.1224 6.33652L20.1225 6.3393L20.1233 6.37708C22.0683 6.44209 23.625 8.03925 23.625 10C23.625 11.9604 22.069 13.5572 20.1246 13.6229L20.1239 13.6229C20.1153 13.9171 20.0579 14.2009 19.9588 14.4656L18.875 13.3819ZM20.125 7.62825C21.3785 7.6932 22.375 8.73027 22.375 10C22.375 11.2698 21.3785 12.3068 20.125 12.3718V7.62825Z" fill="#272727"/>
</svg>
