<svg width="30" height="30" viewBox="0 0 30 30" fill="none" xmlns="http://www.w3.org/2000/svg">
<path fill-rule="evenodd" clip-rule="evenodd" d="M11.9916 1.3125C6.27141 1.3125 1.78417 5.12051 1.34866 10.4085C1.16947 12.5012 1.65941 14.5968 2.74787 16.3932L2.74917 16.3953C3.59424 17.7497 4.08672 19.2941 4.18167 20.8877C4.27652 22.4799 3.97157 24.0704 3.2946 25.5145C3.23909 25.6201 3.20516 25.7356 3.19478 25.8545C3.18427 25.975 3.19822 26.0964 3.23579 26.2114C3.27337 26.3264 3.3338 26.4327 3.41346 26.5238C3.49312 26.6148 3.59036 26.6889 3.69935 26.7414C3.80833 26.794 3.92682 26.824 4.04768 26.8296C4.16854 26.8352 4.2893 26.8163 4.40269 26.7741C4.51609 26.7319 4.61979 26.6672 4.70756 26.584C4.79458 26.5014 4.86417 26.4022 4.91223 26.2923C5.71826 24.5795 6.08316 22.6923 5.97368 20.8024C5.86417 18.912 5.2835 17.0791 4.28455 15.4705C3.39134 13.9946 2.99067 12.2728 3.14051 10.5542L3.14059 10.5532C3.49238 6.24581 7.19659 3.10855 11.9973 3.10855H12.1053C14.249 3.10855 15.8858 3.55235 17.0565 4.42829C18.2233 5.30121 18.9515 6.62155 19.2442 8.42699C19.2937 8.74898 19.3243 9.07359 19.3358 9.39916L19.3359 9.40159C19.3798 10.3098 19.6618 11.1906 20.1534 11.9555C20.6451 12.7204 21.3291 13.3428 22.1371 13.76L22.1458 13.7639C22.2328 13.8034 22.3134 13.8558 22.3847 13.9192C22.3913 13.936 22.394 13.9541 22.3926 13.9723C22.3907 13.9955 22.3821 14.0177 22.3678 14.0361C22.0565 14.3513 21.6615 14.5709 21.2294 14.6692L21.2218 14.6713C21.0253 14.7249 20.8528 14.8437 20.7327 15.0082C20.6126 15.1726 20.552 15.3731 20.5608 15.5765L20.5609 15.5775L20.6327 17.0518C20.0447 17.1682 19.445 17.2161 18.8457 17.1943C18.6139 17.1847 18.3832 17.231 18.173 17.3292C17.9629 17.4275 17.7795 17.5748 17.6383 17.7587C17.4932 17.9464 17.3955 18.1664 17.3536 18.3999C17.3117 18.6334 17.3267 18.8734 17.3973 19.0998C17.6073 19.7772 18.2261 20.9072 19.9885 21.3675C19.8819 21.8178 19.8606 22.2843 19.9259 22.7427L19.927 22.7509L19.9289 22.759C19.9374 22.7952 19.9481 22.8309 19.9609 22.8658C20.0054 22.9888 20.0225 23.12 20.0111 23.2502C19.9997 23.3806 19.9601 23.507 19.8949 23.6205L19.8942 23.6218C19.8311 23.7338 19.7441 23.8304 19.6393 23.9048C19.5346 23.9792 19.4143 24.0296 19.2879 24.0524C18.2417 24.2426 17.1745 24.2896 16.1156 24.1922L16.1121 24.1919C15.0649 24.1153 14.045 23.8225 13.1166 23.332L13.1118 23.3297C12.5388 23.0475 12.0433 22.6297 11.6685 22.1125C11.6045 22.0154 11.5223 21.9317 11.4263 21.8659C11.329 21.7993 11.2195 21.7524 11.1041 21.7281C10.9887 21.7037 10.8697 21.7024 10.7537 21.724C10.6378 21.7457 10.5272 21.79 10.4284 21.8544C10.3296 21.9188 10.2444 22.002 10.1778 22.0993C10.1111 22.1966 10.0643 22.3061 10.0399 22.4215C10.0156 22.5369 10.0142 22.656 10.0358 22.7719C10.0575 22.8878 10.1017 22.9984 10.1661 23.0973L10.1699 23.1027C10.7081 23.8682 11.4272 24.4887 12.2631 24.9091C12.7331 25.1625 13.2255 25.3718 13.7339 25.5345V27.7895C13.7339 28.0276 13.8285 28.2561 13.9969 28.4245C14.1653 28.5929 14.3938 28.6875 14.6319 28.6875C14.8701 28.6875 15.0985 28.5929 15.2669 28.4245C15.4353 28.2561 15.53 28.0276 15.53 27.7895V25.9336C15.6681 25.9516 15.8077 25.9668 15.9489 25.9783C17.1703 26.0904 18.4017 26.0359 19.6084 25.8167C19.9859 25.7469 20.3441 25.5972 20.659 25.3776C20.9739 25.158 21.2381 24.8736 21.434 24.5435C21.6299 24.2133 21.7529 23.8451 21.7947 23.4635C21.8356 23.0905 21.7981 22.7131 21.6846 22.3557C21.6758 22.1486 21.6937 21.9413 21.7379 21.7388L21.8248 21.3908L21.8251 21.3899C21.8727 21.2066 21.8824 21.0155 21.8537 20.8284C21.8249 20.6409 21.7581 20.4612 21.6574 20.3004L21.6555 20.2975C21.5519 20.1388 21.4164 20.0032 21.2577 19.8995C21.0993 19.796 20.9212 19.7264 20.7345 19.6951C20.0662 19.5767 19.6027 19.3307 19.3331 18.9973C20.1861 18.9782 21.0328 18.8412 21.8492 18.5898L21.8546 18.588C22.0391 18.525 22.1982 18.4037 22.3077 18.2423C22.4173 18.081 22.4713 17.8883 22.4616 17.6936L22.3858 16.1564C22.8877 15.9464 23.339 15.6303 23.7083 15.2293L23.7095 15.228C23.9845 14.9237 24.1531 14.5382 24.1901 14.1297C24.2271 13.7212 24.1306 13.3117 23.9147 12.9629L23.9096 12.9555C23.6759 12.6152 23.354 12.345 22.9784 12.1738C22.4465 11.9006 21.9958 11.4922 21.6717 10.9897C21.3469 10.4862 21.1606 9.90594 21.1316 9.30744C21.116 8.91984 21.0783 8.53343 21.0187 8.15012L21.0185 8.14896C20.7674 6.59889 20.1543 4.88595 18.7861 3.56016C17.4146 2.23113 15.3063 1.3125 12.1081 1.3125H11.9916Z" fill="#272727"/>
<path d="M26.8265 15.6203C26.7097 15.6036 26.5909 15.6101 26.4766 15.6393C26.3624 15.6686 26.255 15.7201 26.1607 15.7908C26.0663 15.8616 25.9868 15.9502 25.9268 16.0517C25.8667 16.1532 25.8272 16.2655 25.8105 16.3823C25.7938 16.499 25.8003 16.6179 25.8296 16.7321C25.8588 16.8464 25.9103 16.9537 25.9811 17.0481L25.9819 17.0491C26.347 17.5289 26.614 18.0759 26.7677 18.6588C26.9214 19.2418 26.9587 19.8493 26.8776 20.4467C26.7965 21.0441 26.5984 21.6197 26.2948 22.1406C25.9912 22.6614 25.5879 23.1174 25.1081 23.4823L24.9679 23.589L24.9828 23.6114C24.9445 23.6545 24.9104 23.7012 24.8809 23.751C24.8208 23.8525 24.7813 23.9648 24.7646 24.0815C24.7479 24.1983 24.7544 24.3172 24.7837 24.4314C24.8129 24.5456 24.8644 24.653 24.9352 24.7473C25.0059 24.8417 25.0946 24.9212 25.1961 24.9812C25.2975 25.0413 25.4098 25.0808 25.5266 25.0975C25.6433 25.1142 25.7622 25.1077 25.8765 25.0784C25.9907 25.0492 26.0981 24.9977 26.1924 24.9269L26.1932 24.9264C26.8623 24.4191 27.4249 23.7849 27.8487 23.06C28.2724 22.335 28.5491 21.5337 28.6628 20.7017C28.7765 19.8697 28.725 19.0235 28.5112 18.2115C28.2975 17.3997 27.9259 16.638 27.4175 15.9699C27.3468 15.8758 27.2583 15.7965 27.157 15.7365C27.0556 15.6764 26.9432 15.6369 26.8265 15.6203Z" fill="#272727"/>
<path d="M24.3863 17.0924C24.2675 17.0766 24.1467 17.0849 24.031 17.1166C23.9159 17.1481 23.8082 17.2023 23.7143 17.276C23.5256 17.4199 23.4015 17.6328 23.3693 17.8679C23.337 18.1037 23.3996 18.3427 23.5433 18.5324C23.8732 18.9669 24.0173 19.5145 23.944 20.055C23.8708 20.5954 23.5864 21.0847 23.1531 21.4157C23.0591 21.4864 22.9798 21.5749 22.9199 21.6761C22.8598 21.7776 22.8203 21.8899 22.8036 22.0066C22.787 22.1234 22.7934 22.2423 22.8227 22.3565C22.852 22.4707 22.9035 22.5781 22.9742 22.6724C23.045 22.7668 23.1336 22.8463 23.2351 22.9064C23.3366 22.9664 23.4489 23.006 23.5656 23.0226C23.6824 23.0393 23.8013 23.0328 23.9155 23.0036C24.0297 22.9743 24.1374 22.9226 24.2317 22.8518C24.6368 22.5467 24.9778 22.1648 25.2351 21.7277C25.4923 21.2907 25.6609 20.8073 25.7311 20.305C25.8013 19.8028 25.7718 19.2916 25.6442 18.8008C25.5166 18.3102 25.2936 17.8496 24.9879 17.4452C24.9163 17.3494 24.8262 17.2688 24.723 17.2082C24.6196 17.1475 24.5052 17.1081 24.3863 17.0924Z" fill="#272727"/>
</svg>
