<svg width="20" height="20" viewBox="0 0 20 20" fill="none" xmlns="http://www.w3.org/2000/svg">
<path d="M17.2709 16.0003H2.73755C2.37905 16.0045 2.02566 15.9151 1.71231 15.7409C1.39896 15.5667 1.1365 15.3137 0.950881 15.0069C0.775654 14.7207 0.677974 14.3937 0.667454 14.0582C0.656934 13.7227 0.733935 13.3903 0.890881 13.0936L5.09088 5.09361C5.26909 4.75976 5.53554 4.48126 5.86117 4.28846C6.18681 4.09566 6.55914 3.99598 6.93755 4.00028H17.2709C17.5379 3.99586 17.8032 4.0441 18.0516 4.14223C18.3 4.24035 18.5266 4.38645 18.7185 4.57218C18.9104 4.7579 19.0639 4.97961 19.1701 5.22465C19.2763 5.46969 19.3332 5.73325 19.3375 6.00028V14.0003C19.3332 14.2673 19.2763 14.5309 19.1701 14.7759C19.0639 15.0209 18.9104 15.2427 18.7185 15.4284C18.5266 15.6141 18.3 15.7602 18.0516 15.8583C17.8032 15.9565 17.5379 16.0047 17.2709 16.0003ZM6.93755 5.33361C6.80244 5.33069 6.66907 5.36449 6.55166 5.43142C6.43426 5.49834 6.33721 5.59587 6.27088 5.71361L2.07088 13.7136C2.01697 13.8056 1.98856 13.9103 1.98856 14.0169C1.98856 14.1236 2.01697 14.2283 2.07088 14.3203C2.14093 14.4323 2.2397 14.5236 2.35694 14.5845C2.47417 14.6455 2.60559 14.6739 2.73755 14.6669H17.2709C17.3628 14.6714 17.4548 14.6577 17.5414 14.6266C17.6281 14.5955 17.7077 14.5477 17.7758 14.4857C17.844 14.4238 17.8992 14.3491 17.9384 14.2658C17.9776 14.1824 17.9999 14.0922 18.0042 14.0003V6.00028C17.9999 5.90832 17.9776 5.8181 17.9384 5.7348C17.8992 5.6515 17.844 5.57675 17.7758 5.51482C17.7077 5.4529 17.6281 5.40502 17.5414 5.37392C17.4548 5.34283 17.3628 5.32913 17.2709 5.33361H6.93755Z" fill="#272727"/>
<path d="M17.3373 16.0003H4.004C3.89036 15.9999 3.77869 15.9705 3.6796 15.9149C3.58052 15.8592 3.4973 15.7792 3.43785 15.6823C3.3784 15.5855 3.3447 15.475 3.33994 15.3615C3.33518 15.2479 3.35953 15.1351 3.41067 15.0336L5.71067 10.4403C5.87646 10.1082 6.13139 9.82877 6.44693 9.63333C6.76247 9.43788 7.12617 9.3341 7.49734 9.33359H18.6707C18.8475 9.33359 19.0171 9.40383 19.1421 9.52885C19.2671 9.65387 19.3373 9.82344 19.3373 10.0003C19.3373 10.1771 19.2671 10.3466 19.1421 10.4717C19.0171 10.5967 18.8475 10.6669 18.6707 10.6669H7.49734C7.37423 10.6673 7.25362 10.7017 7.14889 10.7665C7.04417 10.8312 6.95941 10.9236 6.90401 11.0336L5.084 14.6669H17.3373C17.5141 14.6669 17.6837 14.7372 17.8087 14.8622C17.9338 14.9872 18.004 15.1568 18.004 15.3336C18.004 15.5104 17.9338 15.68 17.8087 15.805C17.6837 15.93 17.5141 16.0003 17.3373 16.0003Z" fill="#272727"/>
<path fill-rule="evenodd" clip-rule="evenodd" d="M12.6764 13.5718C12.4653 13.6984 12.2016 13.6984 11.9904 13.5718L10.3238 12.5718C10.008 12.3823 9.90567 11.9728 10.0951 11.6571C10.2845 11.3414 10.694 11.239 11.0098 11.4284L12.3334 12.2227L13.6571 11.4284C13.9728 11.239 14.3823 11.3414 14.5718 11.6571C14.7612 11.9728 14.6588 12.3823 14.3431 12.5718L12.6764 13.5718Z" fill="#272727"/>
</svg>
