<svg width="32" height="26" viewBox="0 0 32 26" fill="none" xmlns="http://www.w3.org/2000/svg">
<path d="M20.5502 8.93751H11.4455L11.3603 8.94243L11.3556 8.94297C10.9514 8.98992 10.6377 9.33322 10.6377 9.75001C10.6377 10.1987 11.0015 10.5625 11.4502 10.5625H20.5549L20.6401 10.5576L20.6448 10.5571C21.049 10.5101 21.3627 10.1668 21.3627 9.75001C21.3627 9.30128 20.9989 8.93751 20.5502 8.93751Z" fill="#272727"/>
<path d="M21.8502 12.1875H10.1455L10.0603 12.1924L10.0556 12.193C9.65139 12.2399 9.3377 12.5832 9.3377 13C9.3377 13.4487 9.70147 13.8125 10.1502 13.8125H21.8549L21.9401 13.8076L21.9448 13.8071C22.349 13.7601 22.6627 13.4168 22.6627 13C22.6627 12.5513 22.2989 12.1875 21.8502 12.1875Z" fill="#272727"/>
<path d="M20.5502 15.4375H11.4455L11.3603 15.4424L11.3556 15.443C10.9514 15.4899 10.6377 15.8332 10.6377 16.25C10.6377 16.6987 11.0015 17.0625 11.4502 17.0625H20.5549L20.6401 17.0576L20.6448 17.0571C21.049 17.0101 21.3627 16.6668 21.3627 16.25C21.3627 15.8013 20.9989 15.4375 20.5502 15.4375Z" fill="#272727"/>
<path fill-rule="evenodd" clip-rule="evenodd" d="M23.9078 5.0635C21.9166 4.61016 19.2817 4.38751 16.0002 4.38751L15.5932 4.38867C12.5003 4.40648 10.0009 4.62898 8.09263 5.06346L7.94733 5.09992L7.94384 5.10088C6.50181 5.49756 5.48296 6.79123 5.43917 8.29021L5.43829 8.29024C2.91056 8.37564 0.887695 10.4516 0.887695 13C0.887695 15.549 2.91147 17.6253 5.4399 17.7098L5.44095 17.7589L5.44111 17.7626C5.50926 19.29 6.58966 20.5943 8.09265 20.9365C10.0838 21.3899 12.7187 21.6125 16.0002 21.6125C19.2817 21.6125 21.9166 21.3899 23.9078 20.9365C25.428 20.5904 26.516 19.2599 26.5612 17.7098L26.5621 17.7098C29.0898 17.6244 31.1127 15.5485 31.1127 13C31.1127 10.451 29.0889 8.3747 26.5605 8.29019L26.5595 8.24108L26.5593 8.23746C26.4911 6.71001 25.4107 5.40568 23.9078 5.0635ZM8.45338 6.64795C10.2249 6.24462 12.6097 6.03076 15.6057 6.01363H16.3947C19.3907 6.03076 21.7755 6.24462 23.547 6.64795C24.3605 6.83316 24.9377 7.55652 24.9377 8.39085V17.6067L24.9343 17.7198C24.8859 18.5067 24.3243 19.1751 23.547 19.3521C21.6983 19.773 19.1818 19.9875 16.0002 19.9875C12.8186 19.9875 10.3021 19.773 8.45339 19.3521C7.63988 19.1669 7.0627 18.4435 7.0627 17.6092V8.39329L7.06609 8.28022C7.11447 7.49329 7.67606 6.82493 8.45338 6.64795ZM2.5127 13C2.5127 11.3493 3.80812 10.0011 5.4377 9.91671V16.0833C3.80812 15.9989 2.5127 14.6507 2.5127 13ZM29.4877 13C29.4877 11.3493 28.1923 10.0012 26.5627 9.91671V16.0833C28.1923 15.9989 29.4877 14.6507 29.4877 13Z" fill="#272727"/>
</svg>
