<svg width="20" height="20" viewBox="0 0 20 20" fill="none" xmlns="http://www.w3.org/2000/svg">
<path d="M2.73321 1.7116C2.45112 1.42951 1.99376 1.42951 1.71167 1.7116C1.42958 1.99369 1.42958 2.45105 1.71167 2.73314L17.767 18.7885C18.0491 19.0705 18.5064 19.0705 18.7885 18.7885C19.0706 18.5064 19.0706 18.049 18.7885 17.7669L2.73321 1.7116Z" fill="#272727"/>
<path d="M3.70882 10.0659C2.54355 8.90066 2.21255 7.19762 2.73727 5.73036L1.80472 4.79781C0.840107 6.79766 1.18542 9.27887 2.84065 10.9341C4.49415 12.5876 6.96929 12.9394 8.97771 11.9708L8.04605 11.0391C6.58596 11.5646 4.88102 11.2381 3.70882 10.0659Z" fill="#272727"/>
<path d="M9.56602 16.7913C10.3963 15.961 10.8023 14.8634 10.7817 13.7748L11.9048 14.8979C11.7072 15.9114 11.2163 16.8773 10.4342 17.6595C8.34262 19.751 4.93222 19.751 2.84065 17.6595C2.60327 17.4221 2.60327 17.0287 2.84065 16.7913L5.82621 13.8057C6.06359 13.5684 6.457 13.5684 6.69438 13.8057C6.93176 14.0431 6.93176 14.4365 6.69438 14.6739L4.17102 17.1973C5.79817 18.4019 8.10486 18.2525 9.56602 16.7913Z" fill="#272727"/>
<path d="M11.7386 8.74534L12.7543 9.76103C14.0054 9.5788 15.3282 9.97095 16.2914 10.9341C17.2494 11.8921 17.6435 13.2135 17.4618 14.4686L18.4792 15.486C19.0619 13.6356 18.622 11.5284 17.1596 10.0659C15.6979 8.60432 13.5943 8.15985 11.7386 8.74534Z" fill="#272727"/>
<path d="M9.30259 6.30935L8.31105 5.31781C8.57021 4.59514 8.9888 3.91778 9.56602 3.34056C11.6576 1.24899 15.068 1.24899 17.1596 3.34056C17.3969 3.57794 17.3969 3.97135 17.1596 4.20873L14.174 7.19429C13.9366 7.43167 13.5432 7.43167 13.3058 7.19429C13.0684 6.95691 13.0685 6.5635 13.3058 6.32612L15.8292 3.80276C14.202 2.59816 11.8953 2.74757 10.4342 4.20873C9.83776 4.80516 9.46029 5.5395 9.30259 6.30935Z" fill="#272727"/>
</svg>
