<svg width="20" height="20" viewBox="0 0 20 20" fill="none" xmlns="http://www.w3.org/2000/svg">
<path fill-rule="evenodd" clip-rule="evenodd" d="M12.3194 10.2718C12.3182 10.2711 12.317 10.2705 12.3158 10.2699C12.2666 10.2443 12.2167 10.2197 12.1663 10.1963C12.2023 10.1521 12.2369 10.1069 12.2702 10.061C12.2864 10.0385 12.3023 10.0158 12.3179 9.9929M13.5833 14.1667H6.08333C6.00673 14.1667 5.93077 14.1517 5.85998 14.1224C5.7892 14.0931 5.72489 14.0501 5.67072 13.9959C5.61656 13.9418 5.5736 13.8775 5.5443 13.8067C5.51503 13.7359 5.49998 13.6602 5.5 13.5836C5.50191 12.9032 5.69768 12.2374 6.06437 11.6643C6.43111 11.0911 6.95361 10.6343 7.57065 10.3474L7.76486 10.2571L7.62962 10.091C7.22501 9.59416 7.00281 8.97371 7 8.33296C7.0001 7.58165 7.2986 6.86113 7.82986 6.32987C8.36122 5.79851 9.08189 5.5 9.83333 5.5C10.5848 5.5 11.3054 5.79851 11.8368 6.32987C12.3681 6.86112 12.6666 7.58163 12.6667 8.33292C12.6639 8.97368 12.4417 9.59415 12.037 10.091L11.9018 10.2571L12.096 10.3474C12.7131 10.6343 13.2356 11.0911 13.6023 11.6643C13.969 12.2374 14.1648 12.9032 14.1667 13.5836C14.1667 13.6601 14.1516 13.7359 14.1224 13.8067C14.0931 13.8775 14.0501 13.9418 13.9959 13.9959C13.9418 14.0501 13.8775 14.0931 13.8067 14.1224C13.7359 14.1517 13.6599 14.1667 13.5833 14.1667ZM10.7593 6.94755C10.4852 6.76442 10.163 6.66667 9.83333 6.66667C9.39154 6.66724 8.96779 6.84299 8.65539 7.15539C8.343 7.46779 8.16724 7.89154 8.16667 8.33333C8.16667 8.66297 8.26441 8.9852 8.44755 9.25928C8.63069 9.53337 8.89098 9.74699 9.19553 9.87313C9.50007 9.99928 9.83518 10.0323 10.1585 9.96798C10.4818 9.90367 10.7788 9.74493 11.0118 9.51184C11.2449 9.27876 11.4037 8.98179 11.468 8.65848C11.5323 8.33518 11.4993 8.00007 11.3731 7.69553C11.247 7.39098 11.0334 7.13069 10.7593 6.94755ZM11.9783 11.6108C11.5703 11.3224 11.0831 11.1673 10.5835 11.1667H9.08313C8.58352 11.1673 8.09635 11.3224 7.68839 11.6108C7.28044 11.8992 6.97168 12.3068 6.80446 12.7775L6.72544 13H12.9412L12.8622 12.7775C12.695 12.3068 12.3862 11.8992 11.9783 11.6108Z" fill="#272727"/>
</svg>
