<svg width="24" height="20" viewBox="0 0 24 20" fill="none" xmlns="http://www.w3.org/2000/svg">
<path d="M15.5 6.875H8.4964L8.43087 6.87878L8.42727 6.8792C8.1163 6.91532 7.875 7.17939 7.875 7.5C7.875 7.84518 8.15483 8.125 8.5 8.125H15.5036L15.5691 8.12122L15.5727 8.1208C15.8837 8.08468 16.125 7.82061 16.125 7.5C16.125 7.15482 15.8452 6.875 15.5 6.875Z" fill="#272727"/>
<path d="M16.5 9.375H7.4964L7.43087 9.37878L7.42727 9.3792C7.1163 9.41532 6.875 9.67939 6.875 10C6.875 10.3452 7.15483 10.625 7.5 10.625H16.5036L16.5691 10.6212L16.5727 10.6208C16.8837 10.5847 17.125 10.3206 17.125 10C17.125 9.65482 16.8452 9.375 16.5 9.375Z" fill="#272727"/>
<path d="M15.5 11.875H8.4964L8.43087 11.8788L8.42727 11.8792C8.1163 11.9153 7.875 12.1794 7.875 12.5C7.875 12.8452 8.15483 13.125 8.5 13.125H15.5036L15.5691 13.1212L15.5727 13.1208C15.8837 13.0847 16.125 12.8206 16.125 12.5C16.125 12.1548 15.8452 11.875 15.5 11.875Z" fill="#272727"/>
<path fill-rule="evenodd" clip-rule="evenodd" d="M18.0827 3.89499C16.5511 3.54627 14.5243 3.375 12 3.375L11.6869 3.37589C9.30779 3.38959 7.3852 3.56075 5.91726 3.89496L5.80549 3.92301L5.8028 3.92375C4.69355 4.22888 3.90982 5.22401 3.87613 6.37708L3.87546 6.3771C1.93105 6.44279 0.375 8.03965 0.375 10C0.375 11.9608 1.93175 13.5579 3.8767 13.6229L3.87751 13.6607L3.87763 13.6635C3.93005 14.8385 4.76113 15.8418 5.91727 16.105C7.44893 16.4537 9.47576 16.625 12 16.625C14.5243 16.625 16.5511 16.4537 18.0827 16.105C19.2522 15.8388 20.089 14.8153 20.1239 13.6229L20.1246 13.6229C22.069 13.5572 23.625 11.9603 23.625 10C23.625 8.03924 22.0683 6.44207 20.1233 6.37706L20.1225 6.33928L20.1224 6.3365C20.07 5.16154 19.2389 4.15821 18.0827 3.89499ZM6.19476 5.1138C7.55745 4.80355 9.39194 4.63904 11.6966 4.62586H12.3035C14.6081 4.63904 16.4426 4.80355 17.8052 5.1138C18.431 5.25627 18.875 5.8127 18.875 6.45449V13.5436L18.8724 13.6306C18.8352 14.236 18.4032 14.7501 17.8053 14.8862C16.3831 15.21 14.4474 15.375 12 15.375C9.55265 15.375 7.61688 15.21 6.19476 14.8862C5.56899 14.7437 5.125 14.1873 5.125 13.5455V6.45637L5.12761 6.36939C5.16482 5.76406 5.59682 5.24994 6.19476 5.1138ZM1.625 10C1.625 8.73025 2.62148 7.69318 3.875 7.62823V12.3718C2.62148 12.3068 1.625 11.2697 1.625 10ZM22.375 10C22.375 8.73026 21.3785 7.69318 20.125 7.62823V12.3718C21.3785 12.3068 22.375 11.2697 22.375 10Z" fill="#272727"/>
</svg>
