<svg width="26" height="26" viewBox="0 0 26 26" fill="none" xmlns="http://www.w3.org/2000/svg">
<path fill-rule="evenodd" clip-rule="evenodd" d="M12.3643 1.13751C7.04602 1.13751 2.87583 4.67756 2.47111 9.59196C2.30456 11.5371 2.75994 13.4848 3.77162 15.1545L3.77275 15.1563C4.5603 16.4185 5.01926 17.8578 5.10774 19.343C5.19614 20.8268 4.91191 22.3092 4.28095 23.655C4.22995 23.7519 4.19877 23.858 4.18925 23.9671C4.1796 24.0777 4.19239 24.1891 4.22687 24.2946C4.26134 24.4001 4.31677 24.4975 4.38984 24.5811C4.46291 24.6646 4.55212 24.7325 4.65209 24.7807C4.75206 24.829 4.86075 24.8565 4.97162 24.8616C5.08249 24.8668 5.19326 24.8495 5.29728 24.8108C5.4013 24.772 5.49642 24.7127 5.57693 24.6363C5.65679 24.5605 5.72065 24.4695 5.76473 24.3686C6.51409 22.7763 6.85333 21.0219 6.75156 19.265C6.64976 17.5076 6.10993 15.8036 5.18125 14.3082C4.34864 12.9324 3.97515 11.3275 4.11482 9.72546L4.1149 9.72458C4.44288 5.70866 7.89642 2.78505 12.3696 2.78505H12.4701C14.4667 2.78505 15.9928 3.19837 17.0853 4.01569C18.1742 4.83039 18.8531 6.06232 19.1259 7.74491C19.1721 8.04506 19.2006 8.34765 19.2113 8.65113L19.2114 8.65324C19.2522 9.49641 19.5139 10.314 19.9704 11.0242C20.4268 11.7343 21.0618 12.3121 21.8119 12.6994L21.8194 12.7028C21.9024 12.7404 21.9791 12.7905 22.0469 12.8512C22.0545 12.8692 22.0577 12.8889 22.0561 12.9086C22.0542 12.9328 22.0452 12.9559 22.0302 12.975C21.7388 13.2702 21.369 13.4759 20.9644 13.568L20.9577 13.5698C20.7775 13.6189 20.6193 13.7279 20.5091 13.8788C20.3989 14.0297 20.3433 14.2135 20.3514 14.4002L20.3514 14.401L20.4233 15.8769C20.4095 15.9031 20.3898 15.941 20.366 15.9886C20.3184 16.0837 20.2541 16.2181 20.1869 16.3758C20.0551 16.6853 19.9073 17.0958 19.8591 17.478L19.8306 17.5895L19.8294 17.5976L19.829 17.6003L19.8278 17.6079L19.8237 17.6363C19.8202 17.6608 19.8153 17.6962 19.8096 17.7399C19.7983 17.8272 19.7838 17.9482 19.7712 18.0828C19.7465 18.3468 19.7272 18.6816 19.7604 18.9146L19.7614 18.9216L19.763 18.9286C19.7708 18.9619 19.7806 18.9946 19.7924 19.0266C19.8343 19.1427 19.8505 19.2666 19.8398 19.3896C19.829 19.5127 19.7916 19.632 19.7301 19.7392L19.7294 19.7403C19.6699 19.846 19.5877 19.9373 19.4888 20.0075C19.3898 20.0778 19.2763 20.1254 19.1569 20.1469C18.1821 20.3241 17.1878 20.3679 16.2013 20.2772L16.1983 20.277C15.222 20.2055 14.2712 19.9325 13.4057 19.4753L13.4015 19.4733C12.8664 19.2098 12.4037 18.8195 12.0537 18.3365C11.995 18.2474 11.9195 18.1705 11.8314 18.1101C11.7421 18.049 11.6417 18.006 11.5358 17.9837C11.43 17.9613 11.3208 17.9601 11.2144 17.9799C11.108 17.9998 11.0066 18.0405 10.916 18.0995C10.8253 18.1586 10.7472 18.2349 10.6861 18.3242C10.6249 18.4134 10.582 18.5139 10.5596 18.6197C10.5373 18.7256 10.536 18.8348 10.5559 18.9412C10.5758 19.0475 10.6163 19.149 10.6754 19.2396L10.6787 19.2443C11.1784 19.9552 11.8462 20.5314 12.6225 20.9217C13.0619 21.1586 13.5223 21.3541 13.9978 21.5057V23.6131C13.9978 23.8316 14.0846 24.0411 14.2391 24.1956C14.3935 24.3501 14.6031 24.4369 14.8215 24.4369C15.04 24.4369 15.2496 24.3501 15.404 24.1956C15.5585 24.0411 15.6453 23.8316 15.6453 23.6131V21.8722C15.778 21.8898 15.9123 21.9045 16.048 21.9155C17.1837 22.0197 18.3288 21.9692 19.4509 21.7653C19.8005 21.7007 20.1323 21.562 20.4239 21.3586C20.7155 21.1552 20.9603 20.8918 21.1417 20.586C21.3232 20.2802 21.4371 19.9392 21.4758 19.5857C21.5138 19.2397 21.4788 18.8897 21.3733 18.5581C21.365 18.3638 21.3817 18.1692 21.4232 17.9791L21.5042 17.655L21.5044 17.6543C21.5414 17.5118 21.5536 17.364 21.5406 17.2177L21.5789 17.1775C21.7315 17.1166 21.8627 17.0114 21.9553 16.8749C22.0558 16.7269 22.1053 16.5502 22.0965 16.3715L22.0255 14.9325C22.4941 14.7378 22.9154 14.4434 23.2598 14.0694L23.2609 14.0683C23.5151 13.787 23.671 13.4307 23.7052 13.0531C23.7393 12.6755 23.6501 12.297 23.4506 11.9746L23.4462 11.9682C23.2299 11.6532 22.9319 11.403 22.5842 11.2446C22.0872 10.9894 21.6661 10.6079 21.3632 10.1384C21.0597 9.66795 20.8857 9.12586 20.8586 8.56673C20.8441 8.20643 20.8091 7.84726 20.7537 7.49095L20.7535 7.48995C20.52 6.04887 19.9503 4.45744 18.6794 3.22597C17.4056 1.99169 15.4467 1.13751 12.4727 1.13751H12.3643ZM16.0621 21.7536L16.049 21.9156L16.048 21.9155L16.0472 21.9154L16.0621 21.7536ZM19.99 17.622L19.8294 17.5976C19.8294 17.5976 19.8294 17.5975 19.99 17.622Z" fill="#272727"/>
</svg>
