<svg width="36" height="30" viewBox="0 0 36 30" fill="none" xmlns="http://www.w3.org/2000/svg">
<path d="M7.84966 2.56738C7.42652 2.14425 6.74048 2.14425 6.31735 2.56738C5.89421 2.99052 5.89421 3.67656 6.31735 4.09969L28.9004 26.6827C29.3235 27.1058 30.0095 27.1058 30.4327 26.6827C30.8558 26.2595 30.8558 25.5735 30.4327 25.1504L7.84966 2.56738Z" fill="#272727"/>
<path fill-rule="evenodd" clip-rule="evenodd" d="M5.8142 9.56563C5.8384 8.73716 6.12073 7.96305 6.59122 7.331L7.94459 8.68437C7.79962 8.94652 7.71059 9.24224 7.69142 9.5541L7.6875 9.68456V20.3183C7.6875 21.281 8.35348 22.1156 9.29214 22.3293C11.4253 22.815 14.329 23.0625 18 23.0625C19.5317 23.0625 20.9299 23.0194 22.1942 22.9339L23.9272 24.6669C22.2111 24.848 20.2356 24.9375 18 24.9375C14.2136 24.9375 11.1734 24.6806 8.87591 24.1575C7.14169 23.7627 5.89507 22.2577 5.81644 20.4953L5.81626 20.4911L5.81504 20.4344C2.89763 20.3369 0.5625 17.9412 0.5625 15C0.5625 12.0595 2.89657 9.6642 5.81318 9.56566L5.8142 9.56563ZM5.8125 11.4424C3.93222 11.5398 2.4375 13.0954 2.4375 15C2.4375 16.9046 3.93222 18.4602 5.8125 18.5577V11.4424Z" fill="#272727"/>
<path d="M11.2446 14.0625H13.3227L15.1977 15.9375H11.25C10.7322 15.9375 10.3125 15.5178 10.3125 15C10.3125 14.5191 10.6745 14.123 11.1409 14.0688L11.1463 14.0682L11.2446 14.0625Z" fill="#272727"/>
<path d="M12.7446 17.8125H17.0727L18.9478 19.6875H12.75C12.2322 19.6875 11.8125 19.2678 11.8125 18.75C11.8125 18.2691 12.1745 17.873 12.6409 17.8188L12.6463 17.8182L12.7446 17.8125Z" fill="#272727"/>
<path d="M20.4272 12.1875L18.5522 10.3125H23.25C23.7678 10.3125 24.1875 10.7322 24.1875 11.25C24.1875 11.7309 23.8256 12.127 23.3591 12.1812L23.3537 12.1818L23.2554 12.1875H20.4272Z" fill="#272727"/>
<path d="M24.1772 15.9375L22.3022 14.0625H24.75C25.2678 14.0625 25.6875 14.4823 25.6875 15C25.6875 15.4809 25.3256 15.877 24.8591 15.9312L24.8537 15.9318L24.7554 15.9375H24.1772Z" fill="#272727"/>
<path fill-rule="evenodd" clip-rule="evenodd" d="M28.3125 20.0728V9.68175C28.3125 8.71906 27.6465 7.88442 26.7079 7.67071C24.6638 7.20533 21.9121 6.95856 18.4552 6.9388H17.5448C16.7344 6.94343 15.9627 6.96055 15.2297 6.99003L13.451 5.21133C14.6937 5.12131 16.0534 5.07235 17.5304 5.06385L18 5.06251C21.7864 5.06251 24.8266 5.31941 27.1241 5.84249C28.8583 6.23732 30.1049 7.74232 30.1836 9.50476L30.1838 9.50894L30.185 9.5656C33.1024 9.66311 35.4375 12.0589 35.4375 15C35.4375 17.9405 33.1034 20.3358 30.1868 20.4344L30.1858 20.4344C30.1729 20.8756 30.0868 21.3013 29.9381 21.6984L28.3125 20.0728ZM30.1875 11.4424C32.0678 11.5398 33.5625 13.0954 33.5625 15C33.5625 16.9046 32.0678 18.4602 30.1875 18.5577V11.4424Z" fill="#272727"/>
</svg>
