<svg width="20" height="20" viewBox="0 0 20 20" fill="none" xmlns="http://www.w3.org/2000/svg">
<path d="M17.2709 16.0003H2.73755C2.37905 16.0045 2.02566 15.9151 1.71231 15.7409C1.39896 15.5667 1.1365 15.3137 0.950881 15.0069C0.775654 14.7207 0.677974 14.3937 0.667454 14.0582C0.656934 13.7227 0.733935 13.3903 0.890881 13.0936L5.09088 5.09361C5.26909 4.75976 5.53554 4.48126 5.86117 4.28846C6.18681 4.09566 6.55914 3.99598 6.93755 4.00028H17.2709C17.5379 3.99586 17.8032 4.0441 18.0516 4.14223C18.3 4.24035 18.5266 4.38645 18.7185 4.57218C18.9104 4.7579 19.0639 4.97961 19.1701 5.22465C19.2763 5.46969 19.3332 5.73325 19.3375 6.00028V14.0003C19.3332 14.2673 19.2763 14.5309 19.1701 14.7759C19.0639 15.0209 18.9104 15.2427 18.7185 15.4284C18.5266 15.6141 18.3 15.7602 18.0516 15.8583C17.8032 15.9565 17.5379 16.0047 17.2709 16.0003ZM6.93755 5.33361C6.80244 5.33069 6.66907 5.36449 6.55166 5.43142C6.43426 5.49834 6.33721 5.59587 6.27088 5.71361L2.07088 13.7136C2.01697 13.8056 1.98856 13.9103 1.98856 14.0169C1.98856 14.1236 2.01697 14.2283 2.07088 14.3203C2.14093 14.4323 2.2397 14.5236 2.35694 14.5845C2.47417 14.6455 2.60559 14.6739 2.73755 14.6669H17.2709C17.3628 14.6714 17.4548 14.6577 17.5414 14.6266C17.6281 14.5955 17.7077 14.5477 17.7758 14.4857C17.844 14.4238 17.8992 14.3491 17.9384 14.2658C17.9776 14.1824 17.9999 14.0922 18.0042 14.0003V6.00028C17.9999 5.90832 17.9776 5.8181 17.9384 5.7348C17.8992 5.6515 17.844 5.57675 17.7758 5.51482C17.7077 5.4529 17.6281 5.40502 17.5414 5.37392C17.4548 5.34283 17.3628 5.32913 17.2709 5.33361H6.93755Z" fill="#272727"/>
<path fill-rule="evenodd" clip-rule="evenodd" d="M11.9904 8.76166C12.2016 8.63499 12.4653 8.63499 12.6764 8.76166L14.3431 9.76166C14.6588 9.95109 14.7612 10.3606 14.5718 10.6763C14.3823 10.992 13.9728 11.0944 13.6571 10.905L12.3334 10.1108L11.0098 10.905C10.694 11.0944 10.2845 10.992 10.0951 10.6763C9.90567 10.3606 10.0081 9.95109 10.3238 9.76166L11.9904 8.76166Z" fill="#272727"/>
</svg>
