<svg width="26" height="26" viewBox="0 0 26 26" fill="none" xmlns="http://www.w3.org/2000/svg">
<path d="M3.55293 2.22508C3.18621 1.85836 2.59164 1.85836 2.22493 2.22508C1.85821 2.5918 1.85821 3.18636 2.22493 3.55308L23.0969 24.425C23.4636 24.7917 24.0581 24.7917 24.4249 24.425C24.7916 24.0583 24.7916 23.4637 24.4249 23.097L3.55293 2.22508Z" fill="#272727"/>
<path d="M4.82122 13.0857C3.30637 11.5709 2.87607 9.35691 3.55821 7.44947L2.34589 6.23715C1.0919 8.83697 1.5408 12.0625 3.6926 14.2143C5.84216 16.3639 9.05984 16.8212 11.6708 15.562L10.4596 14.3509C8.56151 15.0339 6.34508 14.6096 4.82122 13.0857Z" fill="#272727"/>
<path d="M12.4356 21.8287C13.515 20.7493 14.0427 19.3224 14.016 17.9073L15.4761 19.3673C15.2191 20.6848 14.581 21.9406 13.5642 22.9573C10.8452 25.6764 6.41164 25.6764 3.6926 22.9573C3.38401 22.6487 3.38401 22.1373 3.6926 21.8287L7.57383 17.9475C7.88242 17.6389 8.39386 17.6389 8.70245 17.9475C9.01104 18.2561 9.01104 18.7675 8.70245 19.0761L5.42209 22.3565C7.53738 23.9224 10.5361 23.7282 12.4356 21.8287Z" fill="#272727"/>
<path d="M15.2599 11.3689L16.5803 12.6893C18.2068 12.4524 19.9265 12.9622 21.1786 14.2143C22.4239 15.4597 22.9363 17.1776 22.7002 18.8092L24.0227 20.1318C24.7802 17.7263 24.2084 14.9869 22.3072 13.0857C20.4071 11.1856 17.6724 10.6078 15.2599 11.3689Z" fill="#272727"/>
<path d="M12.0931 8.20215L10.8041 6.91316C11.141 5.97368 11.6852 5.09312 12.4356 4.34273C15.1546 1.62369 19.5881 1.62369 22.3072 4.34273C22.6158 4.65132 22.6158 5.16276 22.3072 5.47135L18.426 9.35258C18.1174 9.66117 17.6059 9.66117 17.2973 9.35258C16.9887 9.04399 16.9887 8.53255 17.2973 8.22396L20.5777 4.9436C18.4624 3.37761 15.4637 3.57185 13.5642 5.47135C12.7888 6.24671 12.2981 7.20136 12.0931 8.20215Z" fill="#272727"/>
</svg>
