<svg width="38" height="26" viewBox="0 0 38 26" fill="none" xmlns="http://www.w3.org/2000/svg">
<path d="M19.3248 9.53329H26.2717C26.6978 9.53329 27.0436 9.88518 27.0436 10.3187C27.0436 10.7523 26.6978 11.1042 26.2717 11.1042H18.5529C18.1268 11.1042 17.781 10.7523 17.781 10.3187V7.17704C17.781 6.74349 18.1268 6.3916 18.5529 6.3916C18.979 6.3916 19.3248 6.74349 19.3248 7.17704V9.53329Z" fill="#272727"/>
<path d="M15.4654 9.5333H10.5393L11.5258 7.52894C11.7157 7.14097 11.5613 6.66972 11.1799 6.47489C10.7971 6.28168 10.3355 6.43719 10.1441 6.82678L8.60034 9.96847C8.47993 10.2104 8.49382 10.501 8.63428 10.7319C8.77474 10.9628 9.02331 11.1042 9.2904 11.1042H15.4654C15.8914 11.1042 16.2373 10.7523 16.2373 10.3187C16.2373 9.88519 15.8915 9.5333 15.4654 9.5333Z" fill="#272727"/>
<path d="M20.0967 12.675H21.6404C22.0665 12.675 22.4123 13.0269 22.4123 13.4604C22.4123 13.894 22.0665 14.2459 21.6404 14.2459H20.0967C19.6706 14.2459 19.3248 13.894 19.3248 13.4604C19.3248 13.0269 19.6706 12.675 20.0967 12.675Z" fill="#272727"/>
<path fill-rule="evenodd" clip-rule="evenodd" d="M31.9125 9.5333H33.2186C36.2273 9.5333 37.8498 12.3655 37.8498 15.0312C37.8498 17.0231 36.5357 18.5796 34.6962 18.8983C34.3606 20.7179 32.7867 22.1 30.9029 22.1C29.0399 22.1 27.48 20.7482 27.1212 18.9584H12.2021C11.8433 20.7482 10.2833 22.1 8.42032 22.1C6.55728 22.1 4.99734 20.7481 4.63857 18.9582C2.52073 18.9469 0.799805 17.1888 0.799805 15.0312V11.8895C0.799805 9.72496 2.53189 7.96249 4.65916 7.96249C5.36622 7.96249 6.02386 7.60434 6.41751 7.00585L7.73127 4.99833C8.44911 3.90349 9.6486 3.25 10.9422 3.25H22.1004C22.9727 3.25 23.8295 3.55631 24.5118 4.11077L30.5942 9.06205C30.9678 9.36681 31.4355 9.5333 31.9125 9.5333ZM28.5874 18.1729L28.5873 18.1828C28.5926 19.4774 29.6294 20.5292 30.9029 20.5292C32.1796 20.5292 33.2186 19.472 33.2186 18.1729C33.2186 16.8738 32.1796 15.8167 30.9029 15.8167C29.6295 15.8167 28.5926 16.8685 28.5873 18.163L28.5874 18.1729ZM12.202 17.3875H27.1212C27.48 15.5976 29.0399 14.2458 30.9029 14.2458C32.7331 14.2458 34.2708 15.5505 34.6646 17.2934C35.5561 17.0393 36.3061 16.273 36.3061 15.0311C36.3061 13.4524 35.4832 11.104 33.2186 11.104H31.9141C31.0866 11.104 30.2746 10.8135 29.6309 10.2872L23.5485 5.33756C23.1378 5.00452 22.6253 4.82073 22.1004 4.82073H10.9422C10.1673 4.82073 9.44635 5.21349 9.01564 5.87007L7.70189 7.87605C7.02109 8.91441 5.88492 9.5333 4.65916 9.5333C3.38245 9.5333 2.34353 10.5904 2.34353 11.8895V15.0312C2.34353 16.3233 3.37132 17.3761 4.6386 17.3874C4.99742 15.5976 6.55733 14.2458 8.42032 14.2458C10.2833 14.2458 11.8432 15.5977 12.202 17.3875ZM8.42032 20.5292C7.14361 20.5292 6.10469 19.472 6.10469 18.1729C6.10469 16.8738 7.14361 15.8167 8.42032 15.8167C9.69702 15.8167 10.7359 16.8738 10.7359 18.1729C10.7359 19.472 9.69702 20.5292 8.42032 20.5292Z" fill="#272727"/>
</svg>
