<svg width="30" height="30" viewBox="0 0 30 30" fill="none" xmlns="http://www.w3.org/2000/svg">
<path d="M9.34868 6.68663C9.3471 6.6858 9.34551 6.68497 9.34393 6.68415C9.27995 6.65087 9.21515 6.61897 9.14957 6.58847C9.19636 6.53101 9.24138 6.47235 9.2846 6.41257C9.30573 6.38335 9.32643 6.35386 9.3467 6.32411" fill="#272727"/>
<path fill-rule="evenodd" clip-rule="evenodd" d="M10.9917 11.75H1.24173C1.14215 11.7501 1.0434 11.7305 0.951376 11.6924C0.859365 11.6543 0.775756 11.5985 0.705337 11.5281C0.634922 11.4577 0.579075 11.374 0.540991 11.282C0.502938 11.1901 0.483368 11.0915 0.483398 10.992C0.485877 10.1075 0.740377 9.24199 1.21708 8.4969C1.69384 7.75174 2.37309 7.15789 3.17524 6.78494L3.42772 6.66756L3.2519 6.45166C2.72592 5.80575 2.43705 4.99916 2.4334 4.16618C2.43353 3.18948 2.82158 2.25281 3.51222 1.56216C4.20298 0.871402 5.13985 0.483337 6.11673 0.483337C7.09361 0.483337 8.03048 0.871402 8.72124 1.56216C9.41188 2.2528 9.79992 3.18945 9.80007 4.16614C9.79642 4.99913 9.50756 5.80573 8.98156 6.45166L8.80575 6.66756L9.05822 6.78494C9.86038 7.15789 10.5396 7.75174 11.0164 8.4969C11.4931 9.24198 11.7476 10.1075 11.7501 10.992C11.7501 11.0915 11.7305 11.1901 11.6925 11.282C11.6544 11.374 11.5985 11.4577 11.5281 11.5281C11.4577 11.5985 11.3741 11.6543 11.2821 11.6924C11.1901 11.7305 11.0913 11.7501 10.9917 11.75ZM7.32047 2.36515C6.96416 2.12708 6.54526 2 6.11673 2C5.5424 2.00075 4.99152 2.22923 4.58541 2.63535C4.17929 3.04146 3.95081 3.59234 3.95006 4.16667C3.95006 4.5952 4.07714 5.0141 4.31521 5.37041C4.55329 5.72671 4.89168 6.00442 5.28758 6.16841C5.68349 6.3324 6.11913 6.37531 6.53943 6.29171C6.95972 6.2081 7.34578 6.00175 7.6488 5.69873C7.95181 5.39572 8.15817 5.00966 8.24177 4.58937C8.32537 4.16907 8.28246 3.73343 8.11847 3.33752C7.95448 2.94162 7.67677 2.60323 7.32047 2.36515ZM8.90515 8.42742C8.37481 8.05251 7.74148 7.85081 7.092 7.85H5.14146C4.49198 7.85081 3.85865 8.05251 3.32831 8.42742C2.79797 8.80234 2.39658 9.33213 2.17919 9.94415L2.07647 10.2333H10.157L10.0543 9.94415C9.83688 9.33213 9.43549 8.80234 8.90515 8.42742Z" fill="#272727"/>
<path d="M26.682 6.68663C26.6804 6.6858 26.6788 6.68497 26.6773 6.68415C26.6133 6.65087 26.5485 6.61897 26.4829 6.58847C26.5297 6.53101 26.5747 6.47235 26.6179 6.41257C26.6391 6.38335 26.6598 6.35386 26.68 6.32411" fill="#272727"/>
<path fill-rule="evenodd" clip-rule="evenodd" d="M28.3251 11.75H18.5751C18.4755 11.7501 18.3767 11.7305 18.2847 11.6924C18.1927 11.6543 18.1091 11.5985 18.0387 11.5281C17.9683 11.4577 17.9124 11.374 17.8743 11.282C17.8363 11.1901 17.8167 11.0915 17.8167 10.992C17.8192 10.1075 18.0737 9.24199 18.5504 8.4969C19.0272 7.75174 19.7064 7.15789 20.5086 6.78494L20.7611 6.66756L20.5852 6.45166C20.0592 5.80575 19.7704 4.99916 19.7667 4.16618C19.7669 3.18948 20.1549 2.25281 20.8456 1.56216C21.5363 0.871402 22.4732 0.483337 23.4501 0.483337C24.4269 0.483337 25.3638 0.871402 26.0546 1.56216C26.7452 2.2528 27.1333 3.18945 27.1334 4.16614C27.1298 4.99913 26.8409 5.80573 26.3149 6.45166L26.1391 6.66756L26.3916 6.78494C27.1937 7.15789 27.873 7.75174 28.3497 8.4969C28.8264 9.24198 29.0809 10.1075 29.0834 10.992C29.0834 11.0915 29.0639 11.1901 29.0258 11.282C28.9877 11.374 28.9319 11.4577 28.8615 11.5281C28.791 11.5985 28.7074 11.6543 28.6154 11.6924C28.5234 11.7305 28.4246 11.7501 28.3251 11.75ZM24.6538 2.36515C24.2975 2.12708 23.8786 2 23.4501 2C22.8757 2.00075 22.3249 2.22923 21.9187 2.63535C21.5126 3.04146 21.2841 3.59234 21.2834 4.16667C21.2834 4.5952 21.4105 5.0141 21.6485 5.37041C21.8866 5.72671 22.225 6.00442 22.6209 6.16841C23.0168 6.3324 23.4525 6.37531 23.8728 6.29171C24.2931 6.2081 24.6791 6.00175 24.9821 5.69873C25.2851 5.39572 25.4915 5.00966 25.5751 4.58937C25.6587 4.16907 25.6158 3.73343 25.4518 3.33752C25.2878 2.94162 25.0101 2.60323 24.6538 2.36515ZM26.2385 8.42742C25.7081 8.05251 25.0748 7.85081 24.4253 7.85H22.4748C21.8253 7.85081 21.192 8.05251 20.6616 8.42742C20.1313 8.80234 19.7299 9.33213 19.5125 9.94415L19.4098 10.2333H27.4903L27.3876 9.94415C27.1702 9.33213 26.7688 8.80234 26.2385 8.42742Z" fill="#272727"/>
<path d="M26.682 24.8866C26.6804 24.8858 26.6788 24.885 26.6773 24.8842C26.6133 24.8509 26.5485 24.819 26.4829 24.7885C26.5297 24.731 26.5747 24.6723 26.6179 24.6126C26.6391 24.5833 26.6598 24.5539 26.68 24.5241" fill="#272727"/>
<path fill-rule="evenodd" clip-rule="evenodd" d="M28.3251 29.95H18.5751C18.4755 29.9501 18.3767 29.9305 18.2847 29.8924C18.1927 29.8543 18.1091 29.7985 18.0387 29.7281C17.9683 29.6577 17.9124 29.574 17.8743 29.482C17.8363 29.3901 17.8167 29.2915 17.8167 29.192C17.8192 28.3075 18.0737 27.442 18.5504 26.6969C19.0272 25.9517 19.7064 25.3579 20.5086 24.9849L20.7611 24.8676L20.5852 24.6517C20.0592 24.0057 19.7704 23.1992 19.7667 22.3662C19.7669 21.3895 20.1549 20.4528 20.8456 19.7622C21.5363 19.0714 22.4732 18.6833 23.4501 18.6833C24.4269 18.6833 25.3638 19.0714 26.0546 19.7622C26.7452 20.4528 27.1333 21.3895 27.1334 22.3661C27.1298 23.1991 26.8409 24.0057 26.3149 24.6517L26.1391 24.8676L26.3916 24.9849C27.1937 25.3579 27.873 25.9517 28.3497 26.6969C28.8264 27.442 29.0809 28.3075 29.0834 29.192C29.0834 29.2915 29.0639 29.3901 29.0258 29.482C28.9877 29.574 28.9319 29.6577 28.8615 29.7281C28.791 29.7985 28.7074 29.8543 28.6154 29.8924C28.5234 29.9305 28.4246 29.9501 28.3251 29.95ZM24.6538 20.5652C24.2975 20.3271 23.8786 20.2 23.4501 20.2C22.8757 20.2008 22.3249 20.4292 21.9187 20.8353C21.5126 21.2415 21.2841 21.7923 21.2834 22.3667C21.2834 22.7952 21.4105 23.2141 21.6485 23.5704C21.8866 23.9267 22.225 24.2044 22.6209 24.3684C23.0168 24.5324 23.4525 24.5753 23.8728 24.4917C24.2931 24.4081 24.6791 24.2017 24.9821 23.8987C25.2851 23.5957 25.4915 23.2097 25.5751 22.7894C25.6587 22.3691 25.6158 21.9334 25.4518 21.5375C25.2878 21.1416 25.0101 20.8032 24.6538 20.5652ZM26.2385 26.6274C25.7081 26.2525 25.0748 26.0508 24.4253 26.05H22.4748C21.8253 26.0508 21.192 26.2525 20.6616 26.6274C20.1313 27.0023 19.7299 27.5321 19.5125 28.1441L19.4098 28.4333H27.4903L27.3876 28.1441C27.1702 27.5321 26.7688 27.0023 26.2385 26.6274Z" fill="#272727"/>
<path d="M9.34868 24.8866C9.3471 24.8858 9.34551 24.885 9.34393 24.8842C9.27995 24.8509 9.21515 24.819 9.14957 24.7885C9.19636 24.731 9.24138 24.6723 9.2846 24.6126C9.30573 24.5833 9.32643 24.5539 9.3467 24.5241" fill="#272727"/>
<path fill-rule="evenodd" clip-rule="evenodd" d="M10.9917 29.95H1.24173C1.14215 29.9501 1.0434 29.9305 0.951376 29.8924C0.859365 29.8543 0.775756 29.7985 0.705337 29.7281C0.634922 29.6577 0.579075 29.574 0.540991 29.482C0.502938 29.3901 0.483368 29.2915 0.483398 29.192C0.485877 28.3075 0.740377 27.442 1.21708 26.6969C1.69384 25.9517 2.37309 25.3579 3.17524 24.9849L3.42772 24.8676L3.2519 24.6517C2.72592 24.0057 2.43705 23.1992 2.4334 22.3662C2.43353 21.3895 2.82158 20.4528 3.51222 19.7622C4.20298 19.0714 5.13985 18.6833 6.11673 18.6833C7.09361 18.6833 8.03048 19.0714 8.72124 19.7622C9.41188 20.4528 9.79992 21.3895 9.80007 22.3661C9.79642 23.1991 9.50756 24.0057 8.98156 24.6517L8.80575 24.8676L9.05822 24.9849C9.86038 25.3579 10.5396 25.9517 11.0164 26.6969C11.4931 27.442 11.7476 28.3075 11.7501 29.192C11.7501 29.2915 11.7305 29.3901 11.6925 29.482C11.6544 29.574 11.5985 29.6577 11.5281 29.7281C11.4577 29.7985 11.3741 29.8543 11.2821 29.8924C11.1901 29.9305 11.0913 29.9501 10.9917 29.95ZM7.32047 20.5652C6.96416 20.3271 6.54526 20.2 6.11673 20.2C5.5424 20.2008 4.99152 20.4292 4.58541 20.8353C4.17929 21.2415 3.95081 21.7923 3.95006 22.3667C3.95006 22.7952 4.07714 23.2141 4.31521 23.5704C4.55329 23.9267 4.89168 24.2044 5.28758 24.3684C5.68349 24.5324 6.11913 24.5753 6.53943 24.4917C6.95972 24.4081 7.34578 24.2017 7.6488 23.8987C7.95181 23.5957 8.15817 23.2097 8.24177 22.7894C8.32537 22.3691 8.28246 21.9334 8.11847 21.5375C7.95448 21.1416 7.67677 20.8032 7.32047 20.5652ZM8.90515 26.6274C8.37481 26.2525 7.74148 26.0508 7.092 26.05H5.14146C4.49198 26.0508 3.85865 26.2525 3.32831 26.6274C2.79797 27.0023 2.39658 27.5321 2.17919 28.1441L2.07647 28.4333H10.157L10.0543 28.1441C9.83688 27.5321 9.43549 27.0023 8.90515 26.6274Z" fill="#272727"/>
</svg>
