<svg width="20" height="20" viewBox="0 0 20 20" fill="none" xmlns="http://www.w3.org/2000/svg">
<path d="M19.9221 19.1244L10.7322 3.52468L12.2926 0.875815C12.4621 0.588041 12.3464 0.228158 12.0341 0.0719866C11.7217 -0.0842634 11.3312 0.0224163 11.1617 0.31019L10 2.2821L8.83837 0.310151C8.66887 0.0223772 8.27819 -0.0842243 7.96595 0.0719475C7.65362 0.228119 7.53792 0.588002 7.70742 0.875776L9.26809 3.52499L0.0779423 19.1244C-0.0302938 19.3081 -0.0255031 19.5307 0.090449 19.7103C0.206443 19.89 0.416514 20 0.643415 20H13.9321C13.9333 20 19.3566 20 19.3566 20C19.5835 20 19.7936 19.89 19.9096 19.7103C20.0255 19.5308 20.0303 19.3081 19.9221 19.1244ZM7.14602 18.8144L10 13.9698L12.854 18.8144H7.14602V18.8144ZM14.3181 18.8144L10.5655 12.4443C10.453 12.2532 10.236 12.1343 10 12.1343C9.76412 12.1343 9.54709 12.2532 9.43457 12.4443L5.68197 18.8144H1.72476L10.0002 4.76753L18.2753 18.8144H14.3181Z" fill="#272727"/>
</svg>
