<svg width="26" height="26" viewBox="0 0 26 26" fill="none" xmlns="http://www.w3.org/2000/svg">
<path fill-rule="evenodd" clip-rule="evenodd" d="M10.3929 1.13751C5.43541 1.13751 1.54648 4.43779 1.16904 9.02073C1.01374 10.8344 1.43835 12.6506 2.38168 14.2074L2.38281 14.2092C3.11521 15.3831 3.54202 16.7216 3.62431 18.1027C3.70651 19.4826 3.44222 20.861 2.85552 22.1126C2.80741 22.2041 2.778 22.3042 2.76901 22.4072C2.75989 22.5117 2.77198 22.6169 2.80455 22.7166C2.83712 22.8163 2.88949 22.9083 2.95853 22.9873C3.02757 23.0662 3.11184 23.1304 3.2063 23.1759C3.30075 23.2215 3.40344 23.2474 3.50818 23.2523C3.61293 23.2572 3.71759 23.2408 3.81586 23.2043C3.91414 23.1677 4.00401 23.1116 4.08008 23.0394C4.1555 22.9679 4.21581 22.8819 4.25746 22.7867C4.95602 21.3022 5.27226 19.6667 5.17738 18.0288C5.08248 16.3905 4.57923 14.8019 3.71347 13.4078C2.93936 12.1286 2.59211 10.6365 2.72197 9.14697L2.72204 9.14608C3.02693 5.41305 6.23724 2.69409 10.3979 2.69409H10.4915C12.3493 2.69409 13.7679 3.07871 14.7825 3.83786C15.7937 4.5944 16.4248 5.73869 16.6785 7.3034C16.7214 7.58246 16.7479 7.86379 16.7579 8.14595L16.758 8.14805C16.7961 8.9352 17.0404 9.6985 17.4665 10.3614C17.8926 11.0244 18.4854 11.5638 19.1856 11.9253L19.1932 11.9287C19.2686 11.963 19.3384 12.0083 19.4003 12.0633C19.406 12.0779 19.4083 12.0936 19.4071 12.1093C19.4055 12.1295 19.398 12.1487 19.3856 12.1646C19.1158 12.4378 18.7735 12.6281 18.399 12.7133L18.3924 12.7152C18.2221 12.7616 18.0726 12.8645 17.9686 13.0071C17.8645 13.1496 17.8119 13.3233 17.8196 13.4997L17.8196 13.5005L17.8818 14.7782C17.3723 14.8792 16.8525 14.9206 16.3331 14.9018C16.1322 14.8934 15.9323 14.9335 15.7501 15.0187C15.5681 15.1038 15.4091 15.2315 15.2867 15.3909C15.161 15.5536 15.0763 15.7442 15.04 15.9466C15.0036 16.1489 15.0166 16.357 15.0778 16.5532C15.2598 17.1403 15.7961 18.1196 17.3236 18.5185C17.2312 18.9088 17.2127 19.313 17.2693 19.7104L17.2703 19.7175L17.2719 19.7245C17.2793 19.7559 17.2885 19.7868 17.2997 19.817C17.3382 19.9236 17.353 20.0373 17.3432 20.1502C17.3333 20.2632 17.2989 20.3728 17.2424 20.4711L17.2418 20.4723C17.1871 20.5693 17.1117 20.653 17.0209 20.7175C16.9302 20.782 16.8259 20.8257 16.7163 20.8454C15.8097 21.0102 14.8848 21.051 13.9671 20.9666L13.964 20.9664C13.0565 20.9 12.1725 20.6462 11.3679 20.2211L11.3638 20.2191C10.8671 19.9745 10.4378 19.6124 10.1129 19.1642C10.0575 19.08 9.98617 19.0075 9.90301 18.9505C9.81867 18.8927 9.72379 18.8521 9.62377 18.831C9.52376 18.8099 9.42056 18.8087 9.32008 18.8275C9.21959 18.8463 9.1238 18.8847 9.03815 18.9405C8.9525 18.9963 8.87869 19.0684 8.82092 19.1527C8.76315 19.2371 8.72255 19.3319 8.70145 19.432C8.68035 19.532 8.67915 19.6352 8.69793 19.7357C8.71671 19.8361 8.75501 19.932 8.81081 20.0176L8.81412 20.0223C9.28053 20.6858 9.90373 21.2235 10.6282 21.5879C11.0356 21.8075 11.4623 21.9889 11.9029 22.1299V24.0842C11.9029 24.2906 11.9849 24.4886 12.1309 24.6346C12.2768 24.7805 12.4748 24.8625 12.6812 24.8625C12.8876 24.8625 13.0856 24.7805 13.2315 24.6346C13.3775 24.4886 13.4595 24.2906 13.4595 24.0842V22.4758C13.5792 22.4914 13.7002 22.5046 13.8226 22.5145C14.8811 22.6117 15.9483 22.5645 16.9942 22.3745C17.3213 22.314 17.6318 22.1843 17.9046 21.994C18.1775 21.8036 18.4065 21.5571 18.5763 21.271C18.7461 20.9849 18.8527 20.6658 18.8889 20.335C18.9244 20.0118 18.8918 19.6847 18.7935 19.3749C18.7859 19.1955 18.8014 19.0158 18.8397 18.8403L18.9151 18.5387L18.9153 18.5379C18.9565 18.3791 18.965 18.2135 18.94 18.0513C18.9151 17.8888 18.8572 17.733 18.7699 17.5937L18.7683 17.5912C18.6785 17.4536 18.5611 17.3361 18.4235 17.2462C18.2863 17.1565 18.1319 17.0962 17.9701 17.0691C17.3909 16.9664 16.9892 16.7533 16.7555 16.4644C17.4948 16.4478 18.2287 16.3291 18.9362 16.1112L18.9408 16.1096C19.1008 16.055 19.2386 15.9499 19.3336 15.81C19.4285 15.6702 19.4753 15.5032 19.4669 15.3344L19.4012 14.0022C19.8362 13.8202 20.2273 13.5463 20.5474 13.1988L20.5484 13.1976C20.7867 12.9339 20.9329 12.5998 20.965 12.2458C20.997 11.8918 20.9133 11.5368 20.7263 11.2345L20.7219 11.2282C20.5193 10.9332 20.2403 10.699 19.9148 10.5506C19.4538 10.3139 19.0633 9.95996 18.7823 9.52444C18.5008 9.08805 18.3393 8.58516 18.3142 8.06646C18.3007 7.73054 18.2681 7.39565 18.2164 7.06345L18.2162 7.06245C17.9986 5.71905 17.4673 4.2345 16.2815 3.08549C15.0928 1.93366 13.2656 1.13751 10.4939 1.13751H10.3929Z" fill="#272727"/>
<path d="M23.2498 13.5376C23.1486 13.5231 23.0456 13.5287 22.9466 13.5541C22.8476 13.5795 22.7545 13.6241 22.6728 13.6854C22.591 13.7467 22.5221 13.8236 22.4701 13.9115C22.418 13.9994 22.3837 14.0968 22.3693 14.198C22.3548 14.2991 22.3604 14.4022 22.3858 14.5012C22.4112 14.6002 22.4558 14.6932 22.5171 14.775L22.5178 14.7759C22.8342 15.1917 23.0657 15.6658 23.1989 16.171C23.3321 16.6762 23.3644 17.2028 23.2941 17.7205C23.2238 18.2383 23.0522 18.7371 22.789 19.1885C22.5259 19.6399 22.1764 20.0351 21.7605 20.3514L21.639 20.4438L21.652 20.4632C21.6188 20.5005 21.5892 20.541 21.5636 20.5842C21.5115 20.6721 21.4773 20.7695 21.4628 20.8707C21.4484 20.9718 21.454 21.0749 21.4794 21.1739C21.5047 21.2729 21.5494 21.3659 21.6107 21.4477C21.672 21.5295 21.7488 21.5984 21.8368 21.6504C21.9247 21.7025 22.0221 21.7367 22.1232 21.7512C22.2244 21.7656 22.3275 21.76 22.4265 21.7347C22.5255 21.7093 22.6185 21.6647 22.7003 21.6034L22.7009 21.6029C23.2809 21.1632 23.7685 20.6136 24.1357 19.9853C24.503 19.3571 24.7427 18.6625 24.8413 17.9415C24.9398 17.2205 24.8952 16.4871 24.7099 15.7833C24.5247 15.0797 24.2026 14.4196 23.762 13.8406C23.7008 13.759 23.6241 13.6903 23.5363 13.6383C23.4483 13.5863 23.351 13.552 23.2498 13.5376Z" fill="#272727"/>
<path d="M21.135 14.8134C21.032 14.7998 20.9273 14.8069 20.8271 14.8344C20.7273 14.8617 20.634 14.9087 20.5526 14.9725C20.389 15.0973 20.2815 15.2817 20.2536 15.4856C20.2256 15.6898 20.2799 15.897 20.4044 16.0614C20.6903 16.438 20.8152 16.9125 20.7517 17.3811C20.6882 17.8493 20.4417 18.2734 20.0663 18.5603C19.9847 18.6215 19.9161 18.6982 19.8641 18.786C19.812 18.8739 19.7778 18.9713 19.7633 19.0724C19.7489 19.1736 19.7545 19.2766 19.7799 19.3756C19.8052 19.4747 19.8499 19.5677 19.9112 19.6495C19.9725 19.7312 20.0493 19.8001 20.1373 19.8522C20.2252 19.9043 20.3226 19.9385 20.4237 19.953C20.5249 19.9674 20.628 19.9618 20.727 19.9364C20.826 19.9111 20.9193 19.8663 21.001 19.8049C21.3521 19.5405 21.6476 19.2095 21.8706 18.8307C22.0935 18.452 22.2396 18.033 22.3005 17.5977C22.3613 17.1624 22.3357 16.7194 22.2251 16.2941C22.1146 15.8689 21.9213 15.4697 21.6564 15.1192C21.5943 15.0361 21.5163 14.9663 21.4268 14.9138C21.3372 14.8612 21.238 14.827 21.135 14.8134Z" fill="#272727"/>
</svg>
