<svg width="30" height="30" viewBox="0 0 30 30" fill="none" xmlns="http://www.w3.org/2000/svg">
<path d="M4.09957 2.56738C3.67643 2.14425 2.9904 2.14425 2.56726 2.56738C2.14413 2.99052 2.14413 3.67656 2.56726 4.09969L26.6503 28.1827C27.0734 28.6058 27.7594 28.6058 28.1826 28.1827C28.6057 27.7595 28.6057 27.0735 28.1826 26.6504L4.09957 2.56738Z" fill="#272727"/>
<path d="M5.56298 15.0989C3.81508 13.351 3.31858 10.7964 4.10567 8.59552L2.70684 7.1967C1.25992 10.1965 1.77788 13.9183 4.26073 16.4011C6.74099 18.8814 10.4537 19.409 13.4663 17.9562L12.0688 16.5587C9.8787 17.3468 7.32128 16.8572 5.56298 15.0989Z" fill="#272727"/>
<path d="M14.3488 25.1869C15.5943 23.9415 16.2032 22.295 16.1723 20.6622L17.857 22.3469C17.5605 23.8671 16.8242 25.316 15.651 26.4892C12.5137 29.6266 7.39808 29.6266 4.26073 26.4892C3.90466 26.1331 3.90466 25.543 4.26073 25.1869L8.73907 20.7086C9.09514 20.3525 9.68526 20.3525 10.0413 20.7086C10.3974 21.0647 10.3974 21.6548 10.0413 22.0109L6.25629 25.7959C8.69701 27.6028 12.1571 27.3787 14.3488 25.1869Z" fill="#272727"/>
<path d="M17.6076 13.118L19.1312 14.6415C21.0079 14.3682 22.9921 14.9564 24.4368 16.4011C25.8738 17.8381 26.465 19.8203 26.1925 21.7029L27.7186 23.2289C28.5926 20.4534 27.9328 17.2926 25.7391 15.0989C23.5467 12.9065 20.3913 12.2398 17.6076 13.118Z" fill="#272727"/>
<path d="M13.9536 9.464L12.4663 7.9767C12.8551 6.89269 13.483 5.87666 14.3488 5.01082C17.4861 1.87347 22.6017 1.87347 25.7391 5.01082C26.0952 5.36689 26.0952 5.95701 25.7391 6.31308L21.2608 10.7914C20.9047 11.1475 20.3146 11.1475 19.9585 10.7914C19.6024 10.4354 19.6024 9.84523 19.9585 9.48917L23.7435 5.70413C21.3028 3.89722 17.8428 4.12134 15.651 6.31308C14.7564 7.20772 14.1902 8.30924 13.9536 9.464Z" fill="#272727"/>
</svg>
