<svg width="26" height="26" viewBox="0 0 26 26" fill="none" xmlns="http://www.w3.org/2000/svg">
<path d="M25.8987 24.8617L13.9518 4.58208L15.9804 1.13855C16.2008 0.764444 16.0503 0.296597 15.6443 0.0935734C15.2383 -0.109552 14.7305 0.029132 14.5102 0.403237L13 2.96673L11.4899 0.403187C11.2695 0.0290813 10.7616 -0.109501 10.3557 0.0935226C9.94971 0.296546 9.7993 0.764394 10.0196 1.1385L12.0485 4.58248L0.101325 24.8617C-0.0393819 25.1005 -0.033154 25.3899 0.117584 25.6234C0.268377 25.8569 0.541468 26 0.83644 26H18.1117C18.1133 26 25.1636 26 25.1636 26C25.4585 26 25.7316 25.8569 25.8825 25.6234C26.0332 25.39 26.0393 25.1005 25.8987 24.8617ZM9.28982 24.4587L13 18.1607L16.7101 24.4587H9.28982ZM18.6136 24.4587L13.7352 16.1776C13.5888 15.9292 13.3068 15.7746 13.0001 15.7746C12.6934 15.7746 12.4112 15.9292 12.2649 16.1776L7.38656 24.4587H2.24219L13.0003 6.19778L23.7579 24.4587H18.6136Z" fill="#272727"/>
</svg>
