<svg width="22" height="20" viewBox="0 0 22 20" fill="none" xmlns="http://www.w3.org/2000/svg">
<path fill-rule="evenodd" clip-rule="evenodd" d="M12.4888 3.23911C11.8931 2.37824 11.0329 1.52312 9.82931 1.11757C8.62274 0.711024 7.09045 0.762748 5.16569 1.67987L5.09556 1.71328C1.65293 3.35365 0.0443544 6.93225 1.29868 10.2397C1.79096 11.5505 2.68677 12.6712 3.85699 13.4402L3.85836 13.4411C4.75536 14.0139 5.49465 14.8022 6.00879 15.734C6.52245 16.6651 6.79503 17.7097 6.80173 18.773C6.79859 18.8524 6.81131 18.9317 6.83914 19.0062C6.86738 19.0818 6.91059 19.1508 6.96619 19.2093C7.02179 19.2677 7.08862 19.3143 7.16268 19.3463C7.23674 19.3783 7.31649 19.3949 7.39716 19.3953C7.47782 19.3957 7.55773 19.3798 7.63208 19.3485C7.70643 19.3172 7.7737 19.2712 7.82984 19.2133C7.88598 19.1554 7.92984 19.0867 7.95878 19.0114C7.98747 18.9368 8.00091 18.8571 7.99832 18.7772C7.99225 17.5152 7.67066 16.2748 7.06283 15.1688C6.45483 14.0625 5.57974 13.1259 4.51725 12.4442C3.55642 11.8121 2.82153 10.8908 2.41885 9.81349L2.41861 9.81285C1.39512 7.11964 2.72479 4.16927 5.61404 2.79259L5.67903 2.76162C6.96921 2.14687 8.08153 1.94459 9.03733 2.13603C9.98988 2.32681 10.8068 2.91264 11.5007 3.91534C11.6228 4.0949 11.7343 4.28147 11.8346 4.47407L11.8353 4.4755C12.1222 5.00951 12.5445 5.45872 13.0597 5.77808C13.575 6.09745 14.1651 6.27591 14.771 6.29526L14.7774 6.29514C14.8411 6.29393 14.9046 6.30235 14.9657 6.32009C14.9745 6.3283 14.9813 6.33844 14.9857 6.34977C14.9912 6.36429 14.9924 6.38011 14.9891 6.39525C14.8921 6.67424 14.7174 6.91967 14.4855 7.10275L14.4815 7.10622C14.3786 7.19481 14.3089 7.31574 14.2838 7.44917C14.2587 7.58261 14.2796 7.72061 14.3433 7.84055L14.3436 7.84114L14.8096 8.70782C14.4891 8.94654 14.1419 9.14733 13.7749 9.30611C13.6326 9.36679 13.5071 9.46078 13.4088 9.58015C13.3106 9.69951 13.2424 9.84075 13.2102 9.99194C13.1767 10.1465 13.181 10.3069 13.2227 10.4595C13.2644 10.612 13.3423 10.7522 13.4497 10.8682C13.7704 11.2157 14.4668 11.7183 15.6595 11.4899C15.7245 11.7915 15.8454 12.0783 16.0162 12.3355L16.0193 12.3401L16.0227 12.3444C16.0382 12.3638 16.0549 12.3822 16.0726 12.3996C16.1346 12.4608 16.1825 12.5349 16.213 12.6165C16.2436 12.6983 16.256 12.7857 16.2493 12.8727L16.2492 12.8737C16.2434 12.9592 16.2187 13.0423 16.177 13.1171C16.1353 13.1919 16.0774 13.2567 16.0078 13.3067C15.4327 13.7211 14.8039 14.0555 14.1387 14.3005L14.1365 14.3014C13.4843 14.5556 12.7865 14.6718 12.0871 14.6429L12.0836 14.6428C11.6578 14.6373 11.2398 14.5279 10.8659 14.3242C10.7995 14.2841 10.726 14.2573 10.6494 14.2452C10.5717 14.233 10.4924 14.2362 10.416 14.2547C10.3395 14.2731 10.2675 14.3064 10.2039 14.3527C10.1404 14.399 10.0865 14.4573 10.0455 14.5244C10.0045 14.5915 9.97711 14.666 9.9649 14.7437C9.95268 14.8214 9.95589 14.9007 9.97433 14.9772C9.99277 15.0536 10.0261 15.1257 10.0724 15.1892C10.1187 15.2528 10.177 15.3067 10.2441 15.3477L10.2479 15.3498C10.7913 15.6562 11.402 15.8235 12.0257 15.8367C12.3812 15.8545 12.7376 15.8392 13.0902 15.7913L13.7369 17.1485C13.8052 17.2918 13.9276 17.4022 14.0773 17.4552C14.2269 17.5083 14.3915 17.4997 14.5349 17.4314C14.6782 17.3631 14.7885 17.2407 14.8416 17.091C14.8947 16.9414 14.8861 16.7768 14.8178 16.6334L14.2856 15.5165C14.3739 15.4878 14.4623 15.4569 14.5505 15.4233C15.3177 15.1405 16.0433 14.7546 16.7067 14.2766C16.9138 14.1263 17.0865 13.9335 17.213 13.7111C17.3395 13.4886 17.417 13.2417 17.4402 12.9868C17.4634 12.7319 17.4319 12.475 17.3476 12.2334C17.2653 11.9972 17.1345 11.7808 16.9637 11.5982C16.899 11.4761 16.8503 11.3462 16.8188 11.2117L16.7714 10.9773L16.7713 10.9767C16.7474 10.8527 16.6984 10.7349 16.6274 10.6305C16.5563 10.526 16.4646 10.437 16.3579 10.3691L16.3559 10.3679C16.248 10.3021 16.1277 10.2593 16.0024 10.2424C15.8773 10.2255 15.7502 10.2347 15.6288 10.2695C15.1927 10.3898 14.8432 10.3747 14.5854 10.2514C15.0932 9.99527 15.5636 9.67001 15.9828 9.28457L15.9855 9.28196C16.0785 9.19114 16.1395 9.0725 16.1591 8.94398C16.1788 8.81545 16.156 8.68403 16.0944 8.56957L15.6079 7.66618C15.8498 7.39586 16.0307 7.07625 16.138 6.729L16.1383 6.72787C16.2166 6.46585 16.2075 6.18551 16.1127 5.92905C16.0178 5.6726 15.8422 5.45379 15.6123 5.30578L15.6071 5.3028C15.3689 5.165 15.0976 5.09468 14.8225 5.09936C14.424 5.08747 14.0357 4.97095 13.6965 4.76148C13.3566 4.55159 13.0781 4.25581 12.889 3.90395C12.7685 3.67512 12.635 3.45336 12.4892 3.23975L12.4888 3.23911ZM14.9891 6.39525L14.9908 6.39013L14.9883 6.39867L14.9891 6.39525ZM14.9657 6.32009C14.964 6.31847 14.9622 6.31692 14.9603 6.31546C14.9586 6.31411 14.9568 6.31283 14.9549 6.31163L14.9849 6.32598C14.9785 6.32391 14.9721 6.32195 14.9657 6.32009ZM6.80173 18.773L6.80188 18.7696L6.80175 18.776L6.80173 18.773Z" fill="#272727"/>
<path d="M19.0684 4.87042C18.752 4.65736 18.3296 4.74829 18.123 5.05956L18.1224 5.06045L16.8217 7.05751C16.6113 7.3768 16.7106 7.79512 17.0149 8C17.3312 8.21238 17.7533 8.1222 17.96 7.81063L17.9606 7.80974L19.2611 5.81291C19.4721 5.49325 19.3726 5.0752 19.0684 4.87042Z" fill="#272727"/>
<path d="M21.2588 7.77471C21.1218 7.41865 20.7236 7.25086 20.3759 7.38737L20.3749 7.38777L18.164 8.27761C17.8085 8.41845 17.6499 8.81809 17.7816 9.16047C17.9189 9.51581 18.3163 9.68405 18.6644 9.54741L18.6654 9.54701L20.8762 8.65722C21.2323 8.51632 21.3905 8.11686 21.2588 7.77471Z" fill="#272727"/>
<path d="M17.8278 10.5117C17.9162 10.1556 18.2754 9.91932 18.6474 10.0079L20.9698 10.5474C21.333 10.635 21.5629 11.0008 21.4709 11.3711C21.3825 11.7268 21.0239 11.9633 20.6514 11.8746L20.6509 11.8744L18.3299 11.3353L18.3289 11.3351C17.9654 11.2474 17.7364 10.8814 17.8278 10.5117Z" fill="#272727"/>
</svg>
