<svg width="26" height="26" viewBox="0 0 26 26" fill="none" xmlns="http://www.w3.org/2000/svg">
<path d="M22.3072 22.3072C25.0262 19.5882 25.0262 15.1547 22.3072 12.4357C19.7949 9.92342 15.8237 9.72269 13.0673 11.872C11.4689 9.7745 11.6398 6.74569 13.5642 4.82133C15.4637 2.92183 18.4624 2.72759 20.5777 4.29358L17.2973 7.57393C16.9887 7.88251 16.9887 8.39395 17.2973 8.70254C17.6059 9.01113 18.1174 9.01113 18.426 8.70254L22.3072 4.82133C22.6158 4.51274 22.6158 4.0013 22.3072 3.69271C19.5881 0.973685 15.1546 0.973686 12.4356 3.69271C9.92334 6.20495 9.72261 10.1761 11.8719 12.9326C9.77442 14.531 6.74559 14.36 4.82122 12.4357C2.92172 10.5362 2.72748 7.53747 4.29347 5.42219L7.57383 8.70254C7.88242 9.01113 8.39386 9.01113 8.70245 8.70254C9.01104 8.39395 9.01104 7.88251 8.70245 7.57392L4.82122 3.69271C4.51263 3.38412 4.00119 3.38412 3.6926 3.69271C0.97356 6.41174 0.973561 10.8452 3.6926 13.5643C6.20484 16.0765 10.1761 16.2772 12.9325 14.1279C14.5309 16.2254 14.3599 19.2542 12.4356 21.1786C10.5361 23.0781 7.53738 23.2723 5.42209 21.7063L8.70245 18.426C9.01104 18.1174 9.01104 17.606 8.70245 17.2974C8.39386 16.9888 7.88242 16.9888 7.57383 17.2974L3.6926 21.1786C3.38401 21.4872 3.38401 21.9986 3.6926 22.3072C6.41164 25.0262 10.8452 25.0262 13.5642 22.3072C16.0764 19.795 16.2772 15.8238 14.1278 13.0673C16.2254 11.4689 19.2542 11.6399 21.1786 13.5643C23.0781 15.4638 23.2723 18.4625 21.7063 20.5777L18.426 17.2974C18.1174 16.9888 17.6059 16.9888 17.2973 17.2974C16.9887 17.606 16.9887 18.1174 17.2973 18.426L21.1786 22.3072C21.4872 22.6158 21.9986 22.6158 22.3072 22.3072Z" fill="#272727"/>
</svg>
