<svg width="26" height="26" viewBox="0 0 26 26" fill="none" xmlns="http://www.w3.org/2000/svg">
<path fill-rule="evenodd" clip-rule="evenodd" d="M16.0152 13.3533C16.0136 13.3525 16.012 13.3516 16.0104 13.3508C15.9465 13.3175 15.8817 13.2856 15.8161 13.2551C15.8629 13.1977 15.9079 13.139 15.9511 13.0792C15.9722 13.05 15.9929 13.0205 16.0132 12.9908M17.6582 18.4167H7.90824C7.80865 18.4167 7.7099 18.3972 7.61788 18.3591C7.52587 18.321 7.44226 18.2651 7.37184 18.1947C7.30143 18.1243 7.24558 18.0407 7.2075 17.9487C7.16944 17.8567 7.14987 17.7582 7.1499 17.6587C7.15238 16.7741 7.40688 15.9086 7.88359 15.1636C8.36034 14.4184 9.03959 13.8246 9.84175 13.4516L10.0942 13.3342L9.91841 13.1183C9.39242 12.4724 9.10355 11.6658 9.0999 10.8328C9.10003 9.85614 9.48808 8.91946 10.1787 8.22882C10.8695 7.53806 11.8064 7.14999 12.7832 7.14999C13.7601 7.14999 14.697 7.53806 15.3877 8.22882C16.0784 8.91945 16.4664 9.85611 16.4666 10.8328C16.4629 11.6658 16.1741 12.4724 15.6481 13.1183L15.4722 13.3342L15.7247 13.4516C16.5269 13.8246 17.2061 14.4184 17.6829 15.1636C18.1596 15.9086 18.4141 16.7741 18.4166 17.6587C18.4166 17.7582 18.397 17.8567 18.359 17.9487C18.3209 18.0407 18.265 18.1243 18.1946 18.1947C18.1242 18.2651 18.0406 18.321 17.9486 18.3591C17.8566 18.3972 17.7578 18.4167 17.6582 18.4167ZM13.987 9.03181C13.6307 8.79373 13.2118 8.66666 12.7832 8.66666C12.2089 8.66741 11.658 8.89589 11.2519 9.302C10.8458 9.70812 10.6173 10.259 10.6166 10.8333C10.6166 11.2619 10.7436 11.6808 10.9817 12.0371C11.2198 12.3934 11.5582 12.6711 11.9541 12.8351C12.35 12.9991 12.7856 13.042 13.2059 12.9584C13.6262 12.8748 14.0123 12.6684 14.3153 12.3654C14.6183 12.0624 14.8247 11.6763 14.9083 11.256C14.9919 10.8357 14.949 10.4001 14.785 10.0042C14.621 9.60827 14.3433 9.26989 13.987 9.03181ZM15.5717 15.0941C15.0413 14.7192 14.408 14.5175 13.7585 14.5167H11.808C11.1585 14.5175 10.5252 14.7192 9.99481 15.0941C9.46447 15.469 9.06309 15.9988 8.8457 16.6108L8.74297 16.9H16.8235L16.7208 16.6108C16.5034 15.9988 16.102 15.469 15.5717 15.0941Z" fill="#272727"/>
</svg>
