<svg width="36" height="30" viewBox="0 0 36 30" fill="none" xmlns="http://www.w3.org/2000/svg">
<path d="M23.25 10.3125H12.7446L12.6463 10.3182L12.6409 10.3188C12.1745 10.373 11.8125 10.7691 11.8125 11.25C11.8125 11.7678 12.2322 12.1875 12.75 12.1875H23.2554L23.3537 12.1818L23.3591 12.1812C23.8256 12.127 24.1875 11.7309 24.1875 11.25C24.1875 10.7322 23.7678 10.3125 23.25 10.3125Z" fill="#272727"/>
<path d="M24.75 14.0625H11.2446L11.1463 14.0682L11.1409 14.0688C10.6745 14.123 10.3125 14.5191 10.3125 15C10.3125 15.5178 10.7322 15.9375 11.25 15.9375H24.7554L24.8537 15.9318L24.8591 15.9312C25.3256 15.877 25.6875 15.4809 25.6875 15C25.6875 14.4822 25.2678 14.0625 24.75 14.0625Z" fill="#272727"/>
<path d="M23.25 17.8125H12.7446L12.6463 17.8182L12.6409 17.8188C12.1745 17.873 11.8125 18.2691 11.8125 18.75C11.8125 19.2678 12.2322 19.6875 12.75 19.6875H23.2554L23.3537 19.6818L23.3591 19.6812C23.8256 19.627 24.1875 19.2309 24.1875 18.75C24.1875 18.2322 23.7678 17.8125 23.25 17.8125Z" fill="#272727"/>
<path fill-rule="evenodd" clip-rule="evenodd" d="M27.1241 5.84248C24.8266 5.3194 21.7864 5.0625 18 5.0625L17.5304 5.06384C13.9617 5.08438 11.0778 5.34112 8.87589 5.84244L8.70824 5.88451L8.7042 5.88562C7.04032 6.34332 5.86472 7.83602 5.8142 9.56562L5.81318 9.56565C2.89657 9.66418 0.5625 12.0595 0.5625 15C0.5625 17.9411 2.89763 20.3369 5.81504 20.4344L5.81626 20.4911L5.81644 20.4953C5.89507 22.2577 7.14169 23.7627 8.87591 24.1575C11.1734 24.6806 14.2136 24.9375 18 24.9375C21.7864 24.9375 24.8266 24.6806 27.1241 24.1575C28.8783 23.7581 30.1336 22.2229 30.1858 20.4344L30.1868 20.4343C33.1034 20.3358 35.4375 17.9405 35.4375 15C35.4375 12.0589 33.1024 9.6631 30.185 9.56559L30.1838 9.50893L30.1836 9.50475C30.1049 7.74231 28.8583 6.23731 27.1241 5.84248ZM9.29214 7.6707C11.3362 7.20532 14.0879 6.95855 17.5448 6.93879H18.4552C21.9121 6.95855 24.6638 7.20532 26.7079 7.6707C27.6465 7.88441 28.3125 8.71905 28.3125 9.68173V20.3154L28.3086 20.4459C28.2528 21.3539 27.6048 22.1251 26.7079 22.3293C24.5747 22.815 21.671 23.0625 18 23.0625C14.329 23.0625 11.4253 22.815 9.29214 22.3293C8.35348 22.1156 7.6875 21.281 7.6875 20.3183V9.68455L7.69142 9.55409C7.74724 8.64609 8.39523 7.8749 9.29214 7.6707ZM2.4375 15C2.4375 13.0954 3.93222 11.5398 5.8125 11.4423V18.5577C3.93222 18.4602 2.4375 16.9046 2.4375 15ZM33.5625 15C33.5625 13.0954 32.0678 11.5398 30.1875 11.4423V18.5577C32.0678 18.4602 33.5625 16.9046 33.5625 15Z" fill="#272727"/>
</svg>
