<svg width="30" height="30" viewBox="0 0 30 30" fill="none" xmlns="http://www.w3.org/2000/svg">
<path d="M29.8831 28.6866L16.0983 5.28701L18.439 1.31371C18.6932 0.882047 18.5196 0.342222 18.0512 0.107965C17.5826 -0.12641 16.9968 0.0336092 16.7425 0.465269L15 3.42314L13.2575 0.465211C13.0033 0.0335506 12.4173 -0.126352 11.9489 0.107906C11.4804 0.342164 11.3069 0.881988 11.5611 1.31365L13.9021 5.28748L0.116913 28.6866C-0.0454407 28.9622 -0.0382546 29.2961 0.135674 29.5655C0.309665 29.8349 0.624771 30 0.965123 30H20.8981C20.9 30 29.035 30 29.035 30C29.3752 30 29.6904 29.8349 29.8644 29.5655C30.0383 29.2961 30.0454 28.9621 29.8831 28.6866ZM10.719 28.2216L15 20.9547L19.2809 28.2216H10.719ZM21.4772 28.2216L15.8483 18.6664C15.6794 18.3798 15.354 18.2014 15.0001 18.2014C14.6462 18.2014 14.3206 18.3798 14.1519 18.6664L8.52295 28.2216H2.58714L15.0003 7.15128L27.4129 28.2216H21.4772Z" fill="#272727"/>
</svg>
