<svg width="48" height="30" viewBox="0 0 48 30" fill="none" xmlns="http://www.w3.org/2000/svg">
<path d="M10.9792 15.4076C10.9773 15.4067 10.9755 15.4057 10.9737 15.4048C10.8999 15.3664 10.8251 15.3296 10.7494 15.2944C10.8034 15.2281 10.8554 15.1604 10.9052 15.0914C10.9296 15.0577 10.9535 15.0237 10.9769 14.9893" fill="#272727"/>
<path fill-rule="evenodd" clip-rule="evenodd" d="M12.875 21.25H1.625C1.5101 21.2501 1.39615 21.2275 1.28997 21.1835C1.18381 21.1396 1.08734 21.0752 1.00608 20.9939C0.924835 20.9127 0.860396 20.8162 0.816454 20.71C0.772546 20.6039 0.749965 20.4902 0.75 20.3754C0.75286 19.3548 1.04651 18.3561 1.59656 17.4964C2.14666 16.6366 2.93041 15.9514 3.85597 15.5211L4.14729 15.3856L3.94443 15.1365C3.33752 14.3912 3.00421 13.4606 3 12.4994C3.00015 11.3725 3.4479 10.2917 4.2448 9.4948C5.04183 8.69777 6.12283 8.25 7.25 8.25C8.37717 8.25 9.45817 8.69777 10.2552 9.4948C11.0521 10.2917 11.4998 11.3724 11.5 12.4994C11.4958 13.4605 11.1625 14.3912 10.5556 15.1365L10.3527 15.3856L10.644 15.5211C11.5696 15.9514 12.3533 16.6366 12.9034 17.4964C13.4535 18.3561 13.7471 19.3548 13.75 20.3754C13.75 20.4902 13.7275 20.6039 13.6835 20.71C13.6396 20.8162 13.5752 20.9127 13.4939 20.9939C13.4127 21.0752 13.3162 21.1396 13.21 21.1835C13.1039 21.2275 12.9899 21.2501 12.875 21.25ZM8.63893 10.4213C8.2278 10.1466 7.74445 10 7.25 10C6.58731 10.0009 5.95168 10.2645 5.48309 10.7331C5.01449 11.2017 4.75086 11.8373 4.75 12.5C4.75 12.9945 4.89662 13.4778 5.17133 13.8889C5.44603 14.3 5.83648 14.6205 6.29329 14.8097C6.75011 14.9989 7.25277 15.0484 7.73773 14.952C8.22268 14.8555 8.66814 14.6174 9.01777 14.2678C9.3674 13.9181 9.6055 13.4727 9.70196 12.9877C9.79843 12.5028 9.74892 12.0001 9.5597 11.5433C9.37048 11.0865 9.05005 10.696 8.63893 10.4213ZM10.4674 17.4163C9.85548 16.9837 9.12471 16.7509 8.37531 16.75H6.12469C5.37529 16.7509 4.64452 16.9837 4.03259 17.4163C3.42066 17.8489 2.95752 18.4601 2.70668 19.1663L2.58816 19.5H11.9118L11.7933 19.1663C11.5425 18.4601 11.0793 17.8489 10.4674 17.4163Z" fill="#272727"/>
<path d="M44.4792 15.4076C44.4773 15.4067 44.4755 15.4057 44.4737 15.4048C44.3999 15.3664 44.3251 15.3296 44.2494 15.2944C44.3034 15.2281 44.3554 15.1604 44.4052 15.0914C44.4296 15.0577 44.4535 15.0237 44.4769 14.9893" fill="#272727"/>
<path fill-rule="evenodd" clip-rule="evenodd" d="M46.375 21.25H35.125C35.0101 21.2501 34.8962 21.2275 34.79 21.1835C34.6838 21.1396 34.5873 21.0752 34.5061 20.9939C34.4248 20.9127 34.3604 20.8162 34.3165 20.71C34.2725 20.6039 34.25 20.4902 34.25 20.3754C34.2529 19.3548 34.5465 18.3561 35.0966 17.4964C35.6467 16.6366 36.4304 15.9514 37.356 15.5211L37.6473 15.3856L37.4444 15.1365C36.8375 14.3913 36.5042 13.4606 36.5 12.4995C36.5001 11.3725 36.9479 10.2917 37.7448 9.4948C38.5418 8.69777 39.6228 8.25 40.75 8.25C41.8772 8.25 42.9582 8.69777 43.7552 9.4948C44.5521 10.2917 44.9998 11.3724 45 12.4994C44.9958 13.4605 44.6625 14.3912 44.0556 15.1365L43.8527 15.3856L44.144 15.5211C45.0696 15.9514 45.8533 16.6366 46.4034 17.4964C46.9535 18.3561 47.2471 19.3548 47.25 20.3754C47.25 20.4902 47.2275 20.6039 47.1835 20.71C47.1396 20.8162 47.0752 20.9127 46.9939 20.9939C46.9127 21.0752 46.8162 21.1396 46.71 21.1835C46.6039 21.2275 46.4899 21.2501 46.375 21.25ZM42.1389 10.4213C41.7278 10.1466 41.2445 10 40.75 10C40.0873 10.0009 39.4517 10.2645 38.9831 10.7331C38.5145 11.2017 38.2509 11.8373 38.25 12.5C38.25 12.9945 38.3966 13.4778 38.6713 13.8889C38.946 14.3 39.3365 14.6205 39.7933 14.8097C40.2501 14.9989 40.7528 15.0484 41.2377 14.952C41.7227 14.8555 42.1681 14.6174 42.5178 14.2678C42.8674 13.9181 43.1055 13.4727 43.202 12.9877C43.2984 12.5028 43.2489 12.0001 43.0597 11.5433C42.8705 11.0865 42.5501 10.696 42.1389 10.4213ZM43.9674 17.4163C43.3555 16.9837 42.6247 16.7509 41.8753 16.75H39.6247C38.8753 16.7509 38.1445 16.9837 37.5326 17.4163C36.9207 17.8489 36.4575 18.4601 36.2067 19.1663L36.0882 19.5H45.4118L45.2933 19.1663C45.0425 18.4601 44.5793 17.8489 43.9674 17.4163Z" fill="#272727"/>
<path fill-rule="evenodd" clip-rule="evenodd" d="M19.5 13.625C19.5 13.0727 19.0523 12.625 18.5 12.625C17.9477 12.625 17.5 13.0727 17.5 13.625V17.5C17.5 18.0523 17.9477 18.5 18.5 18.5C19.0523 18.5 19.5 18.0523 19.5 17.5V16.5H28.5V17.5C28.5 18.0523 28.9477 18.5 29.5 18.5C30.0523 18.5 30.5 18.0523 30.5 17.5V13.625C30.5 13.0727 30.0523 12.625 29.5 12.625C28.9477 12.625 28.5 13.0727 28.5 13.625V14.5H19.5V13.625Z" fill="#272727"/>
</svg>
