<svg width="20" height="20" viewBox="0 0 20 20" fill="none" xmlns="http://www.w3.org/2000/svg">
<path fill-rule="evenodd" clip-rule="evenodd" d="M9.51098 0.875C5.42001 0.875 2.21218 3.59811 1.90085 7.37842C1.77274 8.87466 2.12303 10.3729 2.90125 11.6573L2.90211 11.6587C3.50792 12.6296 3.86097 13.7368 3.92903 14.8792C3.99703 16.0206 3.77839 17.1609 3.29304 18.1962C3.25381 18.2707 3.22982 18.3523 3.2225 18.4362C3.21508 18.5213 3.22492 18.607 3.25144 18.6881C3.27795 18.7693 3.32059 18.8442 3.3768 18.9085C3.43301 18.9728 3.50163 19.025 3.57853 19.0621C3.65543 19.0992 3.73904 19.1204 3.82432 19.1243C3.90961 19.1283 3.99481 19.115 4.07483 19.0852C4.15484 19.0554 4.22801 19.0098 4.28994 18.951C4.35138 18.8927 4.4005 18.8227 4.43441 18.7451C5.01084 17.5202 5.27179 16.1707 5.19351 14.8192C5.1152 13.4674 4.69994 12.1566 3.98557 11.0063C3.3451 9.94802 3.05781 8.71345 3.16525 7.48112L3.1653 7.48044C3.4176 4.39127 6.07417 2.14234 9.51505 2.14234H9.59237C11.1282 2.14234 12.3022 2.46028 13.1425 3.08898C13.9801 3.71567 14.5024 4.66332 14.7122 5.95762C14.7477 6.1885 14.7697 6.42126 14.7779 6.65471L14.778 6.65633C14.8094 7.30492 15.0107 7.93387 15.3618 8.48012C15.7129 9.02637 16.2014 9.47086 16.7784 9.76875L16.7842 9.77138C16.848 9.80032 16.907 9.83881 16.9592 9.8855C16.965 9.89939 16.9675 9.91453 16.9663 9.92968C16.9648 9.94832 16.9578 9.96608 16.9463 9.98073C16.7221 10.2079 16.4377 10.3661 16.1264 10.4369L16.1213 10.4383C15.9827 10.4761 15.861 10.5599 15.7762 10.676C15.6915 10.792 15.6487 10.9335 15.6549 11.077L15.655 11.0777L15.7102 12.213C15.6996 12.2331 15.6845 12.2623 15.6661 12.2989C15.6295 12.3721 15.5801 12.4755 15.5284 12.5967C15.427 12.8348 15.3133 13.1506 15.2762 13.4446L15.2543 13.5304L15.2534 13.5366L15.253 13.5387L15.2522 13.5445L15.249 13.5664C15.2463 13.5852 15.2426 13.6124 15.2382 13.6461C15.2295 13.7132 15.2183 13.8063 15.2086 13.9099C15.1896 14.1129 15.1748 14.3705 15.2003 14.5497L15.2011 14.5551L15.2023 14.5605C15.2083 14.586 15.2158 14.6112 15.2249 14.6359C15.2572 14.7252 15.2696 14.8204 15.2614 14.9151C15.2531 15.0098 15.2243 15.1015 15.177 15.184L15.1765 15.1848C15.1307 15.2662 15.0674 15.3363 14.9914 15.3904C14.9153 15.4445 14.8279 15.4811 14.736 15.4976C13.9863 15.6339 13.2214 15.6676 12.4625 15.5978L12.4602 15.5976C11.7092 15.5427 10.9778 15.3327 10.312 14.981L10.3089 14.9794C9.89721 14.7767 9.54132 14.4766 9.27211 14.105C9.22693 14.0364 9.16884 13.9773 9.10107 13.9309C9.03241 13.8838 8.95515 13.8508 8.87372 13.8336C8.79229 13.8164 8.70827 13.8154 8.62646 13.8307C8.54465 13.846 8.46665 13.8773 8.39692 13.9227C8.32719 13.9681 8.26709 14.0269 8.22005 14.0955C8.17302 14.1642 8.13996 14.2414 8.12278 14.3229C8.1056 14.4043 8.10463 14.4883 8.11992 14.5701C8.13521 14.6519 8.1664 14.73 8.21183 14.7997L8.21437 14.8033C8.5988 15.3501 9.11246 15.7934 9.70962 16.0936C10.0476 16.2759 10.4018 16.4262 10.7675 16.5428V18.1639C10.7675 18.332 10.8343 18.4932 10.9531 18.612C11.072 18.7308 11.2331 18.7976 11.4012 18.7976C11.5692 18.7976 11.7304 18.7308 11.8493 18.612C11.9681 18.4932 12.0349 18.332 12.0349 18.1639V16.8248C12.1369 16.8383 12.2402 16.8496 12.3446 16.8581C13.2182 16.9383 14.0991 16.8993 14.9622 16.7425C15.2312 16.6928 15.4864 16.5862 15.7107 16.4297C15.935 16.2732 16.1233 16.0706 16.2629 15.8354C16.4024 15.6002 16.4901 15.3378 16.5199 15.0659C16.5491 14.7998 16.5222 14.5305 16.441 14.2755C16.4346 14.126 16.4475 13.9763 16.4794 13.8301L16.5417 13.5808L16.5418 13.5803C16.5703 13.4706 16.5797 13.3569 16.5697 13.2444L16.5992 13.2134C16.7165 13.1666 16.8175 13.0857 16.8887 12.9807C16.966 12.8669 17.0041 12.7309 16.9973 12.5935L16.9427 11.4865C17.3032 11.3367 17.6272 11.1103 17.8922 10.8226L17.893 10.8217C18.0885 10.6054 18.2084 10.3313 18.2347 10.0408C18.261 9.75039 18.1924 9.45918 18.0389 9.21119L18.0355 9.20629C17.8691 8.96397 17.6399 8.77156 17.3724 8.6497C16.9901 8.45338 16.6662 8.1599 16.4332 7.79873C16.1998 7.43688 16.0659 7.01988 16.0451 6.58978C16.034 6.31263 16.007 6.03634 15.9644 5.76226L15.9642 5.76149C15.7846 4.65297 15.3464 3.42879 14.3688 2.48151C13.3889 1.53206 11.8821 0.875 9.5944 0.875H9.51098ZM12.3555 16.7335L12.3454 16.8581L12.3446 16.8581L12.344 16.858L12.3555 16.7335ZM15.3769 13.5554L15.2534 13.5366C15.2534 13.5366 15.2534 13.5365 15.3769 13.5554Z" fill="#272727"/>
</svg>
