<svg width="20" height="20" viewBox="0 0 20 20" fill="none" xmlns="http://www.w3.org/2000/svg">
<path d="M2.84949 13.4061C3.45038 13.4061 4.01895 13.1714 4.44821 12.7716V16.6454C3.11167 16.8236 1.84221 17.0636 0.676975 17.3703C0.550108 17.4037 0.474498 17.5336 0.507896 17.6604C0.541294 17.7875 0.671409 17.8634 0.798045 17.8297C1.92627 17.5328 3.15469 17.2992 4.44821 17.1244V19.2625C4.44821 19.3937 4.55444 19.5 4.68571 19.5C4.81698 19.5 4.92321 19.3937 4.92321 19.2625V17.0618C6.53287 16.8658 8.23978 16.7626 10 16.7626C11.7602 16.7626 13.4671 16.8658 15.0768 17.0618V19.2625C15.0768 19.3937 15.183 19.5 15.3143 19.5C15.4456 19.5 15.5518 19.3937 15.5518 19.2625V17.1244C16.8453 17.2992 18.0737 17.5328 19.202 17.8297C19.2224 17.8351 19.2425 17.8376 19.2627 17.8376C19.368 17.8375 19.464 17.767 19.4921 17.6604C19.5255 17.5336 19.4499 17.4037 19.323 17.3703C18.1578 17.0636 16.8883 16.8236 15.5518 16.6454V12.7716C15.9811 13.1714 16.5496 13.4061 17.1505 13.4061C18.4461 13.4061 19.5 12.352 19.5 11.0566C19.5 10.5239 19.3209 10.0143 18.9921 9.59991C19.3209 9.18568 19.5 8.67612 19.5 8.14337C19.5 7.61062 19.3209 7.10095 18.9921 6.68671C19.3209 6.27236 19.5 5.76269 19.5 5.23005C19.5 4.12095 18.7244 3.17338 17.6617 2.93797C17.6631 2.90793 17.6638 2.87859 17.6638 2.84949C17.6638 1.55402 16.6099 0.5 15.3143 0.5C14.0187 0.5 12.9648 1.55402 12.9648 2.84949C12.9648 2.87859 12.9655 2.90793 12.9669 2.93797C11.9042 3.17338 11.1286 4.12095 11.1286 5.23005C11.1286 5.76257 11.3076 6.27225 11.6365 6.68671C11.3076 7.10106 11.1286 7.61074 11.1286 8.14337C11.1286 8.67589 11.3076 9.18557 11.6365 9.59991C11.3076 10.0144 11.1286 10.5241 11.1286 11.0566C11.1286 12.352 12.1825 13.4061 13.4781 13.4061C14.0791 13.4061 14.6477 13.1714 15.0768 12.7717V16.5827C13.4648 16.389 11.7579 16.2876 10 16.2876C8.24212 16.2876 6.53523 16.389 4.92321 16.5827V12.7717C5.35235 13.1714 5.9209 13.4061 6.52193 13.4061C7.81751 13.4061 8.87141 12.352 8.87141 11.0566C8.87141 10.5241 8.69236 10.0144 8.36348 9.59991C8.69236 9.18557 8.87141 8.67589 8.87141 8.14337C8.87141 7.61074 8.69236 7.10106 8.36348 6.68671C8.69236 6.27225 8.87141 5.76257 8.87141 5.23005C8.87141 4.12095 8.09583 3.17338 7.03311 2.93797C7.0345 2.90793 7.0352 2.87859 7.0352 2.84949C7.0352 1.55402 5.98129 0.5 4.68571 0.5C3.39013 0.5 2.33623 1.55402 2.33623 2.84949C2.33623 2.87859 2.33692 2.90793 2.33831 2.93797C1.2756 3.17338 0.50001 4.12095 0.50001 5.23005C0.50001 5.76269 0.679063 6.27236 1.00794 6.68671C0.679063 7.10095 0.50001 7.61062 0.50001 8.14337C0.50001 8.67612 0.679063 9.18568 1.00794 9.59991C0.679063 10.0143 0.50001 10.5239 0.50001 11.0566C0.50001 12.352 1.55392 13.4061 2.84949 13.4061ZM13.4781 12.9311C12.4446 12.9311 11.6036 12.0902 11.6036 11.0566C11.6036 10.5742 11.7882 10.115 12.1231 9.76389C12.2106 9.67205 12.2106 9.52767 12.1231 9.43594C11.788 9.08479 11.6036 8.62579 11.6036 8.14337C11.6036 7.66083 11.788 7.20184 12.1231 6.85069C12.2106 6.75896 12.2106 6.61458 12.1231 6.52274C11.7882 6.17159 11.6036 5.71248 11.6036 5.23005C11.6036 4.28295 12.3124 3.48359 13.2522 3.37053C13.3155 3.36299 13.373 3.33029 13.4117 3.27996C13.4507 3.22963 13.4679 3.16573 13.4593 3.10264C13.4461 3.00569 13.4398 2.92533 13.4398 2.84949C13.4398 1.81588 14.2808 0.975 15.3143 0.975C16.3478 0.975 17.1888 1.81588 17.1888 2.84949C17.1888 2.92533 17.1825 3.00569 17.1693 3.10264C17.1607 3.16573 17.1779 3.22963 17.2168 3.27996C17.2556 3.33029 17.3131 3.36299 17.3764 3.37053C18.3162 3.48359 19.025 4.28295 19.025 5.23005C19.025 5.71271 18.8406 6.1717 18.5055 6.52274C18.418 6.61447 18.418 6.75896 18.5055 6.85069C18.8406 7.20161 19.025 7.6606 19.025 8.14337C19.025 8.62603 18.8406 9.08502 18.5055 9.43594C18.418 9.52767 18.418 9.67216 18.5055 9.76389C18.8406 10.1149 19.025 10.5739 19.025 11.0566C19.025 12.0902 18.184 12.9311 17.1505 12.9311C16.4975 12.9311 15.8916 12.585 15.5518 12.0272V7.76196C15.5518 7.6308 15.4456 7.52446 15.3143 7.52446C15.183 7.52446 15.0768 7.6308 15.0768 7.76196V12.0273C14.7372 12.585 14.1313 12.9311 13.4781 12.9311ZM1.49454 9.43594C1.1594 9.08502 0.97501 8.62603 0.97501 8.14337C0.97501 7.6606 1.1594 7.20161 1.49454 6.85069C1.58198 6.75896 1.58198 6.61447 1.49454 6.52274C1.1594 6.1717 0.97501 5.71271 0.97501 5.23005C0.97501 4.28295 1.6838 3.48359 2.62359 3.37053C2.68691 3.36299 2.74443 3.33029 2.78316 3.27996C2.82213 3.22963 2.83929 3.16573 2.83071 3.10264C2.81749 3.00569 2.81123 2.92533 2.81123 2.84949C2.81123 1.81588 3.65222 0.975 4.68571 0.975C5.71921 0.975 6.5602 1.81588 6.5602 2.84949C6.5602 2.92533 6.55393 3.00569 6.54071 3.10264C6.53213 3.16573 6.5493 3.22963 6.58826 3.27996C6.62699 3.33029 6.68451 3.36299 6.74783 3.37053C7.68762 3.48359 8.39641 4.28295 8.39641 5.23005C8.39641 5.71248 8.21179 6.17159 7.87688 6.52274C7.78944 6.61458 7.78944 6.75896 7.87688 6.85069C8.21203 7.20184 8.39641 7.66083 8.39641 8.14337C8.39641 8.62579 8.21203 9.08479 7.87688 9.43594C7.78944 9.52767 7.78944 9.67205 7.87688 9.76389C8.21179 10.115 8.39641 10.5742 8.39641 11.0566C8.39641 12.0902 7.55542 12.9311 6.52193 12.9311C5.86869 12.9311 5.26285 12.585 4.92321 12.0273V7.76196C4.92321 7.6308 4.81698 7.52446 4.68571 7.52446C4.55444 7.52446 4.44821 7.6308 4.44821 7.76196V12.0272C4.10837 12.585 3.50252 12.9311 2.84949 12.9311C1.816 12.9311 0.97501 12.0902 0.97501 11.0566C0.97501 10.5739 1.1594 10.1149 1.49454 9.76389C1.58198 9.67216 1.58198 9.52767 1.49454 9.43594Z" fill="#272727" stroke="#272727"/>
</svg>
