<svg width="30" height="30" viewBox="0 0 30 30" fill="none" xmlns="http://www.w3.org/2000/svg">
<path fill-rule="evenodd" clip-rule="evenodd" d="M18.4792 15.4076C18.4773 15.4067 18.4755 15.4057 18.4737 15.4048C18.3999 15.3664 18.3251 15.3296 18.2494 15.2944C18.3034 15.2281 18.3554 15.1604 18.4052 15.0914C18.4296 15.0577 18.4535 15.0237 18.4769 14.9893M20.375 21.25H9.125C9.0101 21.2501 8.89615 21.2275 8.78997 21.1835C8.68381 21.1396 8.58734 21.0752 8.50608 20.9939C8.42484 20.9127 8.3604 20.8162 8.31645 20.71C8.27255 20.6039 8.24997 20.4902 8.25 20.3754C8.25286 19.3548 8.54651 18.3561 9.09656 17.4964C9.64666 16.6366 10.4304 15.9514 11.356 15.5211L11.6473 15.3856L11.4444 15.1365C10.8375 14.3912 10.5042 13.4606 10.5 12.4994C10.5001 11.3725 10.9479 10.2917 11.7448 9.4948C12.5418 8.69777 13.6228 8.25 14.75 8.25C15.8772 8.25 16.9582 8.69777 17.7552 9.4948C18.5521 10.2917 18.9998 11.3724 19 12.4994C18.9958 13.4605 18.6625 14.3912 18.0556 15.1365L17.8527 15.3856L18.144 15.5211C19.0696 15.9514 19.8533 16.6366 20.4034 17.4964C20.9535 18.3561 21.2471 19.3548 21.25 20.3754C21.25 20.4902 21.2275 20.6039 21.1835 20.71C21.1396 20.8162 21.0752 20.9127 20.9939 20.9939C20.9127 21.0752 20.8162 21.1396 20.71 21.1835C20.6038 21.2275 20.4899 21.2501 20.375 21.25ZM16.1389 10.4213C15.7278 10.1466 15.2445 10 14.75 10C14.0873 10.0009 13.4517 10.2645 12.9831 10.7331C12.5145 11.2017 12.2509 11.8373 12.25 12.5C12.25 12.9945 12.3966 13.4778 12.6713 13.8889C12.946 14.3 13.3365 14.6205 13.7933 14.8097C14.2501 14.9989 14.7528 15.0484 15.2377 14.952C15.7227 14.8555 16.1681 14.6174 16.5178 14.2678C16.8674 13.9181 17.1055 13.4727 17.202 12.9877C17.2984 12.5028 17.2489 12.0001 17.0597 11.5433C16.8705 11.0865 16.55 10.696 16.1389 10.4213ZM17.9674 17.4163C17.3555 16.9837 16.6247 16.7509 15.8753 16.75H13.6247C12.8753 16.7509 12.1445 16.9837 11.5326 17.4163C10.9207 17.8488 10.4575 18.4601 10.2067 19.1663L10.0882 19.5H19.4118L19.2933 19.1663C19.0425 18.4601 18.5793 17.8489 17.9674 17.4163Z" fill="#272727"/>
</svg>
