<svg width="23" height="24" viewBox="0 0 23 24" fill="none" xmlns="http://www.w3.org/2000/svg">
<path d="M7.65294 5.6051C7.65173 5.60447 7.65051 5.60383 7.64929 5.6032C7.60008 5.5776 7.55023 5.55306 7.49978 5.5296C7.53577 5.4854 7.57041 5.44028 7.60365 5.3943C7.61991 5.37181 7.63583 5.34913 7.65142 5.32624" fill="#272727"/>
<path fill-rule="evenodd" clip-rule="evenodd" d="M8.91683 9.50001H1.41683C1.34023 9.50006 1.26426 9.485 1.19348 9.45571C1.1227 9.42642 1.05839 9.38345 1.00422 9.32929C0.950053 9.27512 0.907093 9.21081 0.877798 9.14002C0.848526 9.06929 0.833473 8.99349 0.833496 8.91695C0.835403 8.23654 1.03117 7.57077 1.39787 6.99762C1.7646 6.42442 2.2871 5.96762 2.90415 5.68073L3.09836 5.59044L2.96312 5.42436C2.55851 4.9275 2.33631 4.30705 2.3335 3.6663C2.3336 2.91499 2.6321 2.19447 3.16336 1.66321C3.69471 1.13185 4.41538 0.833344 5.16683 0.833344C5.91828 0.833344 6.63895 1.13186 7.1703 1.66321C7.70156 2.19447 8.00005 2.91497 8.00016 3.66627C7.99736 4.30703 7.77516 4.9275 7.37054 5.42436L7.2353 5.59044L7.42951 5.68073C8.04656 5.96762 8.56906 6.42442 8.93579 6.99762C9.30248 7.57076 9.49825 8.23653 9.50016 8.91693C9.50019 8.99348 9.48514 9.06929 9.45586 9.14002C9.42657 9.21081 9.38361 9.27512 9.32944 9.32929C9.27527 9.38345 9.21096 9.42642 9.14018 9.45571C9.0694 9.485 8.99343 9.50006 8.91683 9.50001ZM6.09278 2.28089C5.8187 2.09776 5.49647 2.00001 5.16683 2.00001C4.72504 2.00058 4.30128 2.17634 3.98889 2.48873C3.67649 2.80113 3.50074 3.22488 3.50016 3.66668C3.50016 3.99631 3.59791 4.31854 3.78105 4.59263C3.96418 4.86671 4.22448 5.08033 4.52902 5.20648C4.83357 5.33262 5.16868 5.36563 5.49198 5.30132C5.81528 5.23701 6.11225 5.07827 6.34534 4.84519C6.57843 4.6121 6.73716 4.31513 6.80147 3.99183C6.86578 3.66853 6.83278 3.33342 6.70663 3.02887C6.58048 2.72433 6.36686 2.46403 6.09278 2.28089ZM7.31177 6.94418C6.90382 6.65578 6.41664 6.50063 5.91704 6.50001H4.41662C3.91702 6.50063 3.42984 6.65578 3.02189 6.94418C2.61394 7.23258 2.30518 7.64011 2.13795 8.11089L2.05893 8.33334H8.27472L8.19571 8.11089C8.02848 7.64011 7.71972 7.23258 7.31177 6.94418Z" fill="#272727"/>
<path d="M20.9863 5.6051C20.9851 5.60447 20.9838 5.60383 20.9826 5.6032C20.9334 5.5776 20.8836 5.55306 20.8331 5.5296C20.8691 5.4854 20.9037 5.44028 20.937 5.3943C20.9532 5.37181 20.9692 5.34913 20.9848 5.32624" fill="#272727"/>
<path fill-rule="evenodd" clip-rule="evenodd" d="M22.2502 9.50001H14.7502C14.6736 9.50006 14.5976 9.485 14.5268 9.45571C14.456 9.42642 14.3917 9.38345 14.3376 9.32929C14.2834 9.27512 14.2404 9.21081 14.2111 9.14002C14.1819 9.06929 14.1668 8.99349 14.1668 8.91695C14.1687 8.23654 14.3645 7.57077 14.7312 6.99762C15.0979 6.42442 15.6204 5.96762 16.2375 5.68073L16.4317 5.59044L16.2964 5.42436C15.8918 4.9275 15.6696 4.30705 15.6668 3.6663C15.6669 2.91499 15.9654 2.19447 16.4967 1.66321C17.028 1.13185 17.7487 0.833344 18.5002 0.833344C19.2516 0.833344 19.9723 1.13186 20.5036 1.66321C21.0349 2.19447 21.3334 2.91497 21.3335 3.66627C21.3307 4.30703 21.1085 4.9275 20.7039 5.42436L20.5686 5.59044L20.7628 5.68073C21.3799 5.96762 21.9024 6.42442 22.2691 6.99762C22.6358 7.57076 22.8316 8.23653 22.8335 8.91693C22.8335 8.99348 22.8185 9.06929 22.7892 9.14002C22.7599 9.21081 22.7169 9.27512 22.6628 9.32929C22.6086 9.38345 22.5443 9.42642 22.4735 9.45571C22.4027 9.485 22.3268 9.50006 22.2502 9.50001ZM19.4261 2.28089C19.152 2.09776 18.8298 2.00001 18.5002 2.00001C18.0584 2.00058 17.6346 2.17634 17.3222 2.48873C17.0098 2.80113 16.8341 3.22488 16.8335 3.66668C16.8335 3.99631 16.9312 4.31854 17.1144 4.59263C17.2975 4.86671 17.5578 5.08033 17.8624 5.20648C18.1669 5.33262 18.502 5.36563 18.8253 5.30132C19.1486 5.23701 19.4456 5.07827 19.6787 4.84519C19.9118 4.6121 20.0705 4.31513 20.1348 3.99183C20.1991 3.66853 20.1661 3.33342 20.04 3.02887C19.9138 2.72433 19.7002 2.46403 19.4261 2.28089ZM20.6451 6.94418C20.2371 6.65578 19.75 6.50063 19.2504 6.50001H17.75C17.2504 6.50063 16.7632 6.65578 16.3552 6.94418C15.9473 7.23258 15.6385 7.64011 15.4713 8.11089L15.3923 8.33334H21.6081L21.529 8.11089C21.3618 7.64011 21.0531 7.23258 20.6451 6.94418Z" fill="#272727"/>
<path d="M20.9863 19.6051C20.9851 19.6045 20.9838 19.6038 20.9826 19.6032C20.9334 19.5776 20.8836 19.5531 20.8331 19.5296C20.8691 19.4854 20.9037 19.4403 20.937 19.3943C20.9532 19.3718 20.9692 19.3491 20.9848 19.3262" fill="#272727"/>
<path fill-rule="evenodd" clip-rule="evenodd" d="M22.2502 23.5H14.7502C14.6736 23.5001 14.5976 23.485 14.5268 23.4557C14.456 23.4264 14.3917 23.3835 14.3376 23.3293C14.2834 23.2751 14.2404 23.2108 14.2111 23.14C14.1819 23.0693 14.1668 22.9935 14.1668 22.9169C14.1687 22.2365 14.3645 21.5708 14.7312 20.9976C15.0979 20.4244 15.6204 19.9676 16.2375 19.6807L16.4317 19.5904L16.2964 19.4244C15.8918 18.9275 15.6696 18.3071 15.6668 17.6663C15.6669 16.915 15.9654 16.1945 16.4967 15.6632C17.028 15.1319 17.7487 14.8333 18.5002 14.8333C19.2516 14.8333 19.9723 15.1319 20.5036 15.6632C21.0349 16.1945 21.3334 16.915 21.3335 17.6663C21.3307 18.307 21.1085 18.9275 20.7039 19.4244L20.5686 19.5904L20.7628 19.6807C21.3799 19.9676 21.9024 20.4244 22.2691 20.9976C22.6358 21.5708 22.8316 22.2365 22.8335 22.9169C22.8335 22.9935 22.8185 23.0693 22.7892 23.14C22.7599 23.2108 22.7169 23.2751 22.6628 23.3293C22.6086 23.3835 22.5443 23.4264 22.4735 23.4557C22.4027 23.485 22.3268 23.5001 22.2502 23.5ZM19.4261 16.2809C19.152 16.0978 18.8298 16 18.5002 16C18.0584 16.0006 17.6346 16.1763 17.3222 16.4887C17.0098 16.8011 16.8341 17.2249 16.8335 17.6667C16.8335 17.9963 16.9312 18.3185 17.1144 18.5926C17.2975 18.8667 17.5578 19.0803 17.8624 19.2065C18.1669 19.3326 18.502 19.3656 18.8253 19.3013C19.1486 19.237 19.4456 19.0783 19.6787 18.8452C19.9118 18.6121 20.0705 18.3151 20.1348 17.9918C20.1991 17.6685 20.1661 17.3334 20.04 17.0289C19.9138 16.7243 19.7002 16.464 19.4261 16.2809ZM20.6451 20.9442C20.2371 20.6558 19.75 20.5006 19.2504 20.5H17.75C17.2504 20.5006 16.7632 20.6558 16.3552 20.9442C15.9473 21.2326 15.6385 21.6401 15.4713 22.1109L15.3923 22.3333H21.6081L21.529 22.1109C21.3618 21.6401 21.0531 21.2326 20.6451 20.9442Z" fill="#272727"/>
<path d="M7.65294 19.6051C7.65173 19.6045 7.65051 19.6038 7.64929 19.6032C7.60008 19.5776 7.55023 19.5531 7.49978 19.5296C7.53577 19.4854 7.57041 19.4403 7.60365 19.3943C7.61991 19.3718 7.63583 19.3491 7.65142 19.3262" fill="#272727"/>
<path fill-rule="evenodd" clip-rule="evenodd" d="M8.91683 23.5H1.41683C1.34023 23.5001 1.26426 23.485 1.19348 23.4557C1.1227 23.4264 1.05839 23.3835 1.00422 23.3293C0.950053 23.2751 0.907093 23.2108 0.877798 23.14C0.848526 23.0693 0.833473 22.9935 0.833496 22.9169C0.835403 22.2365 1.03117 21.5708 1.39787 20.9976C1.7646 20.4244 2.2871 19.9676 2.90415 19.6807L3.09836 19.5904L2.96312 19.4244C2.55851 18.9275 2.33631 18.3071 2.3335 17.6663C2.3336 16.915 2.6321 16.1945 3.16336 15.6632C3.69471 15.1319 4.41538 14.8333 5.16683 14.8333C5.91828 14.8333 6.63895 15.1319 7.1703 15.6632C7.70156 16.1945 8.00005 16.915 8.00016 17.6663C7.99736 18.307 7.77516 18.9275 7.37054 19.4244L7.2353 19.5904L7.42951 19.6807C8.04656 19.9676 8.56906 20.4244 8.93579 20.9976C9.30248 21.5708 9.49825 22.2365 9.50016 22.9169C9.50019 22.9935 9.48514 23.0693 9.45586 23.14C9.42657 23.2108 9.38361 23.2751 9.32944 23.3293C9.27527 23.3835 9.21096 23.4264 9.14018 23.4557C9.0694 23.485 8.99343 23.5001 8.91683 23.5ZM6.09278 16.2809C5.8187 16.0978 5.49647 16 5.16683 16C4.72504 16.0006 4.30128 16.1763 3.98889 16.4887C3.67649 16.8011 3.50074 17.2249 3.50016 17.6667C3.50016 17.9963 3.59791 18.3185 3.78105 18.5926C3.96418 18.8667 4.22448 19.0803 4.52902 19.2065C4.83357 19.3326 5.16868 19.3656 5.49198 19.3013C5.81528 19.237 6.11225 19.0783 6.34534 18.8452C6.57843 18.6121 6.73716 18.3151 6.80147 17.9918C6.86578 17.6685 6.83278 17.3334 6.70663 17.0289C6.58048 16.7243 6.36686 16.464 6.09278 16.2809ZM7.31177 20.9442C6.90382 20.6558 6.41664 20.5006 5.91704 20.5H4.41662C3.91702 20.5006 3.42984 20.6558 3.02189 20.9442C2.61394 21.2326 2.30518 21.6401 2.13795 22.1109L2.05893 22.3333H8.27472L8.19571 22.1109C8.02848 21.6401 7.71972 21.2326 7.31177 20.9442Z" fill="#272727"/>
</svg>
