<svg width="32" height="30" viewBox="0 0 32 30" fill="none" xmlns="http://www.w3.org/2000/svg">
<path fill-rule="evenodd" clip-rule="evenodd" d="M18.2326 4.85868C17.3392 3.56737 16.0489 2.2847 14.2435 1.67637C12.4336 1.06655 10.1352 1.14414 7.24805 2.51982L7.14286 2.56994C1.97891 5.0305 -0.433957 10.3984 1.44753 15.3595C2.18595 17.3258 3.52967 19.0069 5.28499 20.1603L5.28705 20.1617C6.63255 21.0208 7.74149 22.2033 8.5127 23.6011C9.28319 24.9976 9.69206 26.5646 9.70211 28.1595C9.6974 28.2787 9.71647 28.3976 9.75822 28.5093C9.80058 28.6227 9.8654 28.7263 9.9488 28.8139C10.0322 28.9016 10.1324 28.9715 10.2435 29.0195C10.3546 29.0674 10.4743 29.0924 10.5952 29.093C10.7162 29.0936 10.8361 29.0697 10.9476 29.0228C11.0592 28.9758 11.1601 28.9069 11.2443 28.82C11.3285 28.7331 11.3943 28.6301 11.4377 28.5172C11.4807 28.4052 11.5009 28.2857 11.497 28.1658C11.4879 26.2729 11.0055 24.4122 10.0938 22.7532C9.18175 21.0938 7.86911 19.6889 6.27538 18.6664C4.83414 17.7182 3.73181 16.3362 3.12779 14.7202L3.12742 14.7193C1.59219 10.6795 3.58669 6.25393 7.92056 4.1889L8.01806 4.14244C9.95332 3.22031 11.6218 2.91691 13.0555 3.20406C14.4843 3.49023 15.7097 4.36898 16.7506 5.87302C16.9337 6.14237 17.1009 6.42222 17.2514 6.71112L17.2525 6.71326C17.6828 7.51428 18.3162 8.18809 19.0891 8.66714C19.862 9.14619 20.7472 9.41388 21.656 9.44291L21.6656 9.44273C21.7611 9.44092 21.8564 9.45355 21.9481 9.48014C21.9612 9.49246 21.9715 9.50767 21.978 9.52466C21.9863 9.54646 21.9881 9.57018 21.9831 9.5929C21.8377 10.0114 21.5756 10.3795 21.2278 10.6541L21.2217 10.6593C21.0674 10.7922 20.9628 10.9736 20.9252 11.1738C20.8875 11.3739 20.919 11.5809 21.0145 11.7608L21.0149 11.7617L21.7139 13.0618C21.2331 13.4198 20.7123 13.721 20.1618 13.9592C19.9485 14.0502 19.7602 14.1912 19.6128 14.3702C19.4654 14.5493 19.3632 14.7611 19.3148 14.9879C19.2646 15.2198 19.271 15.4604 19.3336 15.6893C19.3962 15.918 19.513 16.1283 19.6741 16.3023C20.1551 16.8235 21.1997 17.5774 22.9888 17.2349C23.0863 17.6872 23.2677 18.1175 23.5238 18.5033L23.5284 18.5102L23.5336 18.5166C23.5568 18.5457 23.5818 18.5734 23.6084 18.5994C23.7014 18.6913 23.7733 18.8023 23.8191 18.9248C23.8649 19.0474 23.8834 19.1785 23.8734 19.3091L23.8733 19.3106C23.8645 19.4387 23.8275 19.5634 23.765 19.6756C23.7024 19.7879 23.6156 19.8851 23.5112 19.96C22.6485 20.5817 21.7054 21.0832 20.7076 21.4508L20.7043 21.4521C19.726 21.8334 18.6793 22.0077 17.6302 21.9643L17.6248 21.9642C16.9862 21.956 16.3592 21.7919 15.7984 21.4862C15.6988 21.4261 15.5885 21.3859 15.4736 21.3679C15.3571 21.3495 15.2381 21.3543 15.1235 21.382C15.0088 21.4097 14.9007 21.4596 14.8054 21.5291C14.71 21.5985 14.6293 21.686 14.5678 21.7867C14.5063 21.8873 14.4652 21.9991 14.4469 22.1156C14.4285 22.2321 14.4333 22.3511 14.461 22.4657C14.4887 22.5804 14.5386 22.6885 14.6081 22.7838C14.6775 22.8792 14.765 22.96 14.8656 23.0215L14.8714 23.0248C15.6865 23.4843 16.6026 23.7352 17.5381 23.7551C18.0714 23.7817 18.6059 23.7589 19.1348 23.687L20.1048 25.7228C20.2073 25.9378 20.3909 26.1033 20.6154 26.1829C20.8399 26.2625 21.0868 26.2496 21.3018 26.1472C21.5168 26.0447 21.6823 25.8611 21.7619 25.6366C21.8415 25.4121 21.8287 25.1652 21.7262 24.9502L20.9279 23.2748C21.0603 23.2317 21.1929 23.1853 21.3252 23.135C22.4761 22.7108 23.5644 22.1319 24.5595 21.4149C24.8703 21.1895 25.1292 20.9003 25.319 20.5666C25.5088 20.2329 25.625 19.8625 25.6599 19.4802C25.6947 19.0979 25.6473 18.7126 25.521 18.3501C25.3974 17.9958 25.2012 17.6713 24.945 17.3974C24.848 17.2142 24.775 17.0193 24.7277 16.8175L24.6566 16.466L24.6564 16.465C24.6206 16.2791 24.5471 16.1024 24.4407 15.9458C24.334 15.789 24.1964 15.6555 24.0364 15.5537L24.0334 15.5519C23.8716 15.4531 23.691 15.389 23.5031 15.3636C23.3155 15.3383 23.1247 15.3521 22.9428 15.4042C22.2885 15.5847 21.7643 15.5621 21.3776 15.3771C22.1394 14.9929 22.8449 14.505 23.4738 13.9269L23.4778 13.923C23.6173 13.7867 23.7087 13.6088 23.7382 13.416C23.7677 13.2232 23.7336 13.0261 23.6411 12.8544L22.9114 11.4993C23.2742 11.0938 23.5456 10.6144 23.7065 10.0935L23.707 10.0918C23.8243 9.69879 23.8108 9.27828 23.6685 8.89359C23.5262 8.50891 23.2628 8.1807 22.9179 7.95868L22.9102 7.95422C22.5528 7.74751 22.146 7.64203 21.7332 7.64905C21.1356 7.63122 20.5531 7.45644 20.0443 7.14223C19.5345 6.8274 19.1167 6.38373 18.8331 5.85595C18.6523 5.51269 18.452 5.18005 18.2333 4.85964L18.2326 4.85868ZM21.9831 9.5929L21.9858 9.58522L21.9819 9.59802L21.9831 9.5929ZM21.9481 9.48014C21.9455 9.47771 21.9428 9.4754 21.9399 9.4732C21.9374 9.47118 21.9347 9.46927 21.9319 9.46746L21.9768 9.48898C21.9673 9.48588 21.9577 9.48293 21.9481 9.48014ZM9.70211 28.1595L9.70233 28.1544L9.70214 28.164L9.70211 28.1595Z" fill="#272727"/>
<path d="M28.1022 7.30565C27.6275 6.98605 26.9939 7.12245 26.6841 7.58935L26.6832 7.59069L24.7321 10.5863C24.4165 11.0652 24.5655 11.6927 25.0219 12C25.4962 12.3186 26.1294 12.1833 26.4395 11.716L26.4404 11.7146L28.3912 8.71938C28.7076 8.23989 28.5584 7.61281 28.1022 7.30565Z" fill="#272727"/>
<path d="M31.3878 11.6621C31.1822 11.128 30.585 10.8763 30.0634 11.0811L30.0619 11.0817L26.7455 12.4164C26.2122 12.6277 25.9743 13.2272 26.172 13.7407C26.3778 14.2737 26.974 14.5261 27.4961 14.3211L27.4976 14.3205L30.8139 12.9858C31.3479 12.7745 31.5853 12.1753 31.3878 11.6621Z" fill="#272727"/>
<path d="M26.2412 15.7675C26.3738 15.2334 26.9125 14.879 27.4706 15.0119L30.9543 15.8211C31.499 15.9525 31.8439 16.5012 31.7059 17.0566C31.5733 17.5903 31.0353 17.945 30.4767 17.8119L30.4759 17.8117L26.9944 17.003L26.9929 17.0026C26.4476 16.8711 26.104 16.3222 26.2412 15.7675Z" fill="#272727"/>
</svg>
