<svg width="30" height="30" viewBox="0 0 30 30" fill="none" xmlns="http://www.w3.org/2000/svg">
<path fill-rule="evenodd" clip-rule="evenodd" d="M14.2665 1.3125C8.13002 1.3125 3.31827 5.39717 2.85128 11.0676C2.65911 13.312 3.18454 15.5594 4.35187 17.4859L4.35317 17.488C5.26189 18.9444 5.79145 20.6052 5.89354 22.3188C5.99555 24.0309 5.66759 25.7413 4.93956 27.2943C4.88071 27.4061 4.84473 27.5285 4.83375 27.6544C4.82262 27.7819 4.83738 27.9105 4.87715 28.0322C4.91693 28.1539 4.98089 28.2664 5.0652 28.3628C5.14952 28.4592 5.25244 28.5375 5.36779 28.5932C5.48315 28.6488 5.60856 28.6805 5.73648 28.6865C5.86441 28.6924 5.99222 28.6725 6.11224 28.6278C6.23227 28.5831 6.34202 28.5146 6.43492 28.4265C6.52707 28.339 6.60075 28.234 6.65161 28.1176C7.51626 26.2804 7.90769 24.256 7.79026 22.2288C7.67279 20.2011 7.04991 18.2349 5.97836 16.5094C5.01766 14.922 4.58672 13.0702 4.74787 11.2217L4.74796 11.2207C5.1264 6.5869 9.11125 3.2135 14.2726 3.2135H14.3885C16.6923 3.2135 18.4533 3.69041 19.7138 4.63347C20.9702 5.57351 21.7536 6.99497 22.0684 8.93642C22.1216 9.28275 22.1545 9.63189 22.1669 9.98206L22.167 9.98449C22.2141 10.9574 22.5161 11.9008 23.0427 12.7202C23.5694 13.5395 24.3021 14.2063 25.1676 14.6531L25.1763 14.6571C25.272 14.7005 25.3605 14.7582 25.4387 14.8282C25.4475 14.8491 25.4512 14.8718 25.4494 14.8945C25.4472 14.9225 25.4367 14.9491 25.4194 14.9711C25.0832 15.3118 24.6565 15.5491 24.1896 15.6553L24.182 15.6574C23.974 15.7142 23.7915 15.8399 23.6643 16.014C23.5372 16.1881 23.4731 16.4002 23.4824 16.6155L23.4824 16.6166L23.5654 18.3195C23.5494 18.3497 23.5267 18.3934 23.4992 18.4483C23.4443 18.5581 23.3701 18.7132 23.2926 18.8951C23.1405 19.2523 22.97 19.726 22.9144 20.1669L22.8815 20.2956L22.88 20.3049L22.8796 20.308L22.8783 20.3168L22.8735 20.3495C22.8695 20.3779 22.8638 20.4187 22.8573 20.4691C22.8442 20.5698 22.8275 20.7094 22.813 20.8648C22.7845 21.1693 22.7622 21.5557 22.8004 21.8245L22.8016 21.8327L22.8035 21.8407C22.8124 21.8791 22.8238 21.9168 22.8374 21.9538C22.8858 22.0878 22.9044 22.2307 22.892 22.3726C22.8797 22.5146 22.8365 22.6523 22.7655 22.7759L22.7647 22.7772C22.696 22.8992 22.6012 23.0045 22.487 23.0856C22.3729 23.1667 22.2419 23.2216 22.1041 23.2464C20.9794 23.4509 19.8321 23.5014 18.6938 23.3967L18.6903 23.3965C17.5639 23.3141 16.4667 22.9991 15.4681 22.4715L15.4633 22.4691C14.8458 22.1651 14.312 21.7148 13.9082 21.1575C13.8404 21.0547 13.7533 20.9659 13.6516 20.8963C13.5486 20.8257 13.4327 20.7761 13.3106 20.7504C13.1884 20.7246 13.0624 20.7231 12.9397 20.7461C12.817 20.769 12.7 20.8159 12.5954 20.884C12.4908 20.9522 12.4006 21.0403 12.3301 21.1433C12.2595 21.2463 12.2099 21.3621 12.1842 21.4843C12.1584 21.6064 12.1569 21.7325 12.1799 21.8552C12.2028 21.9779 12.2496 22.095 12.3177 22.1996L12.3216 22.205C12.8982 23.0252 13.6687 23.6901 14.5644 24.1404C15.0714 24.4138 15.6027 24.6393 16.1513 24.8142V27.2459C16.1513 27.498 16.2514 27.7397 16.4297 27.918C16.6079 28.0962 16.8497 28.1964 17.1018 28.1964C17.3539 28.1964 17.5956 28.0962 17.7739 27.918C17.9521 27.7397 18.0523 27.498 18.0523 27.2459V25.2371C18.2054 25.2574 18.3603 25.2744 18.5169 25.2871C19.8274 25.4074 21.1486 25.349 22.4433 25.1138C22.8467 25.0392 23.2295 24.8792 23.566 24.6446C23.9026 24.4099 24.1849 24.1059 24.3943 23.7531C24.6036 23.4002 24.7351 23.0067 24.7798 22.5989C24.8236 22.1996 24.7833 21.7958 24.6615 21.4132C24.6519 21.189 24.6712 20.9645 24.7191 20.7451L24.8125 20.3712L24.8127 20.3704C24.8555 20.2059 24.8696 20.0354 24.8546 19.8666L24.8988 19.8201C25.0748 19.7499 25.2262 19.6285 25.333 19.4711C25.4489 19.3003 25.5061 19.0964 25.4959 18.8902L25.414 17.2298C25.9548 17.0051 26.4408 16.6655 26.8383 16.2339L26.8395 16.2326C27.1328 15.908 27.3127 15.4969 27.3521 15.0613C27.3915 14.6256 27.2886 14.1888 27.0583 13.8168L27.0533 13.8094C26.8037 13.446 26.4598 13.1573 26.0586 12.9746C25.4852 12.6801 24.9993 12.2399 24.6498 11.6981C24.2997 11.1553 24.0989 10.5298 24.0676 9.88468C24.0509 9.46895 24.0105 9.05451 23.9465 8.64339L23.9464 8.64224C23.677 6.97945 23.0195 5.14319 21.5531 3.72226C20.0834 2.29809 17.8231 1.3125 14.3916 1.3125H14.2665ZM18.5332 25.1003L18.518 25.2872L18.5169 25.2871L18.516 25.287L18.5332 25.1003ZM23.0654 20.3331L22.88 20.3049C22.88 20.3049 22.8801 20.3048 23.0654 20.3331Z" fill="#272727"/>
</svg>
