<svg width="28" height="26" viewBox="0 0 28 26" fill="none" xmlns="http://www.w3.org/2000/svg">
<path fill-rule="evenodd" clip-rule="evenodd" d="M15.9348 4.21086C15.1605 3.09173 14.0422 1.98008 12.4775 1.45286C10.909 0.924353 8.917 0.991594 6.41482 2.18385L6.32365 2.22729C1.84822 4.35977 -0.242925 9.01195 1.3877 13.3116C2.02766 15.0157 3.19222 16.4726 4.7135 17.4723L4.71528 17.4734C5.88138 18.2181 6.84246 19.2429 7.51084 20.4543C8.1786 21.6646 8.53296 23.0227 8.54167 24.4049C8.53758 24.5082 8.55411 24.6112 8.5903 24.7081C8.62701 24.8063 8.68318 24.8961 8.75546 24.9721C8.82774 25.0481 8.91462 25.1087 9.0109 25.1502C9.10718 25.1918 9.21086 25.2134 9.31572 25.2139C9.42058 25.2144 9.52446 25.1937 9.62112 25.1531C9.71778 25.1124 9.80522 25.0526 9.87821 24.9773C9.95119 24.902 10.0082 24.8128 10.0458 24.7149C10.0831 24.6178 10.1006 24.5143 10.0972 24.4104C10.0893 22.7698 9.67128 21.1573 8.88109 19.7195C8.09069 18.2813 6.95307 17.0637 5.57184 16.1775C4.32276 15.3558 3.3674 14.1581 2.84392 12.7576L2.8436 12.7567C1.51307 9.25555 3.24164 5.42008 6.99766 3.63038L7.08216 3.59012C8.75938 2.79095 10.2054 2.52799 11.4479 2.77686C12.6863 3.02487 13.7482 3.78646 14.6503 5.08996C14.8091 5.32339 14.954 5.56593 15.0843 5.81631L15.0853 5.81817C15.4583 6.51238 16.0072 7.09636 16.677 7.51153C17.3469 7.92671 18.1141 8.1587 18.9017 8.18386L18.91 8.1837C18.9928 8.18213 19.0754 8.19308 19.1548 8.21613C19.1662 8.22681 19.1751 8.23999 19.1808 8.25472C19.188 8.2736 19.1895 8.29416 19.1852 8.31385C19.0592 8.67653 18.832 8.99559 18.5306 9.2336L18.5254 9.2381C18.3916 9.35327 18.301 9.51048 18.2683 9.68395C18.2357 9.85741 18.263 10.0368 18.3457 10.1927L18.3461 10.1935L18.9519 11.3202C18.5352 11.6305 18.0838 11.8916 17.6067 12.098C17.4219 12.1769 17.2587 12.299 17.1309 12.4542C17.0032 12.6094 16.9146 12.793 16.8727 12.9895C16.8291 13.1905 16.8347 13.399 16.889 13.5974C16.9432 13.7956 17.0444 13.9779 17.1841 14.1287C17.6009 14.5804 18.5063 15.2338 20.0568 14.9369C20.1413 15.3289 20.2985 15.7018 20.5205 16.0362L20.5244 16.0422L20.5289 16.0478C20.5491 16.073 20.5707 16.0969 20.5938 16.1195C20.6744 16.1991 20.7367 16.2953 20.7764 16.4015C20.8161 16.5077 20.8322 16.6214 20.8235 16.7345L20.8234 16.7358C20.8158 16.8469 20.7837 16.955 20.7295 17.0522C20.6753 17.1495 20.6 17.2338 20.5095 17.2987C19.7619 17.8375 18.9445 18.2721 18.0797 18.5907L18.0769 18.5918C17.229 18.9223 16.3219 19.0734 15.4127 19.0357L15.408 19.0357C14.8545 19.0286 14.3111 18.8863 13.8251 18.6214C13.7388 18.5693 13.6432 18.5345 13.5436 18.5188C13.4427 18.5029 13.3396 18.5071 13.2402 18.5311C13.1408 18.555 13.0471 18.5984 12.9645 18.6585C12.8819 18.7187 12.8119 18.7946 12.7586 18.8818C12.7053 18.969 12.6697 19.0659 12.6538 19.1669C12.6379 19.2678 12.6421 19.3709 12.666 19.4703C12.69 19.5697 12.7333 19.6634 12.7935 19.746C12.8537 19.8286 12.9295 19.8987 13.0167 19.952L13.0217 19.9548C13.7281 20.3531 14.5221 20.5705 15.3328 20.5878C15.795 20.6108 16.2583 20.591 16.7167 20.5288L17.5574 22.2931C17.6461 22.4794 17.8053 22.6228 17.9999 22.6918C18.1944 22.7608 18.4084 22.7497 18.5947 22.6609C18.7811 22.5721 18.9245 22.4129 18.9935 22.2184C19.0625 22.0238 19.0514 21.8098 18.9626 21.6235L18.2707 20.1715C18.3854 20.1341 18.5003 20.094 18.615 20.0503C19.6124 19.6827 20.5556 19.181 21.4181 18.5596C21.6874 18.3643 21.9119 18.1136 22.0763 17.8244C22.2408 17.5352 22.3415 17.2142 22.3717 16.8828C22.4019 16.5515 22.3608 16.2176 22.2513 15.9034C22.1443 15.5963 21.9742 15.3151 21.7522 15.0777C21.6681 14.919 21.6049 14.7501 21.5639 14.5752L21.5022 14.2706L21.5021 14.2697C21.471 14.1086 21.4074 13.9555 21.3151 13.8197C21.2227 13.6838 21.1034 13.5681 20.9647 13.4799L20.9621 13.4783C20.8219 13.3927 20.6654 13.3372 20.5025 13.3152C20.34 13.2932 20.1746 13.3052 20.0169 13.3503C19.4499 13.5068 18.9956 13.4871 18.6604 13.3268C19.3206 12.9939 19.9321 12.571 20.4771 12.07L20.4806 12.0666C20.6015 11.9485 20.6808 11.7943 20.7063 11.6272C20.7318 11.4601 20.7023 11.2893 20.6221 11.1405L19.9897 9.96606C20.3041 9.61464 20.5394 9.19915 20.6788 8.74773L20.6792 8.74625C20.7809 8.40562 20.7692 8.04118 20.6459 7.70779C20.5225 7.3744 20.2943 7.08994 19.9954 6.89753L19.9887 6.89366C19.679 6.71452 19.3263 6.6231 18.9686 6.62918C18.4507 6.61373 17.9458 6.46225 17.5049 6.18994C17.0631 5.91709 16.701 5.53257 16.4552 5.07516C16.2985 4.77767 16.1249 4.48938 15.9354 4.2117L15.9348 4.21086ZM19.1852 8.31385L19.1875 8.3072L19.1841 8.31829L19.1852 8.31385ZM19.1548 8.21613C19.1526 8.21403 19.1502 8.21202 19.1478 8.21011C19.1455 8.20836 19.1432 8.20671 19.1408 8.20514L19.1797 8.22379C19.1715 8.2211 19.1632 8.21855 19.1548 8.21613ZM8.54167 24.4049L8.54185 24.4005L8.54169 24.4088L8.54167 24.4049Z" fill="#272727"/>
<path d="M24.4884 6.33157C24.077 6.05458 23.5279 6.17279 23.2594 6.57745L23.2586 6.5786L21.5677 9.17479C21.2941 9.58986 21.4232 10.1337 21.8188 10.4C22.2299 10.6761 22.7787 10.5589 23.0474 10.1538L23.0482 10.1527L24.7389 7.5568C25.0131 7.14125 24.8838 6.59778 24.4884 6.33157Z" fill="#272727"/>
<path d="M27.3359 10.1071C27.1578 9.64427 26.6401 9.42614 26.1881 9.60361L26.1868 9.60412L23.3126 10.7609C22.8504 10.944 22.6443 11.4635 22.8156 11.9086C22.9939 12.3706 23.5107 12.5893 23.9631 12.4116L23.9644 12.4111L26.8385 11.2544C27.3014 11.0712 27.5071 10.5519 27.3359 10.1071Z" fill="#272727"/>
<path d="M22.8755 13.6652C22.9905 13.2023 23.4574 12.8951 23.941 13.0103L26.9602 13.7116C27.4323 13.8255 27.7312 14.3011 27.6116 14.7824C27.4967 15.2449 27.0304 15.5523 26.5463 15.437L26.5456 15.4368L23.5283 14.7359L23.527 14.7356C23.0545 14.6216 22.7567 14.1459 22.8755 13.6652Z" fill="#272727"/>
</svg>
