<svg width="34" height="35" viewBox="0 0 34 35" fill="none" xmlns="http://www.w3.org/2000/svg">
<path d="M10.4792 7.40764C10.4773 7.40669 10.4755 7.40574 10.4737 7.40478C10.3999 7.36638 10.3251 7.32957 10.2494 7.29439C10.3034 7.22809 10.3554 7.1604 10.4052 7.09143C10.4296 7.05771 10.4535 7.02368 10.4769 6.98935" fill="#272727"/>
<path fill-rule="evenodd" clip-rule="evenodd" d="M12.375 13.25H1.125C1.0101 13.2501 0.896152 13.2275 0.789974 13.1835C0.683807 13.1396 0.587336 13.0752 0.506083 12.9939C0.424835 12.9127 0.360396 12.8162 0.316453 12.71C0.272546 12.6039 0.249965 12.4902 0.25 12.3754C0.25286 11.3548 0.546514 10.3561 1.09656 9.49642C1.64666 8.63662 2.43041 7.95141 3.35597 7.52108L3.64729 7.38564L3.44443 7.13652C2.83752 6.39124 2.50421 5.46056 2.5 4.49944C2.50015 3.37247 2.9479 2.2917 3.7448 1.4948C4.54183 0.697767 5.62283 0.25 6.75 0.25C7.87717 0.25 8.95817 0.697767 9.7552 1.4948C10.5521 2.29168 10.9998 3.37244 11 4.49939C10.9958 5.46053 10.6625 6.39123 10.0556 7.13652L9.85271 7.38564L10.144 7.52108C11.0696 7.95141 11.8533 8.63662 12.4034 9.49642C12.9535 10.3561 13.2471 11.3548 13.25 12.3754C13.25 12.4902 13.2275 12.6039 13.1835 12.71C13.1396 12.8162 13.0752 12.9127 12.9939 12.9939C12.9127 13.0752 12.8162 13.1396 12.71 13.1835C12.6038 13.2275 12.4899 13.2501 12.375 13.25ZM8.13893 2.42133C7.7278 2.14662 7.24445 2 6.75 2C6.08731 2.00086 5.45168 2.26449 4.98309 2.73309C4.51449 3.20168 4.25086 3.83731 4.25 4.5C4.25 4.99445 4.39662 5.4778 4.67133 5.88892C4.94603 6.30005 5.33648 6.62048 5.79329 6.8097C6.25011 6.99892 6.75277 7.04843 7.23773 6.95196C7.72268 6.8555 8.16814 6.6174 8.51777 6.26777C8.8674 5.91813 9.1055 5.47268 9.20196 4.98772C9.29843 4.50277 9.24892 4.00011 9.0597 3.54329C8.87048 3.08648 8.55005 2.69603 8.13893 2.42133ZM9.96741 9.41625C9.35548 8.98366 8.62471 8.75093 7.87531 8.75H5.62469C4.87529 8.75093 4.14452 8.98366 3.53259 9.41625C2.92066 9.84885 2.45752 10.4601 2.20668 11.1663L2.08816 11.5H11.4118L11.2933 11.1663C11.0425 10.4601 10.5793 9.84885 9.96741 9.41625Z" fill="#272727"/>
<path d="M30.4792 7.40764C30.4773 7.40669 30.4755 7.40574 30.4737 7.40478C30.3999 7.36638 30.3251 7.32957 30.2494 7.29439C30.3034 7.22809 30.3554 7.1604 30.4052 7.09143C30.4296 7.05771 30.4535 7.02368 30.4769 6.98935" fill="#272727"/>
<path fill-rule="evenodd" clip-rule="evenodd" d="M32.375 13.25H21.125C21.0101 13.2501 20.8962 13.2275 20.79 13.1835C20.6838 13.1396 20.5873 13.0752 20.5061 12.9939C20.4248 12.9127 20.3604 12.8162 20.3165 12.71C20.2725 12.6039 20.25 12.4902 20.25 12.3754C20.2529 11.3548 20.5465 10.3561 21.0966 9.49642C21.6467 8.63662 22.4304 7.95141 23.356 7.52108L23.6473 7.38564L23.4444 7.13652C22.8375 6.39124 22.5042 5.46056 22.5 4.49944C22.5001 3.37247 22.9479 2.2917 23.7448 1.4948C24.5418 0.697767 25.6228 0.25 26.75 0.25C27.8772 0.25 28.9582 0.697767 29.7552 1.4948C30.5521 2.29168 30.9998 3.37244 31 4.49939C30.9958 5.46053 30.6625 6.39123 30.0556 7.13652L29.8527 7.38564L30.144 7.52108C31.0696 7.95141 31.8533 8.63662 32.4034 9.49642C32.9535 10.3561 33.2471 11.3548 33.25 12.3754C33.25 12.4902 33.2275 12.6039 33.1835 12.71C33.1396 12.8162 33.0752 12.9127 32.9939 12.9939C32.9127 13.0752 32.8162 13.1396 32.71 13.1835C32.6038 13.2275 32.4899 13.2501 32.375 13.25ZM28.1389 2.42133C27.7278 2.14662 27.2445 2 26.75 2C26.0873 2.00086 25.4517 2.26449 24.9831 2.73309C24.5145 3.20168 24.2509 3.83731 24.25 4.5C24.25 4.99445 24.3966 5.4778 24.6713 5.88892C24.946 6.30005 25.3365 6.62048 25.7933 6.8097C26.2501 6.99892 26.7528 7.04843 27.2377 6.95196C27.7227 6.8555 28.1681 6.6174 28.5178 6.26777C28.8674 5.91813 29.1055 5.47268 29.202 4.98772C29.2984 4.50277 29.2489 4.00011 29.0597 3.54329C28.8705 3.08648 28.55 2.69603 28.1389 2.42133ZM29.9674 9.41625C29.3555 8.98366 28.6247 8.75093 27.8753 8.75H25.6247C24.8753 8.75093 24.1445 8.98366 23.5326 9.41625C22.9207 9.84885 22.4575 10.4601 22.2067 11.1663L22.0882 11.5H31.4118L31.2933 11.1663C31.0425 10.4601 30.5793 9.84885 29.9674 9.41625Z" fill="#272727"/>
<path d="M30.4792 28.4076C30.4773 28.4067 30.4755 28.4057 30.4737 28.4048C30.3999 28.3664 30.3251 28.3296 30.2494 28.2944C30.3034 28.2281 30.3554 28.1604 30.4052 28.0914C30.4296 28.0577 30.4535 28.0237 30.4769 27.9893" fill="#272727"/>
<path fill-rule="evenodd" clip-rule="evenodd" d="M32.375 34.25H21.125C21.0101 34.2501 20.8962 34.2275 20.79 34.1835C20.6838 34.1396 20.5873 34.0752 20.5061 33.9939C20.4248 33.9127 20.3604 33.8162 20.3165 33.71C20.2725 33.6039 20.25 33.4902 20.25 33.3754C20.2529 32.3548 20.5465 31.3561 21.0966 30.4964C21.6467 29.6366 22.4304 28.9514 23.356 28.5211L23.6473 28.3856L23.4444 28.1365C22.8375 27.3912 22.5042 26.4606 22.5 25.4994C22.5001 24.3725 22.9479 23.2917 23.7448 22.4948C24.5418 21.6978 25.6228 21.25 26.75 21.25C27.8772 21.25 28.9582 21.6978 29.7552 22.4948C30.5521 23.2917 30.9998 24.3724 31 25.4994C30.9958 26.4605 30.6625 27.3912 30.0556 28.1365L29.8527 28.3856L30.144 28.5211C31.0696 28.9514 31.8533 29.6366 32.4034 30.4964C32.9535 31.3561 33.2471 32.3548 33.25 33.3754C33.25 33.4902 33.2275 33.6039 33.1835 33.71C33.1396 33.8162 33.0752 33.9127 32.9939 33.9939C32.9127 34.0752 32.8162 34.1396 32.71 34.1835C32.6038 34.2275 32.4899 34.2501 32.375 34.25ZM28.1389 23.4213C27.7278 23.1466 27.2445 23 26.75 23C26.0873 23.0009 25.4517 23.2645 24.9831 23.7331C24.5145 24.2017 24.2509 24.8373 24.25 25.5C24.25 25.9945 24.3966 26.4778 24.6713 26.8889C24.946 27.3 25.3365 27.6205 25.7933 27.8097C26.2501 27.9989 26.7528 28.0484 27.2377 27.952C27.7227 27.8555 28.1681 27.6174 28.5178 27.2678C28.8674 26.9181 29.1055 26.4727 29.202 25.9877C29.2984 25.5028 29.2489 25.0001 29.0597 24.5433C28.8705 24.0865 28.55 23.696 28.1389 23.4213ZM29.9674 30.4163C29.3555 29.9837 28.6247 29.7509 27.8753 29.75H25.6247C24.8753 29.7509 24.1445 29.9837 23.5326 30.4163C22.9207 30.8489 22.4575 31.4601 22.2067 32.1663L22.0882 32.5H31.4118L31.2933 32.1663C31.0425 31.4601 30.5793 30.8489 29.9674 30.4163Z" fill="#272727"/>
<path d="M10.4792 28.4076C10.4773 28.4067 10.4755 28.4057 10.4737 28.4048C10.3999 28.3664 10.3251 28.3296 10.2494 28.2944C10.3034 28.2281 10.3554 28.1604 10.4052 28.0914C10.4296 28.0577 10.4535 28.0237 10.4769 27.9893" fill="#272727"/>
<path fill-rule="evenodd" clip-rule="evenodd" d="M12.375 34.25H1.125C1.0101 34.2501 0.896152 34.2275 0.789974 34.1835C0.683807 34.1396 0.587336 34.0752 0.506083 33.9939C0.424835 33.9127 0.360396 33.8162 0.316453 33.71C0.272546 33.6039 0.249965 33.4902 0.25 33.3754C0.25286 32.3548 0.546514 31.3561 1.09656 30.4964C1.64666 29.6366 2.43041 28.9514 3.35597 28.5211L3.64729 28.3856L3.44443 28.1365C2.83752 27.3912 2.50421 26.4606 2.5 25.4994C2.50015 24.3725 2.9479 23.2917 3.7448 22.4948C4.54183 21.6978 5.62283 21.25 6.75 21.25C7.87717 21.25 8.95817 21.6978 9.7552 22.4948C10.5521 23.2917 10.9998 24.3724 11 25.4994C10.9958 26.4605 10.6625 27.3912 10.0556 28.1365L9.85271 28.3856L10.144 28.5211C11.0696 28.9514 11.8533 29.6366 12.4034 30.4964C12.9535 31.3561 13.2471 32.3548 13.25 33.3754C13.25 33.4902 13.2275 33.6039 13.1835 33.71C13.1396 33.8162 13.0752 33.9127 12.9939 33.9939C12.9127 34.0752 12.8162 34.1396 12.71 34.1835C12.6038 34.2275 12.4899 34.2501 12.375 34.25ZM8.13893 23.4213C7.7278 23.1466 7.24445 23 6.75 23C6.08731 23.0009 5.45168 23.2645 4.98309 23.7331C4.51449 24.2017 4.25086 24.8373 4.25 25.5C4.25 25.9945 4.39662 26.4778 4.67133 26.8889C4.94603 27.3 5.33648 27.6205 5.79329 27.8097C6.25011 27.9989 6.75277 28.0484 7.23773 27.952C7.72268 27.8555 8.16814 27.6174 8.51777 27.2678C8.8674 26.9181 9.1055 26.4727 9.20196 25.9877C9.29843 25.5028 9.24892 25.0001 9.0597 24.5433C8.87048 24.0865 8.55005 23.696 8.13893 23.4213ZM9.96741 30.4163C9.35548 29.9837 8.62471 29.7509 7.87531 29.75H5.62469C4.87529 29.7509 4.14452 29.9837 3.53259 30.4163C2.92066 30.8489 2.45752 31.4601 2.20668 32.1663L2.08816 32.5H11.4118L11.2933 32.1663C11.0425 31.4601 10.5793 30.8489 9.96741 30.4163Z" fill="#272727"/>
</svg>
