<svg width="30" height="30" viewBox="0 0 30 30" fill="none" xmlns="http://www.w3.org/2000/svg">
<path d="M25.9066 24.0004H4.10657C3.56882 24.0067 3.03873 23.8726 2.5687 23.6113C2.09868 23.35 1.70499 22.9705 1.42657 22.5104C1.16372 22.081 1.01721 21.5906 1.00143 21.0873C0.985645 20.5841 1.10115 20.0855 1.33657 19.6404L7.63657 7.64042C7.90387 7.13965 8.30355 6.72188 8.79201 6.43269C9.28047 6.14349 9.83895 5.99397 10.4066 6.00042H25.9066C26.3071 5.9938 26.705 6.06615 27.0776 6.21334C27.4502 6.36053 27.7901 6.57968 28.078 6.85826C28.3659 7.13685 28.596 7.46942 28.7554 7.83697C28.9147 8.20453 29.0001 8.59987 29.0066 9.00042V21.0004C29.0001 21.401 28.9147 21.7963 28.7554 22.1639C28.596 22.5314 28.3659 22.864 28.078 23.1426C27.7901 23.4212 27.4502 23.6403 27.0776 23.7875C26.705 23.9347 26.3071 24.007 25.9066 24.0004ZM10.4066 8.00042C10.2039 7.99604 10.0038 8.04674 9.82774 8.14712C9.65163 8.24751 9.50606 8.3938 9.40657 8.57042L3.10657 20.5704C3.0257 20.7084 2.98308 20.8655 2.98308 21.0254C2.98308 21.1854 3.0257 21.3424 3.10657 21.4804C3.21164 21.6485 3.3598 21.7853 3.53565 21.8768C3.71151 21.9682 3.90864 22.0109 4.10657 22.0004H25.9066C26.0445 22.0071 26.1824 21.9866 26.3124 21.94C26.4423 21.8933 26.5618 21.8215 26.664 21.7286C26.7662 21.6357 26.849 21.5236 26.9078 21.3986C26.9666 21.2737 27.0002 21.1384 27.0066 21.0004V9.00042C27.0002 8.86248 26.9666 8.72716 26.9078 8.60221C26.849 8.47725 26.7662 8.36512 26.664 8.27223C26.5618 8.17935 26.4423 8.10752 26.3124 8.06088C26.1824 8.01424 26.0445 7.99369 25.9066 8.00042H10.4066Z" fill="#272727"/>
<path d="M26.0067 24.0004H6.00674C5.83628 23.9999 5.66877 23.9558 5.52014 23.8724C5.37151 23.7889 5.24667 23.6688 5.1575 23.5235C5.06833 23.3783 5.01778 23.2126 5.01064 23.0423C5.00351 22.872 5.04003 22.7026 5.11674 22.5504L8.56674 15.6604C8.81542 15.1623 9.19781 14.7432 9.67112 14.45C10.1444 14.1569 10.69 14.0012 11.2467 14.0004H28.0067C28.272 14.0004 28.5263 14.1058 28.7138 14.2933C28.9014 14.4808 29.0067 14.7352 29.0067 15.0004C29.0067 15.2656 28.9014 15.52 28.7138 15.7075C28.5263 15.8951 28.272 16.0004 28.0067 16.0004H11.2467C11.0621 16.001 10.8812 16.0527 10.7241 16.1497C10.567 16.2468 10.4398 16.3855 10.3567 16.5504L7.62674 22.0004H26.0067C26.272 22.0004 26.5263 22.1058 26.7138 22.2933C26.9014 22.4808 27.0067 22.7352 27.0067 23.0004C27.0067 23.2656 26.9014 23.52 26.7138 23.7075C26.5263 23.8951 26.272 24.0004 26.0067 24.0004Z" fill="#272727"/>
<path fill-rule="evenodd" clip-rule="evenodd" d="M19.0146 20.3576C18.698 20.5477 18.3023 20.5477 17.9857 20.3576L15.4857 18.8576C15.0121 18.5735 14.8585 17.9592 15.1427 17.4857C15.4268 17.0121 16.0411 16.8585 16.5146 17.1427L18.5002 18.334L20.4857 17.1427C20.9592 16.8585 21.5735 17.0121 21.8576 17.4857C22.1418 17.9592 21.9882 18.5735 21.5146 18.8576L19.0146 20.3576Z" fill="#272727"/>
</svg>
