<svg width="26" height="26" viewBox="0 0 26 26" fill="none" xmlns="http://www.w3.org/2000/svg">
<path d="M22.4524 20.8004H3.55906C3.09301 20.8059 2.6336 20.6896 2.22624 20.4631C1.81889 20.2367 1.47769 19.9078 1.23639 19.509C1.00859 19.1369 0.881611 18.7118 0.867934 18.2757C0.854258 17.8396 0.954359 17.4074 1.15839 17.0217L6.61839 6.62171C6.85006 6.1877 7.19644 5.82564 7.61977 5.57501C8.0431 5.32437 8.52713 5.19478 9.01906 5.20037H22.4524C22.7995 5.19464 23.1444 5.25734 23.4673 5.38491C23.7902 5.51247 24.0848 5.7024 24.3343 5.94384C24.5838 6.18528 24.7833 6.47351 24.9214 6.79206C25.0594 7.1106 25.1334 7.45323 25.1391 7.80037V18.2004C25.1334 18.5475 25.0594 18.8901 24.9214 19.2087C24.7833 19.5272 24.5838 19.8155 24.3343 20.0569C24.0848 20.2983 23.7902 20.4883 23.4673 20.6158C23.1444 20.7434 22.7995 20.8061 22.4524 20.8004ZM9.01906 6.93371C8.84341 6.92991 8.67004 6.97385 8.51741 7.06085C8.36478 7.14785 8.23862 7.27464 8.15239 7.42771L2.69239 17.8277C2.62231 17.9473 2.58537 18.0834 2.58537 18.222C2.58537 18.3607 2.62231 18.4968 2.69239 18.6164C2.78345 18.762 2.91186 18.8806 3.06427 18.9599C3.21667 19.0391 3.38752 19.0761 3.55906 19.067H22.4524C22.5719 19.0729 22.6914 19.0551 22.8041 19.0146C22.9167 18.9742 23.0203 18.912 23.1088 18.8315C23.1974 18.751 23.2692 18.6538 23.3201 18.5455C23.3711 18.4372 23.4002 18.3199 23.4057 18.2004V7.80037C23.4002 7.68083 23.3711 7.56355 23.3201 7.45526C23.2692 7.34696 23.1974 7.24978 23.1088 7.16928C23.0203 7.08878 22.9167 7.02653 22.8041 6.98611C22.6914 6.94569 22.5719 6.92788 22.4524 6.93371H9.01906Z" fill="#272727"/>
<path fill-rule="evenodd" clip-rule="evenodd" d="M15.5876 11.3902C15.862 11.2255 16.2049 11.2255 16.4794 11.3902L18.646 12.6902C19.0565 12.9364 19.1896 13.4688 18.9433 13.8792C18.697 14.2897 18.1647 14.4228 17.7542 14.1765L16.0335 13.144L14.3127 14.1765C13.9023 14.4228 13.3699 14.2897 13.1236 13.8792C12.8774 13.4688 13.0105 12.9364 13.4209 12.6902L15.5876 11.3902Z" fill="#272727"/>
</svg>
