<svg width="32" height="26" viewBox="0 0 32 26" fill="none" xmlns="http://www.w3.org/2000/svg">
<path d="M7.20323 2.22508C6.83651 1.85836 6.24195 1.85836 5.87523 2.22508C5.50851 2.5918 5.50851 3.18636 5.87523 3.55308L25.4472 23.125C25.8139 23.4917 26.4085 23.4917 26.7752 23.125C27.1419 22.7583 27.1419 22.1637 26.7752 21.797L7.20323 2.22508Z" fill="#272727"/>
<path fill-rule="evenodd" clip-rule="evenodd" d="M5.43917 8.29023C5.46014 7.57222 5.70483 6.90132 6.11258 6.35355L7.28551 7.52647C7.15986 7.75367 7.08271 8.00996 7.06609 8.28024L7.0627 8.3933V17.6092C7.0627 18.4435 7.63988 19.1669 8.45339 19.3521C10.3021 19.773 12.8186 19.9875 16.0002 19.9875C17.3277 19.9875 18.5394 19.9502 19.6351 19.8761L21.1371 21.378C19.6498 21.5349 17.9377 21.6125 16.0002 21.6125C12.7187 21.6125 10.0838 21.3899 8.09265 20.9366C6.58966 20.5944 5.50926 19.29 5.44111 17.7626L5.44095 17.759L5.4399 17.7099C2.91147 17.6253 0.887695 15.549 0.887695 13C0.887695 10.4516 2.91056 8.37565 5.43829 8.29026L5.43917 8.29023ZM5.4377 9.91673C3.80812 10.0012 2.5127 11.3494 2.5127 13C2.5127 14.6507 3.80812 15.9989 5.4377 16.0833V9.91673Z" fill="#272727"/>
<path d="M10.1455 12.1875H11.9466L13.5716 13.8125H10.1502C9.70147 13.8125 9.3377 13.4488 9.3377 13C9.3377 12.5832 9.65139 12.2399 10.0556 12.193L10.0603 12.1924L10.1455 12.1875Z" fill="#272727"/>
<path d="M11.4455 15.4375H15.1966L16.8216 17.0625H11.4502C11.0015 17.0625 10.6377 16.6988 10.6377 16.25C10.6377 15.8332 10.9514 15.4899 11.3556 15.443L11.3603 15.4424L11.4455 15.4375Z" fill="#272727"/>
<path d="M18.1038 10.5625L16.4788 8.93753H20.5502C20.9989 8.93753 21.3627 9.3013 21.3627 9.75003C21.3627 10.1668 21.049 10.5101 20.6448 10.5571L20.6401 10.5576L20.5549 10.5625H18.1038Z" fill="#272727"/>
<path d="M21.3538 13.8125L19.7288 12.1875H21.8502C22.2989 12.1875 22.6627 12.5513 22.6627 13C22.6627 13.4168 22.349 13.7601 21.9448 13.8071L21.9401 13.8076L21.8549 13.8125H21.3538Z" fill="#272727"/>
<path fill-rule="evenodd" clip-rule="evenodd" d="M24.9377 17.3964V8.39086C24.9377 7.55653 24.3605 6.83318 23.547 6.64796C21.7755 6.24464 19.3907 6.03077 16.3947 6.01364H15.6057C14.9033 6.01766 14.2345 6.03249 13.5993 6.05804L12.0578 4.5165C13.1347 4.43849 14.3131 4.39605 15.5932 4.38869L16.0002 4.38752C19.2817 4.38752 21.9166 4.61017 23.9078 5.06351C25.4107 5.4057 26.4911 6.71003 26.5593 8.23747L26.5595 8.2411L26.5605 8.2902C29.0889 8.37471 31.1127 10.451 31.1127 13C31.1127 15.5485 29.0898 17.6244 26.5621 17.7098L26.5612 17.7098C26.5501 18.0922 26.4755 18.4612 26.3466 18.8053L24.9377 17.3964ZM26.5627 9.91673C28.1923 10.0012 29.4877 11.3494 29.4877 13C29.4877 14.6507 28.1923 15.9989 26.5627 16.0833V9.91673Z" fill="#272727"/>
</svg>
