<svg width="43" height="30" viewBox="0 0 43 30" fill="none" xmlns="http://www.w3.org/2000/svg">
<path d="M21.375 11H29.3906C29.8822 11 30.2813 11.406 30.2813 11.9062C30.2813 12.4065 29.8822 12.8125 29.3906 12.8125H20.4843C19.9927 12.8125 19.5937 12.4065 19.5937 11.9062V8.2812C19.5937 7.78096 19.9927 7.37493 20.4843 7.37493C20.976 7.37493 21.375 7.78096 21.375 8.2812V11Z" fill="#272727"/>
<path d="M16.9219 11H11.2379L12.3761 8.68724C12.5952 8.23958 12.4171 7.69583 11.9771 7.47103C11.5353 7.24809 11.0028 7.42753 10.7818 7.87705L9.00062 11.5021C8.86168 11.7812 8.87771 12.1165 9.03978 12.3829C9.20185 12.6494 9.48866 12.8125 9.79684 12.8125H16.9218C17.4134 12.8125 17.8125 12.4065 17.8125 11.9062C17.8125 11.406 17.4135 11 16.9219 11Z" fill="#272727"/>
<path d="M22.2657 14.625H24.0469C24.5385 14.625 24.9375 15.031 24.9375 15.5313C24.9375 16.0315 24.5385 16.4375 24.0469 16.4375H22.2657C21.774 16.4375 21.375 16.0315 21.375 15.5313C21.375 15.031 21.774 14.625 22.2657 14.625Z" fill="#272727"/>
<path fill-rule="evenodd" clip-rule="evenodd" d="M35.8993 11H37.4062C40.8779 11 42.75 14.2679 42.75 17.3437C42.75 19.642 41.2338 21.438 39.1112 21.8057C38.724 23.9052 36.908 25.5 34.7344 25.5C32.5848 25.5 30.7849 23.9402 30.3708 21.875H13.1564C12.7425 23.9402 10.9425 25.5 8.7929 25.5C6.64323 25.5 4.84331 23.9401 4.42935 21.8749C1.98568 21.8618 0 19.8333 0 17.3437V13.7187C0 11.2211 1.99856 9.18749 4.4531 9.18749C5.26894 9.18749 6.02775 8.77424 6.48197 8.08368L7.99784 5.76731C8.82612 4.50403 10.2102 3.75 11.7028 3.75H24.5777C25.5841 3.75 26.5727 4.10344 27.36 4.74319L34.3781 10.4562C34.8092 10.8079 35.3489 11 35.8993 11ZM32.0626 20.9687L32.0625 20.9801C32.0686 22.4739 33.265 23.6875 34.7344 23.6875C36.2075 23.6875 37.4062 22.4677 37.4062 20.9688C37.4062 19.4698 36.2075 18.25 34.7344 18.25C33.265 18.25 32.0686 19.4636 32.0625 20.9574L32.0626 20.9687ZM13.1564 20.0625H30.3708C30.7848 17.9973 32.5847 16.4375 34.7344 16.4375C36.8461 16.4375 38.6204 17.9429 39.0747 19.9539C40.1035 19.6608 40.9688 18.7766 40.9688 17.3436C40.9688 15.522 40.0193 12.8123 37.4062 12.8123H35.9011C34.9463 12.8123 34.0094 12.4771 33.2666 11.8699L26.2485 6.15872C25.7747 5.77445 25.1833 5.56238 24.5777 5.56238H11.7028C10.8087 5.56238 9.97678 6.01556 9.47981 6.77316L7.96394 9.08775C7.17841 10.2859 5.86744 11 4.4531 11C2.97998 11 1.78122 12.2197 1.78122 13.7187V17.3437C1.78122 18.8346 2.96713 20.0494 4.42938 20.0624C4.84341 17.9972 6.64329 16.4375 8.7929 16.4375C10.9425 16.4375 12.7424 17.9973 13.1564 20.0625ZM8.7929 23.6875C7.31978 23.6875 6.12103 22.4678 6.12103 20.9688C6.12103 19.4698 7.31978 18.25 8.7929 18.25C10.266 18.25 11.4648 19.4698 11.4648 20.9688C11.4648 22.4677 10.266 23.6875 8.7929 23.6875Z" fill="#272727"/>
</svg>
